<?xml version="1.0" encoding="utf-8"?>
<!-- Generator: Adobe Illustrator 25.2.1, SVG Export Plug-In . SVG Version: 6.00 Build 0)  -->
<svg version="1.1" id="Layer_1" xmlns="http://www.w3.org/2000/svg" xmlns:xlink="http://www.w3.org/1999/xlink" x="0px" y="0px"
	 viewBox="0 0 496.2 496.2" style="enable-background:new 0 0 496.2 496.2;" xml:space="preserve">
<style type="text/css">
	.st0{fill:#32BEA6;}
	.st1{fill:#823D0F;}
	.st2{fill:#F3FAFF;}
	.st3{fill:#DEE0E2;}
	.st4{fill:#E2A379;}
	.st5{fill:#F4B382;}
	.st6{fill:#191919;}
	.st7{fill:#CE9267;}
	.st8{fill:#FFFFFF;}
	.st9{fill:#5C5D60;}
	.st10{fill:#1E1E1E;}
	.st11{fill:#E6E7E8;}
	.st12{fill:#261D17;}
	.st13{opacity:0.63;}
	.st14{fill:#E8D3BB;}
	.st15{fill:#D89364;}
</style>
<path class="st0" d="M496.2,248.1C496.2,111.1,385.1,0,248.1,0S0,111.1,0,248.1s111.1,248.1,248.1,248.1S496.2,385.1,496.2,248.1z"
	/>
<path class="st1" d="M248.1,496.2c70.2,0,133.6-29.2,178.7-76c-2.8-15.1-5.6-28.9-8.3-37.4c-8.5-27.3-81.2-49.3-170.8-49.3
	s-161.5,22-170,49.3c-2.6,8.5-5.5,22.2-8.3,37.4C114.5,467,177.9,496.2,248.1,496.2z"/>
<path class="st2" d="M293.9,336.2c-14.5-1.8-30-2.7-46.1-2.7c-15.9,0-31.2,0.9-45.5,2.7l45.8,40L293.9,336.2z"/>
<polygon class="st3" points="191.7,324.9 307.6,324.9 291.1,349.9 205.1,349.9 "/>
<path class="st4" d="M248.1,367.5l-61.6-32.2c0,0,33-12.4,61.2-12.4s56.2,12.5,56.2,12.5L248.1,367.5z"/>
<g>
	<path class="st2" d="M168.1,357.2l23.6-32.3l56.4,42.6c0,0-19.1,33.3-19.4,33L168.1,357.2z"/>
	<path class="st2" d="M328.1,357.2l-20.6-32.3l-59.4,42.6c0,0,20.8,36.5,21.1,36.2L328.1,357.2z"/>
	<path class="st2" d="M426.8,420.1c-2.8-15.1-5.6-28.9-8.3-37.4c-5.8-18.8-9.5-28.2-60.7-36.5l5.1,121.9
		C386.8,455.6,408.3,439.3,426.8,420.1z"/>
	<path class="st2" d="M77.7,382.8c-2.6,8.5-5.5,22.2-8.3,37.4c18.4,19.1,39.8,35.2,63.4,47.7l-1-119.8
		C80.8,356.3,83.5,364,77.7,382.8z"/>
</g>
<path class="st4" d="M299.2,282.1h-99.8c12.1,36.6,0.9,49.4,0.9,49.4s26.7,10,47.7,10s48.1-10.6,48.1-10.6S287.1,318.7,299.2,282.1z
	"/>
<path class="st5" d="M336.4,175.2c0-92.4-39.5-113.6-88.3-113.6c-48.7,0-88.3,21.2-88.3,113.6c0,31.3,1.3,55.8,10.6,74.7
	C192.1,319,231,313,248.1,313s53.9,5.4,79.2-63.1C336.6,231,336.4,206.5,336.4,175.2z"/>
<g>
	<path class="st6" d="M247.6,292.9h0.5C247.9,292.9,247.8,292.9,247.6,292.9L247.6,292.9z"/>
	<path class="st6" d="M248.6,292.9L248.6,292.9c-0.2,0-0.3,0-0.5,0H248.6z"/>
</g>
<g>
	<path class="st5" d="M170.4,238.7c-8.4,1.4-14.4,0.1-19.1-27.7s1.7-31.5,10.1-32.9L170.4,238.7z"/>
	<path class="st5" d="M325.9,238.7c8.4,1.4,14.3,0.1,19.1-27.7c4.8-27.8-1.7-31.5-10.1-32.9L325.9,238.7z"/>
</g>
<path class="st7" d="M276.1,268.2c0.6,1.7-11.8,6.6-28,6.6c-16.2,0-28.6-4.9-28-6.6c0.4-1,9.7-2.1,15.4-2.1c3.6,0.2,12.5,3,12.6,2.9
	c0.1,0.1,8.9-2.7,12.5-2.9C266.3,266.2,276.1,268.3,276.1,268.2z"/>
<path class="st8" d="M211.8,195c10.6,1,18.4,3.6,18.4,8.4s-8.2,5.9-18.4,5.9s-18.4-1.2-18.4-5.9S195.4,193.5,211.8,195z"/>
<ellipse class="st9" cx="211.7" cy="202.1" rx="8.3" ry="7.3"/>
<ellipse class="st10" cx="211.7" cy="202.1" rx="4.7" ry="4.1"/>
<ellipse class="st8" cx="207.7" cy="199.1" rx="1.8" ry="1.6"/>
<path class="st8" d="M302.5,203.4c0,4.7-8.2,5.9-18.4,5.9c-10.2,0-18.4-1.1-18.4-5.9s7.8-7.4,18.4-8.4
	C300.5,193.5,302.5,198.7,302.5,203.4z"/>
<ellipse class="st9" cx="284.2" cy="202.1" rx="8.3" ry="7.3"/>
<ellipse class="st10" cx="284.2" cy="202.1" rx="4.7" ry="4.1"/>
<ellipse class="st8" cx="280.2" cy="199.1" rx="1.8" ry="1.6"/>
<path class="st5" d="M212.9,176.3c0,0-38.2,33.8-19.5,27.1c17.9-12.7,35.4-7.1,35.3-4.8L212.9,176.3z"/>
<path class="st5" d="M307.6,209.4c0.3-2.3-10.9-15.6-35.1-14.7c-12.7,3.4-12.5-2.6,0.4-7.4c6.7-2.4,31.5,0,31.5,0L307.6,209.4z"/>
<g>
	<path class="st11" d="M310.3,194.7c-0.8-0.7-1.6-1.4-2.4-2.2l-0.4-0.3c-0.7-0.6-1.2-1.1-1.8-1.5l-0.1-0.1l-0.1-0.1
		c-0.4-0.3-0.8-0.5-1.2-0.8c-1.5-1-2.8-2-4.5-2.6l-0.1,0c-0.7-0.3-1.3-0.6-1.8-0.9c-0.5-0.2-0.9-0.5-1.4-0.7
		c-1.1-0.4-2.3-0.8-3.5-1.2l-0.1,0c-0.9-0.4-2-0.6-3.3-0.8c-0.4-0.1-0.8-0.2-1.3-0.3c-0.8-0.2-1.5-0.3-2.1-0.3H286l-0.2,0
		c-0.6-0.1-1.2-0.1-1.9-0.1c-0.4,0-0.9,0-1.3,0c-1.2,0.1-2.3,0.3-3.4,0.4l-0.1,0c-0.6,0.1-1.2,0.2-1.8,0.3c-0.6,0.1-1.1,0.2-1.6,0.3
		l-0.5,0.1c-1,0.1-2.1,0.3-3.2,0.3c-0.2,0-0.4,0.1-0.7,0.1c-0.1,0-0.2,0-0.3,0l-0.2,0.1l-0.3,0.1c-0.5,0.1-1.1,0.3-1.6,0.4l-0.2,0.1
		l-0.2,0c-1.2,0.1-2.3,0.4-3.4,0.7l-0.1,0l-0.1,0c-1.7,0.4-3.4,0.8-5.3,1.2c-0.9,0.2-1.8,0.4-2.8,0.7l-1.6,0.4l-2.1-3.7l0.1-0.7
		c0.6-3.3,2.2-6.3,5.1-9.2l0.1-0.1l0.1-0.1c1.3-1.1,2.5-2.1,4.2-3l0.3-0.2c1.4-0.7,2.7-1.3,4.4-1.8c1.7-0.4,3.3-0.8,5.2-0.9
		c0.4,0,0.9,0,1.4,0c1.4,0,2.8,0.1,4.1,0.3l0.1,0l0.1,0c1.7,0.3,3.4,0.7,5,1.1c1.8,0.5,3.3,0.9,4.9,1.4c2,0.6,3.5,1.2,4.8,1.9
		c0.4,0.2,0.9,0.4,1.5,0.6c0.9,0.4,2,0.8,3,1.5c1.2,0.7,2.3,1.4,3.4,2.2c0.3,0.2,0.5,0.4,0.8,0.6c0.6,0.5,1.2,0.9,1.7,1.4
		c0.4,0.4,0.9,0.7,1.3,1.1c2.3,1.7,4.1,3.8,5.7,5.6c1.3,1.6,2.4,3.2,3.3,4.7c0.2,0.4,0.5,0.7,0.7,1.1l1.2,1.8l-1.9,1
		c-0.2,0.1-0.4,0.2-0.6,0.3l-1.4,0.8L310.3,194.7z"/>
	<path class="st11" d="M255.2,183.9c0.6-3.4,2.5-6,4.6-8.2c1.2-1,2.3-1.9,3.8-2.7c1.5-0.7,2.7-1.3,4.3-1.8c1.6-0.4,3.1-0.8,4.8-0.9
		c1.7-0.1,3.4,0,5.1,0.2c1.7,0.3,3.3,0.7,4.9,1c1.7,0.4,3.2,0.9,4.8,1.4c1.6,0.5,3.1,1,4.5,1.7c1.4,0.7,2.9,1.1,4.3,2
		c1.2,0.7,2.3,1.4,3.4,2.2c0.2,0.2,0.5,0.3,0.7,0.5c1.1,0.8,2,1.6,3,2.4c2.2,1.6,3.9,3.7,5.4,5.4c1.5,1.8,2.7,3.8,3.8,5.5
		c-0.2,0.1-0.4,0.2-0.7,0.4c-0.8-0.7-1.6-1.4-2.4-2.2c-0.8-0.8-1.6-1.6-2.6-2.1c-2-1.3-3.8-2.8-6.1-3.7c-1.2-0.5-2.2-1.2-3.3-1.6
		c-1.2-0.4-2.4-0.8-3.6-1.2c-1.1-0.4-2.4-0.7-3.7-0.9c-1.3-0.2-2.5-0.6-3.8-0.6c-1.3-0.2-2.5-0.2-3.7-0.1c-1.2,0.1-2.4,0.3-3.6,0.5
		c-1.2,0.1-2.4,0.5-3.6,0.6c-1.2,0.2-2.4,0.4-3.7,0.4c-0.6,0.1-1.2,0-1.8,0.4c-0.6,0.1-1.1,0.3-1.6,0.4c-1.4,0.1-2.6,0.4-3.9,0.8
		c-2.6,0.5-5.2,1.2-8.1,1.9C255.9,185.1,255.6,184.5,255.2,183.9z"/>
</g>
<g>
	<path class="st11" d="M182.9,190.5l0.9-1.1c4-5.2,7.8-8.8,11.9-11.3c4.6-3.2,10-5.5,15.1-6.3c0.5-0.1,1-0.2,1.5-0.3
		c2.2-0.4,4.4-0.8,6.6-0.8l0.2,0c2.9,0,6,0.6,8.6,1.6l0.1,0.1c2.9,1.3,5.3,2.8,7.5,4.6c2.3,2,4.6,4.2,6,7.6l0.1,0.3l0.1,3.4
		l-2.8-0.4c-2.8-0.4-5.4-0.9-7.9-1.4c-2.1-0.4-4.1-0.8-6-1.1c-1.6-0.2-3.1-0.5-4.5-0.9c-0.7-0.2-1.4-0.3-2.1-0.5
		c-2.1-0.4-4.1-0.8-6-0.8c-2.1,0-4.3,0.2-6.3,0.6c-2.2,0.5-4.3,1.1-6.1,1.9c-3.9,1.6-7.8,3.8-12.1,7l-1.9,1.4L182.9,190.5z"/>
	<path class="st11" d="M239.2,185.9c-5.1-0.7-9.6-1.9-14-2.5c-2.2-0.2-4.2-0.9-6.4-1.3c-2.2-0.4-4.3-0.9-6.6-0.9
		c-2.1,0-4.5,0.2-6.8,0.7c-2.2,0.5-4.5,1.1-6.6,2c-4.5,1.8-8.5,4.3-12.6,7.3l-0.6-0.7c3.3-4.2,6.9-8.1,11.3-10.8
		c4.3-2.9,9.2-5.1,14.2-6c2.5-0.4,5.3-1,7.9-1c2.6,0,5.3,0.5,7.7,1.4c2.5,1.2,4.8,2.5,7,4.3c2.1,1.8,4.2,3.8,5.4,6.8L239.2,185.9z"
		/>
</g>
<g>
	<path class="st11" d="M168.6,180.9l2.8,27.6l3.9-1.9c-0.2-23,2.6-51.1,2.6-51.1l-21.5-0.1c-0.4,6.2,3.5,12.8,3.5,19.8
		c0,0.9,0,1.8,0,2.7C163.8,177.8,168.6,178.2,168.6,180.9z"/>
	<path class="st11" d="M327.6,180.9l-2.8,27.6l-3.9-1.9c0.2-23-2.6-51.1-2.6-51.1l19.4-0.1c0.4,6.2-1.4,12.8-1.4,19.8
		c0,0.9,0,1.8,0,2.7C332.4,177.8,327.6,178.2,327.6,180.9z"/>
</g>
<g>
	<path class="st8" d="M311.5,337.4L311.5,337.4L311.5,337.4L311.5,337.4z"/>
	<path class="st8" d="M298.5,335.9L298.5,335.9L298.5,335.9z"/>
</g>
<g>
	<g>
		<g>
			<path class="st12" d="M211.7,230.4c-14,0-25.2-11.3-25.2-25.2c0-14,11.3-25.2,25.2-25.2c14,0,25.2,11.3,25.2,25.2
				C237,219.1,225.7,230.4,211.7,230.4z M211.7,185.7c-10.7,0-19.4,8.7-19.4,19.4c0,10.7,8.7,19.4,19.4,19.4
				c10.7,0,19.4-8.7,19.4-19.4C231.1,194.4,222.4,185.7,211.7,185.7z"/>
			<path class="st12" d="M248,195.5c-12.1,0-13.4,6.5-13,10.2c-0.2,3.2,0.5,5.8,0.5,5.8c2.3-4.8,7.2-7.9,12.4-7.9s10.2,3.1,12.4,7.9
				c0,0,0.7-2.6,0.5-5.8C261.4,202.1,260.1,195.5,248,195.5z"/>
			<path class="st12" d="M284.5,230.4c-14,0-25.2-11.3-25.2-25.2c0-14,11.3-25.2,25.2-25.2s25.2,11.3,25.2,25.2
				C309.8,219.1,298.5,230.4,284.5,230.4z M284.5,185.7c-10.7,0-19.4,8.7-19.4,19.4c0,10.7,8.7,19.4,19.4,19.4s19.4-8.7,19.4-19.4
				C303.9,194.4,295.2,185.7,284.5,185.7z"/>
		</g>
		<g>
			<polygon class="st12" points="191,199.3 167.7,187.3 168.5,183.9 191.7,195.8 			"/>
			<polygon class="st12" points="308.2,201 307.5,197.5 327.7,185.6 328.5,189.1 			"/>
		</g>
	</g>
	<g class="st13">
		<path class="st14" d="M284.5,185.7c-10.7,0-19.4,8.7-19.4,19.4c0,10.7,8.7,19.4,19.4,19.4s19.4-8.7,19.4-19.4
			C303.9,194.4,295.2,185.7,284.5,185.7z"/>
		<path class="st14" d="M211.7,185.7c-10.7,0-19.4,8.7-19.4,19.4c0,10.7,8.7,19.4,19.4,19.4c10.7,0,19.4-8.7,19.4-19.4
			C231.1,194.4,222.4,185.7,211.7,185.7z"/>
	</g>
</g>
<g>
	<path class="st15" d="M238.4,249c1.4,0.3,2.9,0.6,4.3,0.8c1.4,0.1,2.9,0.3,4.3,0.3c1.4,0,2.9-0.1,4.3-0.2c1.4-0.2,2.9-0.5,4.3-0.8
		c-1.3,1.4-2.8,2-4.2,2.6s-2.9,0.7-4.4,0.7s-2.9-0.2-4.4-0.8C241.2,251,239.7,250.3,238.4,249z"/>
</g>
</svg>
