<?xml version="1.0" encoding="utf-8"?>
<!-- Generator: Adobe Illustrator 25.2.1, SVG Export Plug-In . SVG Version: 6.00 Build 0)  -->
<svg version="1.1" id="Layer_1" xmlns="http://www.w3.org/2000/svg" xmlns:xlink="http://www.w3.org/1999/xlink" x="0px" y="0px"
	 viewBox="0 0 496.2 496.2" style="enable-background:new 0 0 496.2 496.2;" xml:space="preserve">
<style type="text/css">
	.st0{fill:#A3D5E0;}
	.st1{fill:#337180;}
	.st2{fill:#F3FAFF;}
	.st3{fill:#DEE0E2;}
	.st4{fill:#E2A379;}
	.st5{fill:#F4B382;}
	.st6{fill:#191919;}
	.st7{fill:#E5A173;}
	.st8{fill:#D89364;}
	.st9{fill:#773A23;}
	.st10{fill:#242D2B;}
	.st11{fill:#181E1D;}
	.st12{fill:#2A3633;}
	.st13{fill:#BC992F;}
	.st14{fill:#FFFFFF;}
	.st15{fill:#678683;}
	.st16{fill:#1E1E1E;}
	.st17{fill:#47200D;}
</style>
<path class="st0" d="M496.2,248.1C496.2,111.1,385.1,0,248.1,0S0,111.1,0,248.1s111.1,248.1,248.1,248.1S496.2,385.1,496.2,248.1z"
	/>
<path class="st1" d="M248.1,496.2c70.2,0,133.6-29.2,178.7-76c-2.8-15.1-5.6-28.9-8.3-37.4c-8.5-27.3-81.2-49.3-170.8-49.3
	s-161.5,22-170,49.3c-2.6,8.5-5.5,22.2-8.3,37.4C114.5,467,177.9,496.2,248.1,496.2z"/>
<path class="st2" d="M322.3,349.9c-14.5-1.8-58.4-16.4-74.5-16.4c-15.9,0-47.6,5.3-61.9,7.1l62.2,86.6L322.3,349.9z"/>
<rect x="205.1" y="324.9" class="st3" width="86" height="25"/>
<path class="st4" d="M248.1,412.1l-53.6-69c0,0,25-20.2,53.2-20.2s67.5,27,67.5,27L248.1,412.1z"/>
<path class="st4" d="M299.9,282.1H194.5c12.1,36.6-7.6,64.6-7.6,64.6s40.2-5.2,61.2-5.2s65.6,3.1,65.6,3.1S287.8,318.7,299.9,282.1z
	"/>
<path class="st5" d="M336.4,175.2c0-92.4-39.5-113.6-88.3-113.6c-48.7,0-88.3,21.2-88.3,113.6c0,31.3,6.2,55.8,15.5,74.7
	c32.9,68.1,29.6,58,69.7,58c36,0,53.5,9.1,75.9-58C330.2,231,336.4,206.5,336.4,175.2z"/>
<g>
	<path class="st6" d="M247.6,292.9h0.5C247.9,292.9,247.8,292.9,247.6,292.9L247.6,292.9z"/>
	<path class="st6" d="M248.6,292.9L248.6,292.9c-0.2,0-0.3,0-0.5,0H248.6z"/>
</g>
<g>
	<path class="st5" d="M170.4,238.7c-8.4,1.4-14.4,0.1-19.1-27.7s1.7-31.5,10.1-32.9L170.4,238.7z"/>
	<path class="st5" d="M325.9,238.7c8.4,1.4,14.3,0.1,19.1-27.7c4.8-27.8-1.7-31.5-10.1-32.9L325.9,238.7z"/>
</g>
<path class="st7" d="M274.8,265.2c0,2.6-11.9,9.5-26.7,9.5s-26.7-7-26.7-9.5c0-1.6,8.5-6.1,14.1-6.9c3.6-0.5,12.5,2.9,12.5,2.9
	s8.8-3.4,12.4-2.9C266.2,259.1,274.8,265.2,274.8,265.2z"/>
<path class="st8" d="M274.8,265.2c0,2.6-11.9,12.4-26.7,12.4s-26.7-9.9-26.7-12.4c0,0,10.9,1.3,26.7,1.3S274.8,265.2,274.8,265.2z"
	/>
<g>
	<path class="st9" d="M336.4,175.2c0-92.4-30.3-116.1-88.3-116.1s-88.3,23.7-88.3,116.1l39.8-33.1c0,0,26.5,0,48.5,0
		s46.2-35.3,46.2-35.3L336.4,175.2z"/>
	<path class="st9" d="M330.8,140.8c4.2,10.9,5.6,24.4,5.6,37.5c0,0-8.8-1.9-8.8,2.6l-2.8,27.6l-3.9-1.9c0.2-23-4.9-66.2-4.9-66.2
		L330.8,140.8z"/>
</g>
<rect x="161" y="93.6" class="st10" width="174.1" height="39"/>
<path class="st11" d="M257.9,125.7c-5.4,1.6-14.2,1.6-19.6,0L118.7,89.1c-2.8-0.8-4.1-2-4.1-3.1v-4.1h267c0,0,0,4.1,0,4.2
	c0,1.1-1.4,2.2-4.1,3L257.9,125.7z"/>
<path class="st12" d="M257.9,121.5c-5.4,1.6-14.2,1.6-19.6,0L118.7,84.9c-5.4-1.7-5.4-4.3,0-6l119.6-36.6c5.4-1.7,14.2-1.7,19.6,0
	l119.6,36.6c5.4,1.7,5.4,4.3,0,6L257.9,121.5z"/>
<g>
	<path class="st13" d="M323.8,99c-0.9,0-1.6,0.7-1.6,1.6v65.8c0,0.9,0.7,1.6,1.6,1.6s1.6-0.7,1.6-1.6v-65.8
		C325.4,99.7,324.7,99,323.8,99z"/>
	<path class="st13" d="M324.2,99.1l-67.9-21.2c-0.9-0.3-1.8,0.2-2,1.1c-0.3,0.9,0.2,1.8,1.1,2l67.9,21.2c0.9,0.3,1.8-0.2,2-1.1
		C325.6,100.2,325.1,99.3,324.2,99.1z"/>
	<path class="st13" d="M328.2,135.3c0,2.8-2,5.1-4.5,5.1s-4.5-2.3-4.5-5.1s2-5.1,4.5-5.1S328.2,132.5,328.2,135.3z"/>
	<path class="st13" d="M322.2,139.6c0,0-4.5,5.2-4.5,8.3c0,1.3,0,8.6-0.1,13.8c0,3.2-2.4,5.7-2.4,5.7c0,1.8,16.9,1.8,16.9,0
		c0,0-2.4-2.4-2.4-5.5c0-5.2-0.1-12.3-0.1-13.8c0-3.4-4.5-8.5-4.5-8.5H322.2z"/>
</g>
<path class="st11" d="M256.9,77.1c0,2.9-3.8,5.2-8.5,5.2s-8.5-2.4-8.5-5.2c0-2.9,3.8-5.3,8.5-5.3C253.1,71.8,256.9,74.2,256.9,77.1z
	"/>
<path class="st9" d="M165.5,140.8c-4.2,10.9-5.6,24.4-5.6,37.5c0,0,8.8-1.9,8.8,2.6l2.8,27.6l3.9-1.9c-0.2-23,4.9-68,4.9-68
	L165.5,140.8z"/>
<g>
	<path class="st14" d="M311.5,337.4L311.5,337.4L311.5,337.4L311.5,337.4z"/>
	<path class="st14" d="M298.5,335.9L298.5,335.9L298.5,335.9z"/>
</g>
<path class="st14" d="M212.9,192c10.6,1,18.4,3.6,18.4,8.4s-8.2,5.9-18.4,5.9s-18.4-1.2-18.4-5.9S196.5,190.5,212.9,192z"/>
<ellipse class="st15" cx="212.8" cy="199.1" rx="8.3" ry="7.3"/>
<ellipse class="st16" cx="212.8" cy="199.1" rx="4.7" ry="4.1"/>
<path class="st14" d="M297.3,200.4c0,4.7-8.2,5.9-18.4,5.9c-10.2,0-18.4-1.1-18.4-5.9s7.8-7.4,18.4-8.4
	C295.3,190.5,297.3,195.7,297.3,200.4z"/>
<ellipse class="st15" cx="279" cy="199.1" rx="8.3" ry="7.3"/>
<ellipse class="st16" cx="279" cy="199.1" rx="4.7" ry="4.1"/>
<ellipse class="st14" cx="275" cy="196.1" rx="1.8" ry="1.6"/>
<ellipse class="st14" cx="210" cy="196.1" rx="1.8" ry="1.6"/>
<path class="st5" d="M215.6,181.1c0,0-43.2,25.9-25.5,16.9c19.8-10.1,37.6-4.5,37.8-2.2L215.6,181.1z"/>
<path class="st5" d="M303.2,200.7c0.3-2.3-17.3-12.4-38.7-6.5c-12.7,3.4-8.9-1.8,3.9-6.5c6.7-2.4,30.9-3.2,30.9-3.2L303.2,200.7z"/>
<g>
	<path class="st17" d="M233.9,188.1c-4.4-1.6-8.5-3-12.5-3.7c-2-0.3-3.9-0.7-5.9-1c-2-0.2-4.1-0.4-6.1-0.2c-1.9,0.1-4.1,0.4-6.1,0.8
		c-1.9,0.4-3.9,0.9-5.7,1.5c-3.7,1.1-6.9,2.4-10,3.5c-0.2,0-0.4,0-0.6,0c2.2-1.2,4.8-2.7,8.3-4.3c3.4-1.6,7.7-3.4,12.3-4.5
		c2.3-0.5,5-1.2,7.5-1.4c2.5-0.2,5.2-0.1,7.5,0.4c2.5,0.6,4.7,1.6,6.8,2.9c2,1.4,3.8,3.1,4.6,5.5C234,187.8,234,187.9,233.9,188.1z"
		/>
</g>
<g>
	<path class="st17" d="M260.1,187.6c0.8-2.4,2.7-4.1,4.6-5.5c2.1-1.4,4.3-2.3,6.8-2.9c2.3-0.5,5-0.6,7.5-0.4
		c2.5,0.2,5.1,0.9,7.5,1.4c4.6,1.1,8.9,2.9,12.3,4.5c3.5,1.6,6.1,3.1,8.3,4.3c-0.2,0-0.4,0-0.6,0c-3-1.1-6.2-2.3-10-3.5
		c-1.8-0.6-3.8-1.1-5.7-1.5c-2-0.4-4.2-0.7-6.1-0.8c-2.1-0.1-4.1,0-6.1,0.2c-2,0.2-3.9,0.7-5.9,1c-4,0.7-8.1,2-12.5,3.7
		C260.1,187.9,260.1,187.8,260.1,187.6z"/>
</g>
<g>
	<path class="st8" d="M238,239.6c1.4,0.3,2.9,0.6,4.3,0.8c1.4,0.1,2.9,0.3,4.3,0.3c1.4,0,2.9-0.1,4.3-0.2c1.4-0.2,2.9-0.5,4.3-0.8
		c-1.3,1.4-2.8,2-4.2,2.6s-2.9,0.7-4.4,0.7s-2.9-0.2-4.4-0.8C240.8,241.6,239.3,240.9,238,239.6z"/>
</g>
<g>
	<path class="st2" d="M333,357.2l-22.8-28.6l-43,67c0,0,22,0.3,22.3,0L333,357.2z"/>
	<path class="st2" d="M156.1,357.2l37-32.3l32,63.9c0,0-25.2,7.1-25.5,6.8L156.1,357.2z"/>
</g>
</svg>
