<?xml version="1.0" encoding="utf-8"?>
<!-- Generator: Adobe Illustrator 25.2.0, SVG Export Plug-In . SVG Version: 6.00 Build 0)  -->
<svg version="1.1" id="Layer_1" xmlns="http://www.w3.org/2000/svg" xmlns:xlink="http://www.w3.org/1999/xlink" x="0px" y="0px"
	 viewBox="0 0 496.3 496.3" style="enable-background:new 0 0 496.3 496.3;" xml:space="preserve">
<style type="text/css">
	.st0{fill:#32BEA6;}
	.st1{fill:#E2A379;}
	.st2{fill:#C68F14;}
	.st3{fill:#F4B382;}
	.st4{fill:#D3C624;}
	.st5{fill:#D6D6D6;}
	.st6{fill:#D61E1E;}
	.st7{fill:#E6E7E8;}
	.st8{fill:#5B5243;}
	.st9{fill:#C18C16;}
	.st10{fill:#E5A173;}
	.st11{fill:#D89364;}
	.st12{fill:#47200D;}
	.st13{fill:#FFFFFF;}
	.st14{fill:#30302E;}
	.st15{fill:none;stroke:#D89364;stroke-miterlimit:10;}
</style>
<path class="st0" d="M496.2,248.1C496.2,111.1,385.1,0,248.1,0S0.1,111.1,0.1,248.1s111.1,248.1,248.1,248.1
	S496.2,385.1,496.2,248.1z"/>
<path class="st1" d="M287,282.1h-77.8c12.1,36.6,1,53.3,1,53.3H286C286,335.4,275,318.7,287,282.1z"/>
<polygon class="st2" points="324.6,351.2 171.6,351.2 187.1,281.7 309.1,281.7 "/>
<g>
	<path class="st3" d="M336.5,175.2c0-92.4-39.5-113.6-88.3-113.6c-48.7,0-88.3,21.2-88.3,113.6c0,31.3,6.2,55.8,15.5,74.7
		c20.4,41.6,55.7,56.1,72.8,56.1s52.4-14.5,72.8-56.1C330.2,231,336.5,206.5,336.5,175.2z"/>
	<path class="st3" d="M170.4,238.7c-8.4,1.4-14.4,0.1-19.1-27.7s1.7-31.5,10.1-32.9L170.4,238.7z"/>
	<path class="st3" d="M326,238.7c8.4,1.4,14.3,0.1,19.1-27.7c4.8-27.8-1.7-31.5-10.1-32.9L326,238.7z"/>
</g>
<path class="st4" d="M418.5,382.8c-5.8-18.6-41.4-34.7-91.8-43.1c0.7-6.1,1.4-15,1.4-27.5c0-20.3-19-30.4-19-30.4s-38,15.5-61,15.5
	s-61-15.5-61-15.5s-19,11.1-19,30.4c0,12.3,0.6,21.2,1.4,27.4c-50.5,8.4-86,24.6-91.8,43.3c-2.6,8.5-5.5,22.2-8.3,37.4
	c7.4,7.7,15.3,14.9,23.7,21.6c42.5,34,96.4,54.4,155,54.4c58.7,0,112.6-20.4,155-54.4c8.4-6.7,16.3-13.9,23.7-21.6
	C424.1,405,421.2,391.2,418.5,382.8z"/>
<path class="st5" d="M356.6,345.9c-8.4-2.2-17.4-4.2-27-5.8v105.6h-163V340c-9.6,1.7-18.6,3.6-27,5.8v99.8H98.1
	c20.6,15.6,43.6,28.1,68.5,36.8v-9.8h163v9.8c24.9-8.7,47.9-21.2,68.5-36.8h-41.5V345.9z"/>
<circle class="st6" cx="298.6" cy="415.2" r="23.3"/>
<g>
	<rect x="282.6" y="410.9" class="st7" width="32.1" height="8.5"/>
	<rect x="294.5" y="399.2" class="st7" width="8.5" height="32.1"/>
</g>
<g>
	<circle class="st8" cx="248.1" cy="319" r="6.1"/>
	<circle class="st8" cx="248.1" cy="373.3" r="6.1"/>
	<circle class="st8" cx="248.1" cy="427.5" r="6.1"/>
	<circle class="st8" cx="248.1" cy="481.8" r="6.1"/>
</g>
<g>
	<path class="st9" d="M236.6,495.9c1,0,2,0.1,3,0.1V351.2h-3V495.9z"/>
	<polygon class="st9" points="236.6,296.2 236.6,351.2 239.6,351.2 239.6,296.5 	"/>
</g>
<path class="st10" d="M274.9,257c0,2.6-11.9,9.5-26.7,9.5s-26.7-7-26.7-9.5c0-1.6,8.5-6.1,14.1-6.9c3.6-0.5,12.5,2.9,12.5,2.9
	s8.8-3.4,12.4-2.9C266.2,250.9,274.9,257,274.9,257z"/>
<path class="st11" d="M274.9,257c0,2.6-11.9,12.4-26.7,12.4s-26.7-9.9-26.7-12.4c0,0,10.9,1.3,26.7,1.3S274.9,257,274.9,257z"/>
<g>
	<path class="st12" d="M336.5,175.2c0-92.4-30.3-116.1-88.3-116.1s-88.3,23.7-88.3,116.1c0,0,16.3-34.1,28.3-53.1s38-18.3,38-18.3
		h49c0,0,27,0.3,34.5,18.3L336.5,175.2z"/>
	<circle class="st12" cx="312.6" cy="110.4" r="11.5"/>
	<circle class="st12" cx="296.5" cy="109.7" r="11.5"/>
	<circle class="st12" cx="280.5" cy="108.4" r="11.5"/>
	<circle class="st12" cx="264.2" cy="107.9" r="11.5"/>
	<circle class="st12" cx="248.1" cy="106.3" r="11.5"/>
	<circle class="st12" cx="232.1" cy="107.9" r="11.5"/>
	<circle class="st12" cx="215.9" cy="108.4" r="11.5"/>
	<circle class="st12" cx="199.8" cy="109.7" r="11.5"/>
	<circle class="st12" cx="183.6" cy="110.4" r="11.5"/>
	<path class="st12" d="M165.6,140.8c-4.2,10.9-5.6,24.4-5.6,37.5c0,0,8.8-1.9,8.8,2.6l2.8,27.6l3.9-1.9c-0.2-23,4.9-83.5,4.9-83.5
		L165.6,140.8z"/>
	<path class="st12" d="M330.9,140.8c4.2,10.9,5.6,24.4,5.6,37.5c0,0-8.8-1.9-8.8,2.6l-2.7,27.6l-3.9-1.9c0.2-23-4.9-81.7-4.9-81.7
		L330.9,140.8z"/>
</g>
<g>
	<path class="st13" d="M311.5,337.4L311.5,337.4L311.5,337.4L311.5,337.4z"/>
	<path class="st13" d="M298.5,335.9L298.5,335.9L298.5,335.9z"/>
</g>
<g>
	<path class="st14" d="M265,182c1.4-1.8,3.2-3.1,5.1-4.2c1-0.5,1.9-1,2.9-1.4s2-0.8,3.1-1s2.1-0.5,3.2-0.6s2.2-0.1,3.3,0l3.2,0.4
		c1.1,0.2,2.1,0.4,3.2,0.5s2.1,0.4,3.1,0.7s2.1,0.4,3.1,0.8l3,1.1c1,0.4,1.9,0.9,2.9,1.3c1.9,0.8,3.7,2,5.4,3.1s3.3,2.5,4.9,3.7
		L311,187l-2.8-1.2c-0.9-0.4-1.8-0.9-2.8-1.1c-1.9-0.6-3.7-1.4-5.7-1.7c-1-0.2-1.9-0.5-2.8-0.7l-2.9-0.4c-0.9-0.2-1.9-0.2-2.9-0.3
		s-1.9-0.2-2.9-0.1c-1,0-1.9,0-2.8,0.1l-2.8,0.4c-0.9,0.1-1.9,0.3-2.8,0.4c-0.9,0.1-1.9,0.2-2.8,0.2c-0.5,0-0.9,0-1.4,0.1
		c-0.5,0-0.9,0.1-1.4,0.1c-1,0-1.9,0.1-2.9,0.1c-2,0.1-4,0.1-6.2,0.1L265,182z"/>
</g>
<g>
	<path class="st14" d="M231.7,176.3c-4.4,0.4-8.4,0.5-12.2,0.9c-1.9,0.2-3.7,0.2-5.6,0.3s-3.8,0.2-5.7,0.6c-1.8,0.5-3.8,1.1-5.6,1.8
		c-1.8,0.8-3.6,1.6-5.3,2.7c-3.5,2.1-6.6,4.8-9.5,7.7l-0.6-0.4c2.1-3.7,4.7-7.1,7.9-10c3.2-3,7-5.5,11.1-7.1
		c2.1-0.8,4.3-1.7,6.5-2.2s4.6-0.7,6.7-0.4c2.3,0.3,4.5,0.8,6.6,1.8c2.1,0.9,4.1,2,5.6,3.8L231.7,176.3z"/>
</g>
<path class="st13" d="M214.4,190.2c10.6,1,18.4,3.6,18.4,8.4s-8.2,5.9-18.4,5.9s-18.4-1.2-18.4-5.9S198,188.7,214.4,190.2z"/>
<ellipse class="st14" cx="214.3" cy="197.3" rx="8.3" ry="7.3"/>
<ellipse class="st13" cx="210.3" cy="194.3" rx="1.8" ry="1.6"/>
<path class="st15" d="M261.7,201.1c0,0,15.6,6.2,41.2,0"/>
<g>
	<path class="st11" d="M238.9,236.8c1.4,0.3,2.9,0.6,4.3,0.8c1.4,0.1,2.9,0.3,4.3,0.3c1.4,0,2.9-0.1,4.3-0.2
		c1.4-0.2,2.9-0.5,4.3-0.8c-1.3,1.4-2.8,2-4.2,2.6c-1.4,0.6-2.9,0.7-4.4,0.7c-1.5,0-2.9-0.2-4.4-0.8
		C241.7,238.7,240.2,238,238.9,236.8z"/>
</g>
<path class="st3" d="M233.6,200.3c0.3,2.3-16.4,6.3-37.8,0.3c-19.2-5.4,24.2,10.6,24.2,10.6L233.6,200.3z"/>
</svg>
