<?xml version="1.0" encoding="utf-8"?>
<!-- Generator: Adobe Illustrator 25.2.1, SVG Export Plug-In . SVG Version: 6.00 Build 0)  -->
<svg version="1.1" id="Layer_1" xmlns="http://www.w3.org/2000/svg" xmlns:xlink="http://www.w3.org/1999/xlink" x="0px" y="0px"
	 viewBox="0 0 496.2 496.2" style="enable-background:new 0 0 496.2 496.2;" xml:space="preserve">
<style type="text/css">
	.st0{fill:#32BEA6;}
	.st1{fill:#F3FAFF;}
	.st2{fill:#DADDE0;}
	.st3{fill:#DEE0E2;}
	.st4{fill:#E2A379;}
	.st5{fill:#F4B382;}
	.st6{fill:#47200D;}
	.st7{fill:#191919;}
	.st8{fill:#E5A173;}
	.st9{fill:#D89364;}
	.st10{fill:#FFFFFF;}
	.st11{fill:#734F00;}
	.st12{fill:#1E1E1E;}
	.st13{opacity:0.58;fill:#BAE5D2;}
	.st14{fill:#D1EDDF;}
	.st15{opacity:0.58;fill:#D1EDDF;}
	.st16{fill:#E8D3BB;}
	.st17{fill:none;stroke:#301E19;stroke-width:6.487;stroke-linecap:round;stroke-linejoin:round;stroke-miterlimit:10;}
</style>
<path class="st0" d="M496.2,248.1C496.2,111.1,385.1,0,248.1,0S0,111.1,0,248.1s111.1,248.1,248.1,248.1S496.2,385.1,496.2,248.1z"
	/>
<path class="st1" d="M248.1,496.2c70.2,0,133.6-29.2,178.7-76c-2.8-15.1-5.6-28.9-8.3-37.4c-8.5-27.3-81.2-49.3-170.8-49.3
	s-161.5,22-170,49.3c-2.6,8.5-5.5,22.2-8.3,37.4C114.5,467,177.9,496.2,248.1,496.2z"/>
<path class="st2" d="M293.9,336.2c-14.5-1.8-30-2.7-46.1-2.7c-15.9,0-31.2,0.9-45.5,2.7l45.8,91L293.9,336.2z"/>
<rect x="205.1" y="324.9" class="st3" width="86" height="25"/>
<path class="st4" d="M248.1,412.1l-37.8-76.8c0,0,9.2-12.4,37.4-12.4s38.1,12.5,38.1,12.5L248.1,412.1z"/>
<g>
	<path class="st2" d="M168.1,357.2l37-32.3l32,63.9c0,0-25.2,7.1-25.5,6.8L168.1,357.2z"/>
	<path class="st2" d="M328.1,357.2l-37-32.3l-32,63.9c0,0,25.2,7.1,25.5,6.8L328.1,357.2z"/>
</g>
<path class="st4" d="M287,282.1h-77.8c12.1,36.6,1,53.3,1,53.3s16.9,6.1,37.9,6.1s37.9-6.1,37.9-6.1S274.9,318.7,287,282.1z"/>
<path class="st5" d="M336.4,175.2c0-92.4-39.5-113.6-88.3-113.6c-48.7,0-88.3,21.2-88.3,113.6c0,31.3,6.2,55.8,15.5,74.7
	c20.4,41.6,55.7,56.1,72.8,56.1s52.4-14.5,72.8-56.1C330.2,231,336.4,206.5,336.4,175.2z"/>
<path class="st6" d="M336.4,175.2c0-92.4-30.3-116.1-88.3-116.1s-88.3,23.7-88.3,116.1c0,0,16.3-34.1,28.3-53.1s38-18.3,38-18.3h49
	c0,0,27,0.3,34.5,18.3L336.4,175.2z"/>
<g>
	<path class="st7" d="M247.6,292.9h0.5C247.9,292.9,247.8,292.9,247.6,292.9L247.6,292.9z"/>
	<path class="st7" d="M248.6,292.9L248.6,292.9c-0.2,0-0.3,0-0.5,0H248.6z"/>
</g>
<g>
	<path class="st5" d="M170.4,238.7c-8.4,1.4-14.4,0.1-19.1-27.7s1.7-31.5,10.1-32.9L170.4,238.7z"/>
	<path class="st5" d="M325.9,238.7c8.4,1.4,14.3,0.1,19.1-27.7c4.8-27.8-1.7-31.5-10.1-32.9L325.9,238.7z"/>
</g>
<path class="st8" d="M276.6,256.8c1,2.3-10.7,13.3-28.5,13.3c-17.8,0-29.5-11.1-28.5-13.3c0.5-1.4,10.2-3.6,15.8-3.9
	c3.6,0.1,12.5,3.8,12.6,3.7c0.1,0.1,8.9-3.6,12.5-3.7C266.2,253.2,276.5,256.9,276.6,256.8z"/>
<path class="st9" d="M274.8,257c1.1,2.3-9.3,15.9-26.7,16c-17.4,0-27.8-13.8-26.7-16c-0.1-0.1,10.4,4.8,26.7,4.9
	C264.4,261.8,274.9,256.9,274.8,257z"/>
<g>
	<path class="st6" d="M168.6,180.9l2.8,27.6l3.9-1.9c-0.2-23,2.6-73.8,2.6-73.8l-17.3,22.7c-0.4,6.2-0.7,12.8-0.7,19.8
		c0,0.9,0,1.8,0,2.7C163.8,177.8,168.6,178.2,168.6,180.9z"/>
	<path class="st6" d="M327.6,180.9l-2.8,27.6l-3.9-1.9c0.2-23-2.6-82.8-2.6-82.8l17.3,31.7c0.4,6.2,0.7,12.8,0.7,19.8
		c0,0.9,0,1.8,0,2.7C332.4,177.8,327.6,178.2,327.6,180.9z"/>
</g>
<g>
	<path class="st10" d="M311.5,337.4L311.5,337.4L311.5,337.4L311.5,337.4z"/>
	<path class="st10" d="M298.5,335.9L298.5,335.9L298.5,335.9z"/>
</g>
<path class="st10" d="M214.9,191c10.6,1,18.4,3.6,18.4,8.4s-8.2,5.9-18.4,5.9s-18.4-1.2-18.4-5.9S198.5,189.5,214.9,191z"/>
<ellipse class="st11" cx="214.8" cy="198.1" rx="8.3" ry="7.3"/>
<ellipse class="st12" cx="214.8" cy="198.1" rx="4.7" ry="4.1"/>
<path class="st10" d="M299.3,199.4c0,4.7-8.2,5.9-18.4,5.9c-10.2,0-18.4-1.1-18.4-5.9s7.8-7.4,18.4-8.4
	C297.3,189.5,299.3,194.7,299.3,199.4z"/>
<ellipse class="st11" cx="281" cy="198.1" rx="8.3" ry="7.3"/>
<ellipse class="st12" cx="281" cy="198.1" rx="4.7" ry="4.1"/>
<ellipse class="st10" cx="277" cy="195.1" rx="1.8" ry="1.6"/>
<path class="st5" d="M217.1,169.8c0,0-42.6,36.3-24.9,27.2c12.1-14,44.8-0.4,44.9,1.9L217.1,169.8z"/>
<path class="st5" d="M306.2,194.2c1.1-5.4-22.3-13.7-42.6,2.3c-12.7,3.4-6.1-5.2,6.8-9.9c6.7-2.4,30.9-3.2,30.9-3.2L306.2,194.2z"/>
<g>
	<g>
		<path class="st6" d="M258.8,187.1c0.5-2.3,1.9-4.2,3.4-5.9c0.8-0.8,1.6-1.6,2.7-2.3c1.1-0.7,1.9-1.3,3.1-1.8
			c1.2-0.5,2.2-0.9,3.4-1.2c1.2-0.3,2.5-0.5,3.8-0.6c1.3-0.1,2.5-0.1,3.8,0c1.3,0.1,2.5,0.1,3.8,0.3c1.3,0.1,2.5,0.3,3.6,0.6
			c1.2,0.3,2.4,0.4,3.6,0.8c1.1,0.4,2.2,0.8,3.3,1.2c1.1,0.5,2,0.9,3.1,1.4c2.1,0.9,3.8,2.1,5.4,3.2c1.6,1.1,3.1,2.4,4.4,3.6
			c-0.2,0-0.3,0.1-0.5,0.1c-0.8-0.5-1.7-1-2.6-1.5c-0.9-0.5-1.7-1-2.7-1.4c-1.9-0.9-3.7-1.7-5.8-2.2c-1.1-0.3-2-0.6-3-0.8
			c-1-0.2-2.1-0.4-3.1-0.5c-1-0.2-2.1-0.2-3.1-0.3c-1.1,0-2.1-0.1-3.1,0c-1.1,0-2,0.2-3,0.4c-1,0.2-1.9,0.5-2.9,0.7
			c-0.9,0.2-1.9,0.6-2.8,0.9c-0.9,0.3-1.9,0.6-2.8,0.9c-0.5,0.2-0.9,0.2-1.4,0.5c-0.5,0.2-0.9,0.4-1.4,0.6c-1,0.3-1.9,0.7-2.8,1.2
			c-1.9,0.9-3.8,1.8-5.8,3C259.2,187.7,259,187.4,258.8,187.1z"/>
	</g>
</g>
<g>
	<path class="st6" d="M235.2,185.3c-4.3-0.8-8.2-1.8-12-2.5c-1.9-0.3-3.6-0.8-5.5-1.2s-3.7-0.8-5.6-1c-1.8-0.2-3.8-0.3-5.7-0.3
		c-1.8,0-3.8,0.1-5.5,0.3c-3.7,0.4-7.1,1.2-10.4,2.1l-0.5-0.4c2.6-1.6,5.6-3,9.1-3.9c3.5-0.9,7.6-1.5,11.8-1.4c2.1,0,4.5,0,6.6,0.3
		c2.2,0.3,4.5,0.7,6.6,1.4c2.2,0.8,4.2,1.6,6.2,2.6c1.9,1,3.7,2.1,4.9,3.6L235.2,185.3z"/>
</g>
<g>
	<path class="st9" d="M240,238.6c1.4,0.3,2.9,0.6,4.3,0.8c1.4,0.1,2.9,0.3,4.3,0.3c1.4,0,2.9-0.1,4.3-0.2c1.4-0.2,2.9-0.5,4.3-0.8
		c-1.3,1.4-2.8,2-4.2,2.6s-2.9,0.7-4.4,0.7s-2.9-0.2-4.4-0.8C242.8,240.6,241.3,239.9,240,238.6z"/>
</g>
<g>
	<path class="st13" d="M182.2,228.7h46.1c9.4,0,10.5-27.4,18-31.1l-72.7,22.5C173.6,224.9,177.5,228.7,182.2,228.7z"/>
	<path class="st13" d="M247.4,197.3c0.2,0,0.4-0.1,0.6-0.1c9.1,0,9.8,31.5,19.7,31.5h46.1c4.8,0,8.6-3.9,8.6-8.6v-46L247.4,197.3z"
		/>
	<path class="st14" d="M247.4,197.3c-0.4,0.1-0.8,0.2-1.1,0.3L247.4,197.3z"/>
	<path class="st14" d="M322.4,174L322.4,174h0.2c0-4.4-3.4-8.1-7.7-8.6C319.2,165.9,322.6,169.6,322.4,174z"/>
	<path class="st15" d="M322.4,174c0.2-4.4-3.2-8.1-7.5-8.6c-0.3,0-0.6,0-0.9,0H182.2c-4.8,0-8.6,3.9-8.6,8.6v46.1l72.7-22.5
		c0.4-0.2,0.7-0.3,1.1-0.3L322.4,174L322.4,174z"/>
</g>
<path class="st16" d="M314,229.2h-46.1c-5.3,0-8-8.4-10.7-16.5c-2.4-7.4-4.9-15-9.1-15c-4.2,0-6.6,7.6-9,14.9
	c-2.6,8.2-5.3,16.6-10.8,16.6h-46.1c-5,0-9-4-9-9v-46.1c0-5,4-9,9-9h131.7c5,0,9,4,9,9v46.1C323,225.1,318.9,229.2,314,229.2z
	 M248.1,196.9c4.7,0,7.2,7.5,9.7,15.5c2.6,7.9,5.2,16,10,16h46.1c4.6,0,8.3-3.7,8.3-8.3V174c0-4.6-3.7-8.3-8.3-8.3H182.2
	c-4.6,0-8.3,3.7-8.3,8.3v46.1c0,4.6,3.7,8.3,8.3,8.3h46.1c4.9,0,7.5-8.2,10.1-16.1S243.4,196.9,248.1,196.9z"/>
<path class="st17" d="M314,165.4H182.2c-4.8,0-8.6,3.9-8.6,8.6v46.1c0,4.8,3.9,8.6,8.6,8.6h46.1c10.1,0,10.6-31.5,19.7-31.5
	s9.8,31.5,19.7,31.5h46.1c4.8,0,8.6-3.9,8.6-8.6V174C322.6,169.3,318.7,165.4,314,165.4z"/>
<ellipse class="st10" cx="211.5" cy="194.9" rx="1.8" ry="1.6"/>
</svg>
