<?xml version="1.0" encoding="utf-8"?>
<!-- Generator: Adobe Illustrator 25.2.0, SVG Export Plug-In . SVG Version: 6.00 Build 0)  -->
<svg version="1.1" id="Layer_1" xmlns="http://www.w3.org/2000/svg" xmlns:xlink="http://www.w3.org/1999/xlink" x="0px" y="0px"
	 viewBox="0 0 496.2 496.2" style="enable-background:new 0 0 496.2 496.2;" xml:space="preserve">
<style type="text/css">
	.st0{fill:#E5AA17;}
	.st1{fill:#E2A379;}
	.st2{fill:#9AE8F4;}
	.st3{fill:#D2FAFC;}
	.st4{fill:#3F3F3F;}
	.st5{fill:#5E5E5E;}
	.st6{fill:#828282;}
	.st7{fill:#69696B;}
	.st8{fill:#8D8D8E;}
	.st9{fill:#F4B382;}
	.st10{fill:#DD722A;}
	.st11{fill:#C15C17;}
	.st12{fill:#191919;}
	.st13{fill:#141414;}
	.st14{fill:#FFFFFF;}
	.st15{fill:#594226;}
	.st16{fill:#1E1E1E;}
	.st17{fill:#30302E;}
	.st18{fill:#D89364;}
</style>
<path class="st0" d="M496.2,248.1C496.2,111.1,385.1,0,248.1,0S0,111.1,0,248.1s111.1,248.1,248.1,248.1S496.2,385.1,496.2,248.1z"
	/>
<path class="st1" d="M248.1,496.2c70.2,0,133.6-29.2,178.7-76c-2.8-15.1-5.6-28.9-8.3-37.4c-8.5-27.3-81.2-49.3-170.8-49.3
	s-161.5,22-170,49.3c-2.6,8.5-5.5,22.2-8.3,37.4C114.5,467,177.9,496.2,248.1,496.2z"/>
<path class="st2" d="M418.5,382.8c-6.7-21.4-52.9-39.6-115.8-46.4l-54.6,91.5l-54.7-91.7c-63,6.8-109.1,25-115.8,46.5
	c-2.6,8.5-5.5,22.2-8.3,37.4c45.1,46.9,108.5,76,178.7,76s133.6-29.2,178.7-76C424.1,405,421.2,391.2,418.5,382.8z"/>
<rect x="140.3" y="433.6" class="st3" width="63" height="10.5"/>
<g>
	<path class="st4" d="M214.8,312c-34.9,8.6-59.8,30.2-59.8,55.4v85.3h5v-85.3c0-22.7,22.7-42.2,54.7-50.3
		C214.9,315.5,214.9,313.8,214.8,312z"/>
	<path class="st4" d="M281.4,312c0,1.8,0,3.5,0.1,5.1c32.1,8.1,54.7,27.6,54.7,50.3v15.7h5v-15.6C341.2,342.2,316.3,320.6,281.4,312
		z"/>
</g>
<circle class="st5" cx="157.6" cy="444" r="16.7"/>
<circle class="st6" cx="157.6" cy="444" r="14.6"/>
<circle class="st5" cx="157.6" cy="444" r="10.3"/>
<circle class="st6" cx="157.6" cy="444" r="7.4"/>
<g>
	<path class="st7" d="M349.4,459.3c-5.8,0-13.5-0.1-20.1-3.6c-8.3-4.4-12.6-13.1-12.6-25.7v-21.6h4V430c0,11.2,3.4,18.5,10.4,22.2
		c6,3.2,13.4,3.2,18.9,3.2h0.6v4H350C349.8,459.3,349.6,459.3,349.4,459.3z"/>
	<path class="st7" d="M354.9,457.3c0,2.3-1.9,4.2-4.2,4.2l0,0c-2.3,0-4.2-1.9-4.2-4.2l0,0c0-2.3,1.9-4.2,4.2-4.2l0,0
		C352.9,453,354.9,454.9,354.9,457.3L354.9,457.3z"/>
</g>
<g>
	<path class="st8" d="M327.8,459.2c-0.2,0-0.4,0-0.6,0h-0.6v-4h0.6c5.4,0,12.9,0,18.9-3.2c7-3.7,10.4-11,10.4-22.2v-21.6h4v21.6
		c0,12.7-4.2,21.3-12.6,25.7C341.3,459.1,333.6,459.2,327.8,459.2z"/>
	<path class="st8" d="M322.4,457.2c0,2.3,1.9,4.2,4.2,4.2l0,0c2.3,0,4.2-1.9,4.2-4.2l0,0c0-2.3-1.9-4.2-4.2-4.2l0,0
		C324.3,452.9,322.4,454.8,322.4,457.2L322.4,457.2z"/>
</g>
<path class="st4" d="M358.5,410.8c-1.4,0-2.5-1.1-2.5-2.5v-6.6c0-9.6-7.8-17.4-17.4-17.4s-17.4,7.8-17.4,17.4v6.6
	c0,1.4-1.1,2.5-2.5,2.5s-2.5-1.1-2.5-2.5v-6.6c0-12.3,10-22.4,22.4-22.4s22.4,10,22.4,22.4v6.6C361,409.6,359.9,410.8,358.5,410.8z"
	/>
<path class="st1" d="M287,282.1h-77.8c12.1,36.6,1,53.3,1,53.3H286C286,335.4,274.9,318.7,287,282.1z"/>
<path class="st9" d="M336.4,175.2c0-92.4-39.5-113.6-88.3-113.6c-48.7,0-88.3,21.2-88.3,113.6c0,31.3,6.2,55.8,15.5,74.7
	c20.4,41.6,55.7,56.1,72.8,56.1s52.4-14.5,72.8-56.1C330.2,231,336.4,206.5,336.4,175.2z"/>
<path class="st10" d="M272.8,261.2c0,2.4-11,8.8-24.7,8.8s-24.7-6.5-24.7-8.8c0-1.5,7.8-5.6,13.1-6.4c3.3-0.5,11.6,2.7,11.6,2.7
	s8.2-3.1,11.4-2.7C264.9,255.5,272.8,261.2,272.8,261.2z"/>
<path class="st11" d="M272.8,261.2c0,2.4-11,11.5-24.7,11.5s-24.7-9.1-24.7-11.5c0,0,10,1.2,24.7,1.2
	C262.8,262.4,272.8,261.2,272.8,261.2z"/>
<g>
	<path class="st12" d="M247.6,292.9h0.5C247.9,292.9,247.8,292.9,247.6,292.9L247.6,292.9z"/>
	<path class="st12" d="M248.6,292.9L248.6,292.9c-0.2,0-0.3,0-0.5,0H248.6z"/>
</g>
<g>
	<path class="st9" d="M170.4,238.7c-8.4,1.4-14.4,0.1-19.1-27.7s1.7-31.5,10.1-32.9L170.4,238.7z"/>
	<path class="st9" d="M325.9,238.7c8.4,1.4,14.3,0.1,19.1-27.7c4.8-27.8-1.7-31.5-10.1-32.9L325.9,238.7z"/>
</g>
<g>
	<path class="st13" d="M336.4,175.2c0-92.4-30.3-116.1-88.3-116.1s-88.3,23.7-88.3,116.1c0,0,16.3-34.1,28.3-53.1s38-18.3,38-18.3
		h49c0,0,27,0.3,34.5,18.3L336.4,175.2z"/>
	<path class="st13" d="M165.5,140.8c-4.2,10.9-5.6,24.4-5.6,37.5c0,0,8.8-1.9,8.8,2.6l2.8,27.6l3.9-1.9c-0.2-23,4.9-83.5,4.9-83.5
		L165.5,140.8z"/>
	<path class="st13" d="M330.8,140.8c4.2,10.9,5.6,24.4,5.6,37.5c0,0-8.8-1.9-8.8,2.6l-2.8,27.6l-3.9-1.9c0.2-23-4.9-81.7-4.9-81.7
		L330.8,140.8z"/>
</g>
<g>
	<path class="st14" d="M311.5,337.4L311.5,337.4L311.5,337.4L311.5,337.4z"/>
	<path class="st14" d="M298.5,335.9L298.5,335.9L298.5,335.9z"/>
</g>
<path class="st14" d="M214.4,188.2c10.6,1,18.4,3.6,18.4,8.4s-8.2,5.9-18.4,5.9s-18.4-1.2-18.4-5.9S198,186.7,214.4,188.2z"/>
<ellipse class="st15" cx="214.3" cy="195.3" rx="8.3" ry="7.3"/>
<ellipse class="st16" cx="214.3" cy="195.3" rx="4.7" ry="4.1"/>
<ellipse class="st14" cx="210.3" cy="192.3" rx="1.8" ry="1.6"/>
<path class="st14" d="M298.8,196.6c0,4.7-8.2,5.9-18.4,5.9c-10.2,0-18.4-1.1-18.4-5.9s7.8-7.4,18.4-8.4
	C296.8,186.7,298.8,191.9,298.8,196.6z"/>
<ellipse class="st15" cx="280.5" cy="195.3" rx="8.3" ry="7.3"/>
<ellipse class="st16" cx="280.5" cy="195.3" rx="4.7" ry="4.1"/>
<ellipse class="st14" cx="276.5" cy="192.3" rx="1.8" ry="1.6"/>
<path class="st9" d="M193.5,192c0.1-2.3,17.8-8.2,37.8,1.5c17.9,8.7-25.8-16.4-25.8-16.4L193.5,192z"/>
<path class="st9" d="M302.5,193.9c0-2.3-18.8-10-39.2-1.3c-12.1,5.1-9.1-0.6,3-7c6.3-3.3,30.2-7.3,30.2-7.3L302.5,193.9z"/>
<g>
	<path class="st17" d="M264.5,180.7c1.5-1.2,3.4-2,5.3-2.7c1-0.3,1.9-0.6,3-0.8s2-0.4,3.1-0.5c1.1-0.1,2.1-0.2,3.2-0.2
		c1.1,0,2.2,0.1,3.3,0.2l3.2,0.5c1.1,0.2,2.1,0.4,3.2,0.6c1.1,0.2,2.1,0.4,3.1,0.7c1,0.3,2.1,0.4,3.1,0.8l2.9,1
		c1,0.4,1.8,0.8,2.8,1.2c1.9,0.7,3.6,1.7,5.2,2.6c1.6,0.9,3.2,2.1,4.7,3.1l-0.4,0.4l-2.7-1.1c-0.9-0.4-1.7-0.8-2.7-1
		c-1.9-0.6-3.6-1.3-5.6-1.6c-1-0.2-1.9-0.5-2.8-0.7l-2.9-0.5c-0.9-0.2-1.9-0.3-2.9-0.4c-1-0.1-1.9-0.3-2.9-0.3
		c-1-0.1-1.9-0.1-2.8-0.1l-2.8,0.1c-0.9,0-1.9,0.1-2.8,0.1s-1.9,0-2.8-0.1c-0.5,0-0.9-0.1-1.4,0c-0.5,0-0.9,0-1.4,0
		c-1-0.1-1.9-0.1-2.9-0.1c-2-0.1-4-0.2-6.2-0.4L264.5,180.7z"/>
</g>
<g>
	<path class="st17" d="M233,179.8c-4.4-0.1-8.4-0.4-12.2-0.5c-1.9,0-3.7-0.2-5.6-0.3c-1.9-0.1-3.8-0.2-5.7-0.1
		c-1.8,0.1-3.8,0.3-5.7,0.6c-1.8,0.3-3.7,0.7-5.4,1.2c-3.6,1-6.8,2.3-9.9,3.8l-0.6-0.3c2.3-2,5-3.9,8.4-5.3
		c3.3-1.5,7.3-2.7,11.4-3.3c2.1-0.3,4.4-0.7,6.6-0.8c2.2-0.1,4.6,0,6.7,0.3c2.3,0.4,4.4,0.9,6.5,1.6c2,0.7,4,1.5,5.4,2.8L233,179.8z
		"/>
</g>
<g>
	<path class="st18" d="M239.5,240.8c1.4,0.3,2.9,0.6,4.3,0.8c1.4,0.1,2.9,0.3,4.3,0.3c1.4,0,2.9-0.1,4.3-0.2
		c1.4-0.2,2.9-0.5,4.3-0.8c-1.3,1.4-2.8,2-4.2,2.6c-1.4,0.6-2.9,0.7-4.4,0.7c-1.5,0-2.9-0.2-4.4-0.8
		C242.3,242.8,240.8,242.1,239.5,240.8z"/>
</g>
</svg>
