<?xml version="1.0" encoding="utf-8"?>
<!-- Generator: Adobe Illustrator 25.2.0, SVG Export Plug-In . SVG Version: 6.00 Build 0)  -->
<svg version="1.1" id="Layer_1" xmlns="http://www.w3.org/2000/svg" xmlns:xlink="http://www.w3.org/1999/xlink" x="0px" y="0px"
	 viewBox="0 0 496.2 496.2" style="enable-background:new 0 0 496.2 496.2;" xml:space="preserve">
<style type="text/css">
	.st0{fill:#337180;}
	.st1{fill:#E2A379;}
	.st2{fill:#9AE8F4;}
	.st3{fill:#7AC6CE;}
	.st4{fill:#019897;}
	.st5{fill:#F4B382;}
	.st6{fill:#3A1D12;}
	.st7{fill:#30302E;}
	.st8{fill:#FFFFFF;}
	.st9{fill:#738FA0;}
	.st10{fill:#3D3D3D;}
	.st11{fill:#E4F0F2;}
</style>
<path class="st0" d="M496.2,248.1C496.2,111.1,385.1,0,248.1,0S0,111.1,0,248.1s111.1,248.1,248.1,248.1S496.2,385.1,496.2,248.1z"
	/>
<path class="st1" d="M287,282.1h-77.8c12.1,36.6,1,53.3,1,53.3l26.9,6.1h22l26.9-6.1C286,335.4,274.9,318.7,287,282.1z"/>
<path class="st2" d="M248.1,496.2c70.2,0,133.6-29.2,178.7-76c-2.8-15.1-5.6-28.9-8.3-37.4c-8.5-27.3-81.2-49.3-170.8-49.3
	s-161.5,22-170,49.3c-2.6,8.5-5.5,22.2-8.3,37.4C114.5,467,177.9,496.2,248.1,496.2z"/>
<rect x="140.3" y="433.6" class="st3" width="63" height="10.5"/>
<path class="st1" d="M210.2,335.4c0,0-14.8,28.4,37.6,28.4s38.2-28.4,38.2-28.4L247.8,317L210.2,335.4z"/>
<g>
	<polygon class="st4" points="305.8,337.8 287.9,322.3 248.1,363.9 284.7,374.1 	"/>
	<polygon class="st4" points="190.4,337.8 208.3,322.3 248.1,363.9 211.5,374.1 	"/>
</g>
<path class="st5" d="M336.4,175.2c0-92.4-39.5-113.6-88.3-113.6c-48.7,0-88.3,21.2-88.3,113.6c0,31.3,6.2,55.8,15.5,74.7
	c20.4,41.6,55.7,56.1,72.8,56.1s52.4-14.5,72.8-56.1C330.2,231,336.4,206.5,336.4,175.2z"/>
<g>
	<path class="st6" d="M336.4,175.2c0-92.4-30.3-116.1-88.3-116.1s-88.3,23.7-88.3,116.1l39.8-53.1c0,0,26.5,20,48.5,20
		s46.2-20,46.2-20L336.4,175.2z"/>
	<path class="st6" d="M165.5,140.8c-4.2,10.9-5.6,24.4-5.6,37.5c0,0,8.8-1.9,8.8,2.6l2.8,27.6l3.9-1.9c-0.2-23,4.9-68,4.9-68
		L165.5,140.8z"/>
	<path class="st6" d="M330.8,140.8c4.2,10.9,5.6,24.4,5.6,37.5c0,0-8.8-1.9-8.8,2.6l-2.8,27.6l-3.9-1.9c0.2-23-4.9-66.2-4.9-66.2
		L330.8,140.8z"/>
	<polygon class="st6" points="225.4,135.3 225.4,165.3 276.4,133.8 	"/>
	<polygon class="st6" points="209.9,126.8 209.9,156.8 260.9,125.3 	"/>
	<polygon class="st6" points="194.4,120.3 194.4,150.3 245.4,118.8 	"/>
</g>
<g>
	<path class="st5" d="M170.4,238.7c-8.4,1.4-14.4,0.1-19.1-27.7s1.7-31.5,10.1-32.9L170.4,238.7z"/>
	<path class="st5" d="M325.9,238.7c8.4,1.4,14.3,0.1,19.1-27.7c4.8-27.8-1.7-31.5-10.1-32.9L325.9,238.7z"/>
</g>
<path class="st4" d="M338.5,411.1c-5.6-3.1-10.4,1.8-14.4,1.8c-4.9,0-8.8-5-14.4-1.8c-5.7,3.2-11.6,8.2-2.1,22
	c0,0,0.8,27.1,6.3,32.6c0,0,3,0.4,3-6.8c0,0-2.4-19.3,7.2-19.9c9.6,0.5,7.2,19.9,7.2,19.9c0,7.2,3,6.8,3,6.8
	c5.5-5.5,6.3-32.6,6.3-32.6C350.2,419.4,344.3,414.3,338.5,411.1z"/>
<g>
	<path class="st7" d="M264.2,181.1c1.4-1.3,3.2-2.3,5.1-3.1c1-0.4,1.9-0.7,2.9-1s2-0.6,3.1-0.7c1.1-0.1,2.1-0.4,3.2-0.4
		c1.1-0.1,2.2-0.1,3.3,0l3.2,0.3c1.1,0.1,2.1,0.3,3.2,0.4c1.1,0.1,2.1,0.3,3.1,0.5s2.1,0.3,3.1,0.6l3,0.8c1,0.3,1.9,0.7,2.9,1
		c1.9,0.6,3.7,1.5,5.4,2.3c1.7,0.8,3.3,1.8,4.9,2.7l-0.4,0.4l-2.8-0.9c-0.9-0.3-1.8-0.7-2.8-0.8c-1.9-0.4-3.7-1-5.7-1.2
		c-1-0.1-1.9-0.4-2.8-0.5l-2.9-0.3c-0.9-0.1-1.9-0.1-2.9-0.2c-1-0.1-1.9-0.1-2.9-0.1c-1,0-1.9,0-2.8,0.1l-2.8,0.3
		c-0.9,0.1-1.9,0.2-2.8,0.3s-1.9,0.1-2.8,0.1c-0.5,0-0.9,0-1.4,0.1c-0.5,0-0.9,0.1-1.4,0.1c-1,0-1.9,0.1-2.9,0.1
		c-2,0.1-4,0.1-6.2,0.1L264.2,181.1z"/>
</g>
<g>
	<path class="st7" d="M232.6,179.2c-4.4-0.5-8.3-1.1-12.1-1.4c-1.9-0.2-3.7-0.5-5.6-0.7c-1.9-0.2-3.8-0.5-5.7-0.6
		c-1.8,0-3.9,0-5.7,0.2c-1.9,0.2-3.7,0.4-5.5,0.8c-3.7,0.7-7,1.8-10.1,3.1l-0.6-0.3c2.4-1.9,5.3-3.5,8.8-4.7
		c3.4-1.3,7.4-2.1,11.6-2.4c2.2-0.1,4.4-0.3,6.6-0.3c2.2,0.1,4.6,0.3,6.7,0.8c2.2,0.5,4.4,1.2,6.3,2.1c2,0.9,3.9,1.8,5.2,3.2
		L232.6,179.2z"/>
</g>
<path class="st8" d="M214.1,187.9c10.6,1,18.4,3.6,18.4,8.4s-8.2,5.9-18.4,5.9s-18.4-1.2-18.4-5.9S197.7,186.4,214.1,187.9z"/>
<ellipse class="st9" cx="214" cy="195" rx="8.3" ry="7.3"/>
<ellipse class="st10" cx="214" cy="195" rx="4.7" ry="4.1"/>
<ellipse class="st8" cx="210" cy="192" rx="1.8" ry="1.6"/>
<path class="st8" d="M298.5,196.3c0,4.7-8.2,5.9-18.4,5.9c-10.2,0-18.4-1.1-18.4-5.9s7.8-7.4,18.4-8.4
	C296.5,186.4,298.5,191.6,298.5,196.3z"/>
<ellipse class="st9" cx="280.2" cy="195" rx="8.3" ry="7.3"/>
<ellipse class="st10" cx="280.2" cy="195" rx="4.7" ry="4.1"/>
<ellipse class="st8" cx="276.2" cy="192" rx="1.8" ry="1.6"/>
<path class="st5" d="M194.3,193.9c-0.3-2.3,16.1-8.6,37.5-2.6c19.2,5.4-24.2-10.6-24.2-10.6L194.3,193.9z"/>
<path class="st5" d="M301.4,194.6c0.3-2.3-16.1-8.6-37.5-2.6c-19.2,5.4,24.2-10.6,24.2-10.6L301.4,194.6z"/>
<g>
	<path class="st11" d="M311.3,209.8c-0.3,0-0.6-0.1-0.8-0.2c-1-0.5-1.4-1.7-1-2.7l15-32.3c0.5-1,1.7-1.4,2.7-1c1,0.5,1.4,1.7,1,2.7
		l-15,32.3C312.8,209.3,312.1,209.8,311.3,209.8z"/>
	<path class="st11" d="M184.9,209.8c-0.8,0-1.5-0.4-1.8-1.2l-15-32.3c-0.5-1,0-2.2,1-2.7s2.2,0,2.7,1l15,32.3c0.5,1,0,2.2-1,2.7
		C185.4,209.7,185.1,209.8,184.9,209.8z"/>
	<path class="st11" d="M320.9,252.2l-5.8-44.5l-67-10.3l-67,10.2l-5.8,42.3v2.2c20.4,41.6,55.7,56.1,72.8,56.1
		S300.5,293.8,320.9,252.2L320.9,252.2z"/>
</g>
</svg>
