<?xml version="1.0" encoding="utf-8"?>
<!-- Generator: Adobe Illustrator 25.2.0, SVG Export Plug-In . SVG Version: 6.00 Build 0)  -->
<svg version="1.1" id="Layer_1" xmlns="http://www.w3.org/2000/svg" xmlns:xlink="http://www.w3.org/1999/xlink" x="0px" y="0px"
	 viewBox="0 0 496.2 496.2" style="enable-background:new 0 0 496.2 496.2;" xml:space="preserve">
<style type="text/css">
	.st0{fill:#32BEA6;}
	.st1{fill:#E2A379;}
	.st2{fill:#C68F14;}
	.st3{fill:#F4B382;}
	.st4{fill:#47200D;}
	.st5{fill:#CC785E;}
	.st6{fill:#C16952;}
	.st7{fill:#D3C624;}
	.st8{fill:#D6D6D6;}
	.st9{fill:#D61E1E;}
	.st10{fill:#E6E7E8;}
	.st11{fill:#5B5243;}
	.st12{fill:#C18C16;}
	.st13{fill:#30302E;}
	.st14{fill:#FFFFFF;}
	.st15{fill:#738FA0;}
	.st16{fill:#3D3D3D;}
	.st17{fill:#D89364;}
</style>
<path class="st0" d="M496.2,248.1C496.2,111.1,385.1,0,248.1,0S0,111.1,0,248.1s111.1,248.1,248.1,248.1S496.2,385.1,496.2,248.1z"
	/>
<g>
	<path class="st1" d="M287,282.1h-77.8c12.1,36.6,1,53.3,1,53.3l26.9,6.1h22l26.9-6.1C286,335.4,274.9,318.7,287,282.1z"/>
	<path class="st1" d="M248.2,390.1c44.9,0,37.8-54.7,37.8-54.7s-8.9,17.3-38.1,17.3s-37.5-17.3-37.5-17.3S203.3,390.1,248.2,390.1z"
		/>
	<path class="st1" d="M287,282.1h-77.8c12.1,36.6,1,53.3,1,53.3H286C286,335.4,274.9,318.7,287,282.1z"/>
</g>
<polygon class="st2" points="324.6,351.2 171.6,351.2 187.1,282.1 309.1,282.1 "/>
<g>
	<path class="st3" d="M327.9,175.2c0-92.4-35.7-113.6-79.8-113.6c-44,0-79.8,21.2-79.8,113.6c0,31.3,5.6,55.8,14,74.7
		c18.4,41.6,50.3,56.1,65.8,56.1c15.4,0,47.3-14.5,65.8-56.1C322.3,231,327.9,206.5,327.9,175.2z"/>
	<path class="st3" d="M160.7,207.7c4.3,25.2,9.6,26.3,17.3,25l-8.1-54.8C162.2,179.3,156.4,182.6,160.7,207.7z"/>
	<path class="st3" d="M326.5,178l-8.1,54.8c7.6,1.3,13,0.1,17.3-25C339.9,182.6,334.1,179.3,326.5,178z"/>
</g>
<g>
	<path class="st4" d="M288.7,71.1C272.5,54,237,58.7,237,58.7l0,0l0,0l0,0c-49.9,6.8-95.9,53.4-62.2,143.7c0,0-1.5-57.7,33.1-73.1
		s92.1-11.7,89.6-29.4C297.4,99,299,82.1,288.7,71.1z"/>
	<path class="st4" d="M269.8,60.1c10.6-4.9,35.7,7.6,48.3,26.3s30.7,58.7,6.8,114.7c0,0-30.2-87.3-63.1-124.6
		C262,76,263,63.3,269.8,60.1z"/>
</g>
<path class="st5" d="M274.8,263.8c0,0-14.2,9.6-26.7,9.6s-26.7-9.6-26.7-9.6c0-1.4,11.3-5.3,16.1-6c3-0.5,10.6,2.5,10.6,2.5
	s7.5-2.9,10.4-2.5C263.4,258.5,274.8,263.8,274.8,263.8z"/>
<path class="st6" d="M274.8,263.8c0,0-14.2,13.5-26.7,13.5s-26.7-13.5-26.7-13.5s6.5,1.5,19.6,0.7c2.2-0.1,5.1,1.6,7,1.6
	c1.7,0,4.2-1.8,6.1-1.7C267.9,265.2,274.8,263.8,274.8,263.8z"/>
<path class="st7" d="M394.8,382.8c-4.6-17-30.7-32-68.4-40.9c0.8-6.1,1.6-15.7,1.6-29.8c0-20.3-19-30-19-30s-34,15.5-61,15.5
	s-60.9-15.5-60.9-15.5s-19,9.7-19,30c0,13.8,0.8,23.4,1.7,29.7c-37.8,8.8-63.8,23.9-68.4,41c-3.3,12.2-7,35.2-10.1,57.5
	c42.7,34.9,97.4,55.9,156.9,55.9s114.1-21,156.9-55.9C401.8,417.9,398.1,394.9,394.8,382.8z"/>
<path class="st8" d="M356.6,445.7v-94.4c-8-3.2-17.1-6.1-27-8.6v103h-163V342.5c-9.9,2.5-19,5.4-27,8.6v94.5H98.1
	c12.9,9.8,26.8,18.4,41.5,25.6c1,0.5,2,1,3,1.4c7.8,3.7,15.8,6.9,24,9.8v-9.8h163v9.8c8.2-2.9,16.2-6.1,24-9.8c1-0.5,2-0.9,3-1.4
	c14.7-7.2,28.6-15.8,41.5-25.6h-41.5V445.7z"/>
<circle class="st9" cx="298.6" cy="415.2" r="23.3"/>
<g>
	<rect x="282.6" y="410.9" class="st10" width="32.1" height="8.5"/>
	<rect x="294.4" y="399.2" class="st10" width="8.5" height="32.1"/>
</g>
<g>
	<circle class="st11" cx="248.1" cy="319" r="6.1"/>
	<circle class="st11" cx="248.1" cy="373.3" r="6.1"/>
	<circle class="st11" cx="248.1" cy="427.5" r="6.1"/>
	<circle class="st11" cx="248.1" cy="481.8" r="6.1"/>
</g>
<path class="st12" d="M236.6,296.8v54.4v144.7c1,0,2,0.1,3,0.1V351.2v-54L236.6,296.8z"/>
<g>
	<path class="st13" d="M264.5,183.4c1.4-1.3,3.2-2.3,5.1-3.1c1-0.4,1.9-0.7,2.9-1c1-0.3,2-0.6,3.1-0.7c1.1-0.1,2.1-0.4,3.2-0.4
		c1.1-0.1,2.2-0.1,3.3,0l3.2,0.3c1.1,0.1,2.1,0.3,3.2,0.4c1.1,0.1,2.1,0.3,3.1,0.5s2.1,0.3,3.1,0.6l3,0.8c1,0.3,1.9,0.7,2.9,1
		c1.9,0.6,3.7,1.5,5.4,2.3c1.7,0.8,3.3,1.8,4.9,2.7l-0.4,0.4l-2.8-0.9c-0.9-0.3-1.8-0.7-2.8-0.8c-1.9-0.4-3.7-1-5.7-1.2
		c-1-0.1-1.9-0.4-2.8-0.5l-2.9-0.3c-0.9-0.1-1.9-0.1-2.9-0.2c-1-0.1-1.9-0.1-2.9-0.1c-1,0-1.9,0-2.8,0.1l-2.8,0.3
		c-0.9,0.1-1.9,0.2-2.8,0.3c-0.9,0.1-1.9,0.1-2.8,0.1c-0.5,0-0.9,0-1.4,0.1c-0.5,0-0.9,0.1-1.4,0.1c-1,0-1.9,0.1-2.9,0.1
		c-2,0.1-4,0.1-6.2,0.1L264.5,183.4z"/>
</g>
<g>
	<path class="st13" d="M232.9,181.5c-4.4-0.5-8.3-1.1-12.1-1.4c-1.9-0.2-3.7-0.5-5.6-0.7c-1.9-0.2-3.8-0.5-5.7-0.6
		c-1.8,0-3.9,0-5.7,0.2c-1.9,0.2-3.7,0.4-5.5,0.8c-3.7,0.7-7,1.8-10.1,3.1l-0.6-0.3c2.4-1.9,5.3-3.5,8.8-4.7
		c3.4-1.3,7.4-2.1,11.6-2.4c2.2-0.1,4.4-0.3,6.6-0.3c2.2,0.1,4.6,0.3,6.7,0.8c2.2,0.5,4.4,1.2,6.3,2.1c2,0.9,3.9,1.8,5.2,3.2
		L232.9,181.5z"/>
</g>
<path class="st14" d="M214.4,190.2c10.6,1,18.4,3.6,18.4,8.4s-8.2,5.9-18.4,5.9s-18.4-1.2-18.4-5.9S198,188.7,214.4,190.2z"/>
<ellipse class="st15" cx="214.3" cy="197.3" rx="8.3" ry="7.3"/>
<ellipse class="st16" cx="214.3" cy="197.3" rx="4.7" ry="4.1"/>
<ellipse class="st14" cx="210.3" cy="194.3" rx="1.8" ry="1.6"/>
<path class="st14" d="M298.8,198.6c0,4.7-8.2,5.9-18.4,5.9c-10.2,0-18.4-1.1-18.4-5.9s7.8-7.4,18.4-8.4
	C296.8,188.7,298.8,193.9,298.8,198.6z"/>
<ellipse class="st15" cx="280.5" cy="197.3" rx="8.3" ry="7.3"/>
<ellipse class="st16" cx="280.5" cy="197.3" rx="4.7" ry="4.1"/>
<ellipse class="st14" cx="276.5" cy="194.3" rx="1.8" ry="1.6"/>
<g>
	<path class="st17" d="M239.5,240.8c1.4,0.3,2.9,0.6,4.3,0.8c1.4,0.1,2.9,0.3,4.3,0.3c1.4,0,2.9-0.1,4.3-0.2
		c1.4-0.2,2.9-0.5,4.3-0.8c-1.3,1.4-2.8,2-4.2,2.6c-1.4,0.6-2.9,0.7-4.4,0.7c-1.5,0-2.9-0.2-4.4-0.8
		C242.3,242.8,240.8,242.1,239.5,240.8z"/>
</g>
<path class="st3" d="M194.6,196.3c-0.3-2.3,16.1-8.6,37.5-2.6c19.2,5.4-24.2-10.6-24.2-10.6L194.6,196.3z"/>
<path class="st3" d="M301.7,196.9c0.3-2.3-16.1-8.6-37.5-2.6c-19.2,5.4,24.2-10.6,24.2-10.6L301.7,196.9z"/>
</svg>
