<?xml version="1.0" encoding="utf-8"?>
<!-- Generator: Adobe Illustrator 25.2.1, SVG Export Plug-In . SVG Version: 6.00 Build 0)  -->
<svg version="1.1" id="Layer_1" xmlns="http://www.w3.org/2000/svg" xmlns:xlink="http://www.w3.org/1999/xlink" x="0px" y="0px"
	 viewBox="0 0 496.2 496.2" style="enable-background:new 0 0 496.2 496.2;" xml:space="preserve">
<style type="text/css">
	.st0{fill:#32BEA6;}
	.st1{fill:#E2A379;}
	.st2{fill:#DEE0E2;}
	.st3{fill:#823D0F;}
	.st4{fill:#F3FAFF;}
	.st5{fill:#F4B382;}
	.st6{fill:#E6E7E8;}
	.st7{fill:#CC785E;}
	.st8{fill:#C16952;}
	.st9{fill:#FFFFFF;}
	.st10{fill:#678683;}
	.st11{fill:#1E1E1E;}
	.st12{fill:#47200D;}
	.st13{fill:#D89364;}
	.st14{fill:#261D17;}
	.st15{opacity:0.72;}
	.st16{fill:#E8D3BB;}
</style>
<path class="st0" d="M496.2,248.1C496.2,111.1,385.1,0,248.1,0S0,111.1,0,248.1s111.1,248.1,248.1,248.1S496.2,385.1,496.2,248.1z"
	/>
<g>
	<path class="st1" d="M287,282.1h-77.8c12.1,36.6,1,53.3,1,53.3l26.9,6.1h22l26.9-6.1C286,335.4,274.9,318.7,287,282.1z"/>
	<path class="st1" d="M248.2,390.1c44.9,0,37.8-54.7,37.8-54.7s-8.9,17.3-38.1,17.3s-37.5-17.3-37.5-17.3S203.3,390.1,248.2,390.1z"
		/>
	<path class="st1" d="M247.8,333.4c-77.2,0-139.1,22.1-146.4,49.3c-3.3,12.2-7,35.2-10.1,57.5c42.7,34.9,97.4,55.9,156.9,55.9
		s114.1-21,156.9-55.9c-3.2-22.3-6.9-45.4-10.1-57.5C387.5,355.5,324.9,333.4,247.8,333.4z"/>
</g>
<rect x="205.1" y="324.9" class="st2" width="86" height="25"/>
<path class="st3" d="M247.8,333.4c-77.2,0-139.1,22.1-146.4,49.3c-3.3,12.2-7,35.2-10.1,57.5c42.7,34.9,97.4,55.9,156.9,55.9
	s114.1-21,156.9-55.9c-3.2-22.3-6.9-45.4-10.1-57.5C387.5,355.5,324.9,333.4,247.8,333.4z"/>
<g>
	<path class="st4" d="M293.9,336.2c-14.5-1.8-30-2.7-46.1-2.7c-15.9,0-31.2,0.9-45.5,2.7l45.8,91L293.9,336.2z"/>
	<path class="st4" d="M168.1,357.2l37-32.3l32,63.9c0,0-25.2,7.1-25.5,6.8L168.1,357.2z"/>
	<path class="st4" d="M328.1,357.2l-37-32.3l-32,63.9c0,0,25.2,7.1,25.5,6.8L328.1,357.2z"/>
</g>
<path class="st1" d="M248.1,412.1l-37.8-76.8c0,0,9.2-12.4,37.4-12.4s38.1,12.5,38.1,12.5L248.1,412.1z"/>
<g>
	<path class="st4" d="M394.8,382.8c-4.2-15.6-26.4-29.5-59.1-38.5L355,472.1c18-8.6,34.7-19.3,50-31.7
		C401.8,417.9,398.1,394.9,394.8,382.8z"/>
	<path class="st4" d="M101.4,382.8c-3.3,12.2-7,35.2-10.1,57.5c15,12.3,31.5,22.8,49.1,31.3l19.2-127.2
		C127.3,353.4,105.5,367.2,101.4,382.8z"/>
</g>
<path class="st1" d="M287,282.1h-77.8c12.1,36.6,1,53.3,1,53.3s16.4,6.1,37.9,6.1s37.9-6.1,37.9-6.1S274.9,318.7,287,282.1z"/>
<path class="st5" d="M327.9,175.2c0-92.4-35.7-113.6-79.8-113.6c-44,0-79.8,21.2-79.8,113.6c0,31.3,5.6,55.8,14,74.7
	c18.4,41.6,50.3,56.1,65.8,56.1s47.3-14.5,65.8-56.1C322.3,231,327.9,206.5,327.9,175.2z"/>
<g>
	<path class="st6" d="M288.7,71.1C272.5,54,237,58.7,237,58.7l0,0l0,0l0,0c-68.8,0-75.9,73.9-75.9,73.9l-1.3,20.5
		c0,14.2,7.6,31.8,15,49.3c0,0-1.5-57.7,33.1-73.1s92.1-11.7,89.6-29.4C297.4,99,299,82.1,288.7,71.1z"/>
	<path class="st6" d="M269.8,60.1c10.6-4.9,35.7,7.6,48.3,26.3c6.7,9.9,14.5,25,17.1,46.2c0,0,0.3,42.3-10.2,68.5
		c0,0-30.2-87.3-63.1-124.6C262,76,263,63.3,269.8,60.1z"/>
	
		<ellipse transform="matrix(0.1735 -0.9848 0.9848 0.1735 134.1459 303.8449)" class="st6" cx="248.1" cy="72" rx="30.7" ry="30.7"/>
</g>
<g>
	<path class="st5" d="M160.7,207.7c4.3,25.2,9.6,26.3,17.3,25l-8.1-54.8C162.2,179.3,156.4,182.6,160.7,207.7z"/>
	<path class="st5" d="M326.5,178l-8.1,54.8c7.6,1.3,13,0.1,17.3-25C339.9,182.6,334.1,179.3,326.5,178z"/>
</g>
<path class="st7" d="M274.8,263.8c0,0-14.2,9.6-26.7,9.6s-26.7-9.6-26.7-9.6c0-1.4,11.3-5.3,16.1-6c3-0.5,10.6,2.5,10.6,2.5
	s7.5-2.9,10.4-2.5C263.4,258.5,274.8,263.8,274.8,263.8z"/>
<path class="st8" d="M274.8,263.8c0,0-14.2,13.5-26.7,13.5s-26.7-13.5-26.7-13.5s6.5,1.5,19.6,0.7c2.2-0.1,5.1,1.6,7,1.6
	c1.7,0,4.2-1.8,6.1-1.7C267.9,265.2,274.8,263.8,274.8,263.8z"/>
<path class="st9" d="M212.9,192c10.6,1,18.4,3.6,18.4,8.4s-8.2,5.9-18.4,5.9s-18.4-1.2-18.4-5.9S196.5,190.5,212.9,192z"/>
<ellipse class="st10" cx="212.8" cy="199.1" rx="8.3" ry="7.3"/>
<ellipse class="st11" cx="212.8" cy="199.1" rx="4.7" ry="4.1"/>
<path class="st9" d="M297.3,200.4c0,4.7-8.2,5.9-18.4,5.9c-10.2,0-18.4-1.1-18.4-5.9s7.8-7.4,18.4-8.4
	C295.3,190.5,297.3,195.7,297.3,200.4z"/>
<ellipse class="st10" cx="279" cy="199.1" rx="8.3" ry="7.3"/>
<ellipse class="st11" cx="279" cy="199.1" rx="4.7" ry="4.1"/>
<ellipse class="st9" cx="275" cy="196.1" rx="1.8" ry="1.6"/>
<ellipse class="st9" cx="210" cy="196.1" rx="1.8" ry="1.6"/>
<path class="st5" d="M215.6,181.1c0,0-43.2,25.9-25.5,16.9c19.8-10.1,37.6-4.5,37.8-2.2L215.6,181.1z"/>
<path class="st5" d="M303.2,200.7c0.3-2.3-17.3-12.4-38.7-6.5c-12.7,3.4-8.9-1.8,3.9-6.5c6.7-2.4,30.9-3.2,30.9-3.2L303.2,200.7z"/>
<g>
	<path class="st12" d="M233.9,188.1c-4.4-1.6-8.5-3-12.5-3.7c-2-0.3-3.9-0.7-5.9-1c-2-0.2-4.1-0.4-6.1-0.2c-1.9,0.1-4.1,0.4-6.1,0.8
		c-1.9,0.4-3.9,0.9-5.7,1.5c-3.7,1.1-6.9,2.4-10,3.5c-0.2,0-0.4,0-0.6,0c2.2-1.2,4.8-2.7,8.3-4.3c3.4-1.6,7.7-3.4,12.3-4.5
		c2.3-0.5,5-1.2,7.5-1.4c2.5-0.2,5.2-0.1,7.5,0.4c2.5,0.6,4.7,1.6,6.8,2.9c2,1.4,3.8,3.1,4.6,5.5C234,187.8,234,187.9,233.9,188.1z"
		/>
</g>
<g>
	<path class="st12" d="M260.1,187.6c0.8-2.4,2.7-4.1,4.6-5.5c2.1-1.4,4.3-2.3,6.8-2.9c2.3-0.5,5-0.6,7.5-0.4
		c2.5,0.2,5.1,0.9,7.5,1.4c4.6,1.1,8.9,2.9,12.3,4.5c3.5,1.6,6.1,3.1,8.3,4.3c-0.2,0-0.4,0-0.6,0c-3-1.1-6.2-2.3-10-3.5
		c-1.8-0.6-3.8-1.1-5.7-1.5c-2-0.4-4.2-0.7-6.1-0.8c-2.1-0.1-4.1,0-6.1,0.2c-2,0.2-3.9,0.7-5.9,1c-4,0.7-8.1,2-12.5,3.7
		C260.1,187.9,260.1,187.8,260.1,187.6z"/>
</g>
<g>
	<path class="st13" d="M238,239.6c1.4,0.3,2.9,0.6,4.3,0.8c1.4,0.1,2.9,0.3,4.3,0.3c1.4,0,2.9-0.1,4.3-0.2c1.4-0.2,2.9-0.5,4.3-0.8
		c-1.3,1.4-2.8,2-4.2,2.6s-2.9,0.7-4.4,0.7s-2.9-0.2-4.4-0.8C240.8,241.6,239.3,240.9,238,239.6z"/>
</g>
<path class="st12" d="M264.1,195.6c0,0,10.5-8.8,30.9-1c0,0,5.1,2.2,8.1,2.6s-2.2,1.7-6.8-1S277.6,190.8,264.1,195.6z"/>
<path class="st12" d="M228,195.6c0,0-10.5-8.8-30.9-1c0,0-5.1,2.2-8.1,2.6c-3,0.4,2.2,1.7,6.8-1C200.5,193.4,214.6,190.8,228,195.6z
	"/>
<g>
	<path class="st14" d="M215.3,219.9c-12.6,0-22.8-10.2-22.8-22.8s10.2-22.8,22.8-22.8s22.8,10.2,22.8,22.8S227.9,219.9,215.3,219.9z
		 M215.3,179.6c-9.6,0-17.5,7.8-17.5,17.5s7.8,17.5,17.5,17.5c9.6,0,17.5-7.8,17.5-17.5S224.9,179.6,215.3,179.6z"/>
	<path class="st14" d="M248,188.4c-10.9,0-12.1,5.8-11.8,9.2c-0.2,2.9,0.4,5.2,0.4,5.2c2.1-4.3,6.5-7.1,11.2-7.1
		c4.8,0,9.2,2.8,11.2,7.1c0,0,0.6-2.3,0.4-5.2C260.1,194.3,258.9,188.4,248,188.4z"/>
	<path class="st14" d="M280.9,219.9c-12.6,0-22.8-10.2-22.8-22.8s10.2-22.8,22.8-22.8s22.8,10.2,22.8,22.8S293.6,219.9,280.9,219.9z
		 M280.9,179.6c-9.6,0-17.5,7.8-17.5,17.5s7.8,17.5,17.5,17.5s17.5-7.8,17.5-17.5S290.6,179.6,280.9,179.6z"/>
</g>
<g class="st15">
	<path class="st16" d="M280.9,179.6c-9.6,0-17.5,7.8-17.5,17.5s7.8,17.5,17.5,17.5s17.5-7.8,17.5-17.5S290.6,179.6,280.9,179.6z"/>
	<path class="st16" d="M215.3,179.6c-9.6,0-17.5,7.8-17.5,17.5s7.8,17.5,17.5,17.5c9.6,0,17.5-7.8,17.5-17.5
		S224.9,179.6,215.3,179.6z"/>
</g>
<g>
	<path class="st14" d="M193.3,199l-25.1-5.3l0,0c0.4-1.7,2-2.8,3.8-2.5l22,4.6L193.3,199z"/>
	<polygon class="st14" points="302.7,199 302,195.9 324.7,191 325.3,194.1 	"/>
</g>
</svg>
