<?xml version="1.0" encoding="utf-8"?>
<!-- Generator: Adobe Illustrator 25.2.1, SVG Export Plug-In . SVG Version: 6.00 Build 0)  -->
<svg version="1.1" id="Layer_1" xmlns="http://www.w3.org/2000/svg" xmlns:xlink="http://www.w3.org/1999/xlink" x="0px" y="0px"
	 viewBox="0 0 496.2 496.2" style="enable-background:new 0 0 496.2 496.2;" xml:space="preserve">
<style type="text/css">
	.st0{fill:#A3D5E0;}
	.st1{fill:#E2A379;}
	.st2{fill:#019897;}
	.st3{fill:#D0EAEF;}
	.st4{fill:#F4B382;}
	.st5{fill:#3A1D12;}
	.st6{fill:#E4F0F2;}
	.st7{fill:#FFFFFF;}
	.st8{fill:#678683;}
	.st9{fill:#1E1E1E;}
	.st10{fill:#47200D;}
</style>
<path class="st0" d="M496.2,248.1C496.2,111.1,385.1,0,248.1,0S0,111.1,0,248.1s111.1,248.1,248.1,248.1S496.2,385.1,496.2,248.1z"
	/>
<path class="st1" d="M287,282.1h-77.8c12.1,36.6,1,53.3,1,53.3l26.9,6.1h22l26.9-6.1C286,335.4,274.9,318.7,287,282.1z"/>
<path class="st2" d="M248.1,496.2c70.2,0,133.6-29.2,178.7-76c-2.8-15.1-5.6-28.9-8.3-37.4c-8.5-27.3-81.2-49.3-170.8-49.3
	s-161.5,22-170,49.3c-2.6,8.5-5.5,22.2-8.3,37.4C114.5,467,177.9,496.2,248.1,496.2z"/>
<path class="st3" d="M198.8,336.5c0,0-19.2,44,49,44s49.7-44,49.7-44l-49.4-5.8L198.8,336.5z"/>
<path class="st1" d="M210.2,335.4c0,0-14.8,36.7,37.6,36.7s38.2-36.7,38.2-36.7L247.8,317L210.2,335.4z"/>
<path class="st4" d="M336.4,175.2c0-92.4-39.5-113.6-88.3-113.6c-48.7,0-88.3,21.2-88.3,113.6c0,31.3,6.2,55.8,15.5,74.7
	c20.4,41.6,55.7,56.1,72.8,56.1s52.4-14.5,72.8-56.1C330.2,231,336.4,206.5,336.4,175.2z"/>
<g>
	<path class="st5" d="M165.5,140.8c-4.2,10.9-5.6,24.4-5.6,37.5c0,0,8.8-1.9,8.8,2.6l2.8,27.6l3.9-1.9c-0.2-23,4.9-68,4.9-68
		L165.5,140.8z"/>
	<path class="st5" d="M330.8,140.8c4.2,10.9,5.6,24.4,5.6,37.5c0,0-8.8-1.9-8.8,2.6l-2.8,27.6l-3.9-1.9c0.2-23-4.9-66.2-4.9-66.2
		L330.8,140.8z"/>
	<polygon class="st5" points="225.4,136.3 225.4,166.3 276.4,134.8 	"/>
	<polygon class="st5" points="209.9,136.3 209.9,166.3 260.9,134.8 	"/>
	<polygon class="st5" points="194.4,136.3 194.4,166.3 245.4,134.8 	"/>
</g>
<path class="st2" d="M164,78.3c0,8.6-4,76.8-4,76.8h176.5c0,0-4-68.2-4-76.8c0-4.3-35.5-23-83.3-23.1C200.7,55.2,164,73.9,164,78.3z
	"/>
<g>
	<path class="st4" d="M170.4,238.7c-8.4,1.4-14.4,0.1-19.1-27.7s1.7-31.5,10.1-32.9L170.4,238.7z"/>
	<path class="st4" d="M325.9,238.7c8.4,1.4,14.3,0.1,19.1-27.7c4.8-27.8-1.7-31.5-10.1-32.9L325.9,238.7z"/>
</g>
<g>
	<path class="st6" d="M314.8,236.3c-0.3,0-0.6-0.1-0.8-0.2c-1-0.5-1.4-1.7-1-2.7l11.5-58.8c0.5-1,1.7-1.4,2.7-1c1,0.5,1.4,1.7,1,2.7
		l-11.5,58.8C316.3,235.8,315.6,236.3,314.8,236.3z"/>
	<path class="st6" d="M183.8,231.2c-0.8,0-1.5-0.4-1.8-1.2l-13.9-53.7c-0.5-1,0-2.2,1-2.7s2.2,0,2.7,1l13.9,53.7c0.5,1,0,2.2-1,2.7
		C184.3,231.1,184,231.2,183.8,231.2z"/>
	<path class="st6" d="M320.9,249.9l-2.9-22l-69.8-24.6L179,221.2l-3.7,28.6l0,0c20.4,41.6,55.7,56.1,72.8,56.1
		S300.5,291.5,320.9,249.9L320.9,249.9z"/>
</g>
<path class="st7" d="M212.9,192c10.6,1,18.4,3.6,18.4,8.4s-8.2,5.9-18.4,5.9s-18.4-1.2-18.4-5.9S196.5,190.5,212.9,192z"/>
<ellipse class="st8" cx="212.8" cy="199.1" rx="6.5" ry="5.7"/>
<ellipse class="st9" cx="212.8" cy="199.1" rx="3" ry="2.6"/>
<path class="st7" d="M297.3,200.4c0,4.7-8.2,5.9-18.4,5.9c-10.2,0-18.4-1.1-18.4-5.9s7.8-7.4,18.4-8.4
	C295.3,190.5,297.3,195.7,297.3,200.4z"/>
<ellipse class="st7" cx="210" cy="196.1" rx="1.8" ry="1.6"/>
<ellipse class="st8" cx="278" cy="199.1" rx="6.5" ry="5.7"/>
<ellipse class="st9" cx="278" cy="199.1" rx="3" ry="2.6"/>
<ellipse class="st7" cx="275.2" cy="196.1" rx="1.8" ry="1.6"/>
<path class="st4" d="M213.9,180.1c0,0-43.4,30.2-23.1,20c7-3.5,34.6-11.1,43.3-2.5L213.9,180.1z"/>
<path class="st4" d="M303.3,203.7c0.3-2.3-17.3-12.4-38.7-6.5c-12.7,3.4-8.9-1.8,3.9-6.5c6.7-2.4,30.9-3.2,30.9-3.2L303.3,203.7z"/>
<g>
	<path class="st10" d="M233.9,188.1c-4.4-1.6-8.5-3-12.5-3.7c-2-0.3-3.9-0.7-5.9-1c-2-0.2-4.1-0.4-6.1-0.2c-1.9,0.1-4.1,0.4-6.1,0.8
		c-1.9,0.4-3.9,0.9-5.7,1.5c-3.7,1.1-6.9,2.4-10,3.5c-0.2,0-0.4,0-0.6,0c2.2-1.2,4.8-2.7,8.3-4.3c3.4-1.6,7.7-3.4,12.3-4.5
		c2.3-0.5,5-1.2,7.5-1.4c2.5-0.2,5.2-0.1,7.5,0.4c2.5,0.6,4.7,1.6,6.8,2.9c2,1.4,3.8,3.1,4.6,5.5C234,187.8,234,187.9,233.9,188.1z"
		/>
</g>
<g>
	<path class="st10" d="M260.1,187.6c0.8-2.4,2.7-4.1,4.6-5.5c2.1-1.4,4.3-2.3,6.8-2.9c2.3-0.5,5-0.6,7.5-0.4
		c2.5,0.2,5.1,0.9,7.5,1.4c4.6,1.1,8.9,2.9,12.3,4.5c3.5,1.6,6.1,3.1,8.3,4.3c-0.2,0-0.4,0-0.6,0c-3-1.1-6.2-2.3-10-3.5
		c-1.8-0.6-3.8-1.1-5.7-1.5c-2-0.4-4.2-0.7-6.1-0.8c-2.1-0.1-4.1,0-6.1,0.2c-2,0.2-3.9,0.7-5.9,1c-4,0.7-8.1,2-12.5,3.7
		C260.1,187.9,260.1,187.8,260.1,187.6z"/>
</g>
</svg>
