<?xml version="1.0" encoding="utf-8"?>
<!-- Generator: Adobe Illustrator 25.2.1, SVG Export Plug-In . SVG Version: 6.00 Build 0)  -->
<svg version="1.1" id="Layer_1" xmlns="http://www.w3.org/2000/svg" xmlns:xlink="http://www.w3.org/1999/xlink" x="0px" y="0px"
	 viewBox="0 0 496.2 496.2" style="enable-background:new 0 0 496.2 496.2;" xml:space="preserve">
<style type="text/css">
	.st0{fill:#32BEA6;}
	.st1{fill:#295D66;}
	.st2{fill:#DADDE0;}
	.st3{fill:#DEE0E2;}
	.st4{fill:#E2A379;}
	.st5{fill:#F4B382;}
	.st6{fill:#A03F21;}
	.st7{fill:#191919;}
	.st8{fill:#E5A173;}
	.st9{fill:#D89364;}
	.st10{fill:#FFFFFF;}
	.st11{fill:#678683;}
	.st12{fill:#1E1E1E;}
	.st13{fill:#47200D;}
	.st14{opacity:0.63;}
	.st15{fill:#E8D3BB;}
	.st16{fill:#34003F;}
</style>
<path class="st0" d="M496.2,248.1C496.2,111.1,385.1,0,248.1,0S0,111.1,0,248.1s111.1,248.1,248.1,248.1S496.2,385.1,496.2,248.1z"
	/>
<path class="st1" d="M248.1,496.2c70.2,0,133.6-29.2,178.7-76c-2.8-15.1-5.6-28.9-8.3-37.4c-8.5-27.3-81.2-49.3-170.8-49.3
	s-161.5,22-170,49.3c-2.6,8.5-5.5,22.2-8.3,37.4C114.5,467,177.9,496.2,248.1,496.2z"/>
<path class="st2" d="M293.9,336.2c-14.5-1.8-30-2.7-46.1-2.7c-15.9,0-31.2,0.9-45.5,2.7l45.8,91L293.9,336.2z"/>
<rect x="205.1" y="324.9" class="st3" width="86" height="25"/>
<path class="st4" d="M248.1,412.1l-37.8-76.8c0,0,9.2-12.4,37.4-12.4s38.1,12.5,38.1,12.5L248.1,412.1z"/>
<g>
	<path class="st2" d="M168.1,357.2l37-32.3l32,63.9c0,0-25.2,7.1-25.5,6.8L168.1,357.2z"/>
	<path class="st2" d="M328.1,357.2l-37-32.3l-32,63.9c0,0,25.2,7.1,25.5,6.8L328.1,357.2z"/>
</g>
<path class="st4" d="M287,282.1h-77.8c12.1,36.6,1,53.3,1,53.3s16.9,6.1,37.9,6.1s37.9-6.1,37.9-6.1S274.9,318.7,287,282.1z"/>
<path class="st5" d="M336.4,175.2c0-92.4-39.5-113.6-88.3-113.6c-48.7,0-88.3,21.2-88.3,113.6c0,31.3,6.2,55.8,15.5,74.7
	c20.4,41.6,55.7,56.1,72.8,56.1s52.4-14.5,72.8-56.1C330.2,231,336.4,206.5,336.4,175.2z"/>
<path class="st6" d="M336.4,175.2c0-92.4-30.3-116.1-88.3-116.1s-88.3,23.7-88.3,116.1c0,0,16.3-34.1,28.3-53.1s38-18.3,38-18.3h49
	c0,0,27,0.3,34.5,18.3L336.4,175.2z"/>
<g>
	<path class="st7" d="M247.6,292.9h0.5C247.9,292.9,247.8,292.9,247.6,292.9L247.6,292.9z"/>
	<path class="st7" d="M248.6,292.9L248.6,292.9c-0.2,0-0.3,0-0.5,0H248.6z"/>
</g>
<g>
	<path class="st5" d="M170.4,238.7c-8.4,1.4-14.4,0.1-19.1-27.7s1.7-31.5,10.1-32.9L170.4,238.7z"/>
	<path class="st5" d="M325.9,238.7c8.4,1.4,14.3,0.1,19.1-27.7c4.8-27.8-1.7-31.5-10.1-32.9L325.9,238.7z"/>
</g>
<path class="st8" d="M274.8,257c0,2.6-11.9,9.5-26.7,9.5s-26.7-7-26.7-9.5c0-1.6,8.5-6.1,14.1-6.9c3.6-0.5,12.5,2.9,12.5,2.9
	s8.8-3.4,12.4-2.9C266.2,250.9,274.8,257,274.8,257z"/>
<path class="st9" d="M274.8,257c0,2.6-11.9,12.4-26.7,12.4s-26.7-9.9-26.7-12.4c0,0,10.9,1.3,26.7,1.3S274.8,257,274.8,257z"/>
<g>
	<path class="st6" d="M168.6,180.9l2.8,27.6l3.9-1.9c-0.2-23,2.6-73.8,2.6-73.8l-17.3,22.7c-0.4,6.2-0.7,12.8-0.7,19.8
		c0,0.9,0,1.8,0,2.7C163.8,177.8,168.6,178.2,168.6,180.9z"/>
	<path class="st6" d="M327.6,180.9l-2.8,27.6l-3.9-1.9c0.2-23-2.6-82.8-2.6-82.8l17.3,31.7c0.4,6.2,0.7,12.8,0.7,19.8
		c0,0.9,0,1.8,0,2.7C332.4,177.8,327.6,178.2,327.6,180.9z"/>
</g>
<g>
	<path class="st10" d="M311.5,337.4L311.5,337.4L311.5,337.4L311.5,337.4z"/>
	<path class="st10" d="M298.5,335.9L298.5,335.9L298.5,335.9z"/>
</g>
<path class="st10" d="M215,191.4c10.6,1,18.4,3.6,18.4,8.4s-8.2,5.9-18.4,5.9s-18.4-1.2-18.4-5.9S198.6,189.9,215,191.4z"/>
<ellipse class="st11" cx="214.9" cy="198.5" rx="8.3" ry="7.3"/>
<ellipse class="st12" cx="214.9" cy="198.5" rx="4.7" ry="4.1"/>
<path class="st10" d="M299.4,199.8c0,4.7-8.2,5.9-18.4,5.9c-10.2,0-18.4-1.1-18.4-5.9s7.8-7.4,18.4-8.4
	C297.4,189.9,299.4,195.1,299.4,199.8z"/>
<ellipse class="st11" cx="281.1" cy="198.5" rx="8.3" ry="7.3"/>
<ellipse class="st12" cx="281.1" cy="198.5" rx="4.7" ry="4.1"/>
<ellipse class="st10" cx="277.1" cy="195.5" rx="1.8" ry="1.6"/>
<ellipse class="st10" cx="212.1" cy="195.5" rx="1.8" ry="1.6"/>
<path class="st5" d="M217.7,180.5c0,0-43.2,25.9-25.5,16.9c19.8-10.1,37.6-4.5,37.8-2.2L217.7,180.5z"/>
<path class="st5" d="M305.2,200.1c0.3-2.3-17.3-12.4-38.7-6.5c-12.7,3.4-8.9-1.8,3.9-6.5c6.7-2.4,30.9-3.2,30.9-3.2L305.2,200.1z"/>
<g>
	<path class="st6" d="M236,183.7c-4.4-1.6-8.5-3-12.5-3.7c-2-0.3-3.9-0.7-5.9-1c-2-0.2-4.1-0.4-6.1-0.2c-1.9,0.1-4.1,0.4-6.1,0.8
		c-1.9,0.4-3.9,0.9-5.7,1.5c-3.7,1.1-6.9,2.4-10,3.5c-0.2,0-0.4,0-0.6,0c2.2-1.2,4.8-2.7,8.3-4.3c3.4-1.6,7.7-3.4,12.3-4.5
		c2.3-0.5,5-1.2,7.5-1.4c2.5-0.2,5.2-0.1,7.5,0.4c2.5,0.6,4.7,1.6,6.8,2.9c2,1.4,3.8,3.1,4.6,5.5C236.1,183.3,236,183.5,236,183.7z"
		/>
</g>
<g>
	<path class="st6" d="M262.2,183.2c0.8-2.4,2.7-4.1,4.6-5.5c2.1-1.4,4.3-2.3,6.8-2.9c2.3-0.5,5-0.6,7.5-0.4c2.5,0.2,5.1,0.9,7.5,1.4
		c4.6,1.1,8.9,2.9,12.3,4.5c3.5,1.6,6.1,3.1,8.3,4.3c-0.2,0-0.4,0-0.6,0c-3-1.1-6.2-2.3-10-3.5c-1.8-0.6-3.8-1.1-5.7-1.5
		c-2-0.4-4.2-0.7-6.1-0.8c-2.1-0.1-4.1,0-6.1,0.2c-2,0.2-3.9,0.7-5.9,1c-4,0.7-8.1,2-12.5,3.7C262.2,183.5,262.2,183.3,262.2,183.2z
		"/>
</g>
<g>
	<path class="st9" d="M240.1,239c1.4,0.3,2.9,0.6,4.3,0.8c1.4,0.1,2.9,0.3,4.3,0.3c1.4,0,2.9-0.1,4.3-0.2c1.4-0.2,2.9-0.5,4.3-0.8
		c-1.3,1.4-2.8,2-4.2,2.6s-2.9,0.7-4.4,0.7s-2.9-0.2-4.4-0.8C242.9,241,241.4,240.3,240.1,239z"/>
</g>
<path class="st13" d="M266.2,194.9c0,0,10.5-8.8,30.9-1c0,0,5.1,2.2,8.1,2.6c3,0.4-2.2,1.7-6.8-1S279.7,190.2,266.2,194.9z"/>
<path class="st13" d="M230.1,194.9c0,0-10.5-8.8-30.9-1c0,0-5.1,2.2-8.1,2.6s2.2,1.7,6.8-1S216.7,190.2,230.1,194.9z"/>
<g class="st14">
	<path class="st15" d="M238.2,205.6c0,1.7-23.3,23.4-25,23.4l-24-4.7c-1.7,0-8.4-4.7-8.4-6.4l-6.1-30.4c0-1.7,19.9-11.8,21.6-11.8
		l31.3,4.6c1.7,0,12.4,3.1,12.4,4.8L238.2,205.6z"/>
</g>
<g class="st14">
	<path class="st15" d="M250.9,187c0-1.7,15.6-6.7,17.3-6.7l27.4-2.6c1.7,0,26.6,5.1,26.6,6.8l-7.1,33.5c0,1.7-15,8.9-16.7,8.9h-17.5
		c-1.7,0-19.3-12.4-19.3-14.1L250.9,187z"/>
</g>
<g id="_x33_v20cP.tif">
	<g>
		<g>
			<path class="st16" d="M205.5,231.5c-0.6,0-1.2,0-1.9,0c-7-0.2-13-1.7-18.3-4.4c-3.9-2-6.7-4.9-8.4-8.8
				c-3.1-6.8-5.4-13.4-7.1-20.1c-0.3-1-0.8-2-1.9-3.1l-0.1-0.2c-0.8-0.9-1.6-1.7-2.4-2.6c-1.3-1.4-2.1-3.2-2.2-5.4
				c0-1.2,0-2.4,0-3.6c0-0.6,0-1.2,0-1.8c0-1.4,0.9-2.5,2.3-2.7c3.5-0.6,7-1.3,10.3-2c3.2-0.7,6.6-1.3,9.9-1.9
				c4.6-0.8,9.1-1.2,13.5-1.2c1.2,0,2.4,0,3.5,0.1c3.6,0.2,7.1,0.6,10.6,1c0.9,0.1,1.7,0.2,2.6,0.3c4.5,0.5,9,1.4,13.3,2.3
				c1.9,0.4,3.8,0.8,5.6,1.1c3,0.6,5.8,0.9,8.5,1.1c1.3,0.1,2.7,0.1,4,0.1c1.6,0,3.3-0.1,4.9-0.2c3.1-0.2,6.5-0.6,10.8-1.4
				c2.5-0.4,5-0.9,7.5-1.4c3.7-0.7,7.4-1.4,11.2-2c3.4-0.5,6.9-0.9,10.7-1.1c0.9-0.1,1.9-0.1,2.9-0.1c4.2,0,8.2,0.5,12.3,1.1
				l0.8,0.1c2.8,0.4,5.6,0.8,8.5,1.5c0.7,0.2,1.3,0.3,2,0.5c1.9,0.5,3.8,1,5.7,1.4c0.8,0.2,1.7,0.3,2.5,0.4c2.3,0.4,3.4,1.7,3.8,2.8
				l0.2,0.4v8.2l-0.1,0.3c-0.4,1-1.1,1.9-2.2,2.5c-1.2,0.7-2.1,1.8-2.7,3.4c-0.9,2-1.4,4.2-2,6.4l-0.7,2.7c-0.7,2.6-1.4,5.2-2.4,7.8
				c-2.4,6.3-6.7,11.1-12.8,14.2c-3.9,2-8.1,3.2-12.9,3.7c-1.5,0.2-3.1,0.2-4.6,0.2c-5.2,0-10.5-1-15.5-2.9
				c-6.5-2.4-11.7-6.9-15.6-13.2c-2.3-3.7-4.1-8-5.6-13c-0.6-2.1-1.3-3.5-2.2-4.7c-0.7-1-1.3-1.1-1.9-1.1l-0.3,0
				c-0.6,0-1.1,0-1.7-0.1c-0.5,0-0.9-0.1-1.4-0.1c-0.3,0-0.6,0-0.9,0.1c-0.7,0.1-0.9,0.4-1.1,0.6c-1,1.6-1.6,3.3-2.2,5.4
				c-0.1,0.4-0.2,0.8-0.4,1.3c-0.5,1.7-0.9,3.5-1.8,5.2c-2.6,5.2-6.4,11.8-12.7,16.6c-4,3.1-8.7,4.9-13.9,5.6
				C210.7,231.3,208,231.5,205.5,231.5z M286.1,181.3c-1.9,0-4.1,0.2-6.4,0.5c-3,0.4-6.1,1.1-9.2,2.1c-2.4,0.7-5.1,1.7-7.4,3.5
				c-2,1.6-3,3.5-3.2,5.9c-0.1,1.7,0.1,3.4,0.7,5.4c1.3,4.4,3.3,8.9,5.9,13.3c1.7,2.9,4.1,5.3,7.1,7.3c4.4,3,9.7,4.6,16,4.7
				c0.4,0,0.7,0,1.1,0c3.5,0,7-0.5,10.5-1.4c4.5-1.2,7.8-3.6,10.2-7.6c1.2-1.9,1.9-4.1,2.6-6.4c2-6.4,2.9-11.7,2.7-16.7
				c-0.1-2.2-0.8-3.9-2.3-5.3c-1.3-1.2-2.9-2-5.3-2.8c-2.9-0.9-6-1.3-8.9-1.6c-4.6-0.5-8.6-0.9-13.2-0.9h-0.2
				C286.6,181.3,286.3,181.3,286.1,181.3z M208.1,181.3c-2.2,0-4.1,0.1-6.2,0.2c-4.5,0.4-8.6,0.7-12.6,1.5c-2.8,0.6-4.9,1.3-6.7,2.4
				c-2.2,1.3-3.3,3.1-3.6,5.5c-0.3,2.2-0.2,4.6,0.3,7.8c0.7,4.8,2,9.5,3.8,13.9c1.8,4.4,5,7.5,9.4,9.2c2.8,1.1,5.8,1.5,8.7,1.8
				c1.4,0.1,2.8,0.2,4.1,0.2c3.3,0,6.4-0.4,9.4-1.3c5.5-1.6,10-4.7,13.4-9.2c1.6-2.1,2.8-4.6,4-7c1.7-3.6,3.3-7.2,3.7-11.1
				c0.3-3.1-0.4-5.4-2.3-7.2c-1.6-1.6-3.7-2.8-6.8-3.8c-5.8-2-11.5-3-17.1-3C209.1,181.3,208.1,181.3,208.1,181.3z"/>
			<path class="st16" d="M329.2,189.7c-0.2,0.7-0.7,1.1-1.3,1.5c-1.7,1-2.8,2.6-3.6,4.4c-1.1,2.5-1.7,5.2-2.5,7.9
				c-0.8,3.1-1.6,6.1-2.7,9.1c-2.2,5.9-6.3,10.3-11.9,13.2c-3.8,2-7.9,3-12.2,3.5c-6.6,0.7-13-0.2-19.2-2.5
				c-6.4-2.4-11.1-6.7-14.6-12.4c-2.4-3.9-4.1-8.2-5.4-12.6c-0.6-1.9-1.3-3.7-2.5-5.3c-0.9-1.2-2-2-3.6-1.9c-1.5,0-2.9-0.3-4.4-0.1
				c-1,0.2-1.9,0.6-2.5,1.5c-1.2,1.8-1.8,3.9-2.4,6c-0.6,2.1-1.1,4.2-2,6.1c-3,6.1-6.6,11.7-12.1,15.9c-3.8,2.9-8.2,4.6-13,5.2
				c-3.2,0.4-6.4,0.6-9.6,0.5c-6.1-0.2-12-1.4-17.4-4.2c-3.4-1.8-5.9-4.3-7.5-7.9c-2.9-6.4-5.3-12.9-7-19.7c-0.4-1.6-1.3-2.8-2.3-4
				c-0.8-0.9-1.7-1.9-2.6-2.8c-1.1-1.1-1.5-2.6-1.6-4.1c-0.1-1.8,0-3.6,0-5.4c0-0.5,0.2-0.7,0.7-0.8c6.8-1.1,13.5-2.7,20.2-3.9
				c5.5-0.9,11-1.3,16.6-1.1c4.4,0.2,8.7,0.8,13,1.3c6.3,0.7,12.5,2.3,18.8,3.4c2.9,0.5,5.8,0.9,8.7,1.1c3.1,0.2,6.1,0.2,9.2-0.1
				c3.7-0.3,7.4-0.8,11-1.4c6.2-1.1,12.4-2.4,18.7-3.3c3.5-0.5,7-0.9,10.5-1.1c5-0.3,9.9,0.3,14.8,1c3,0.4,6,0.8,9,1.6
				c2.6,0.7,5.2,1.4,7.8,1.9c0.9,0.2,1.8,0.3,2.6,0.5c1,0.2,1.8,0.6,2.2,1.6C329.2,184.7,329.2,187.2,329.2,189.7z M208.5,179.3
				c-2.5,0-4.7,0.1-6.8,0.2c-4.3,0.3-8.6,0.7-12.9,1.6c-2.6,0.5-5.1,1.3-7.3,2.7c-2.6,1.6-4.2,3.9-4.5,7c-0.3,2.8-0.1,5.5,0.3,8.3
				c0.7,5,2,9.8,3.9,14.4c2,4.9,5.5,8.4,10.5,10.3c3,1.2,6.1,1.6,9.2,1.9c4.8,0.5,9.6,0.2,14.3-1.2c5.9-1.7,10.7-5,14.4-9.9
				c1.7-2.3,3-4.8,4.2-7.4c1.8-3.7,3.4-7.5,3.9-11.7c0.4-3.4-0.4-6.4-2.9-8.8c-2.1-2.1-4.8-3.3-7.6-4.3
				C221,180.3,214.7,179.2,208.5,179.3z M286.9,179.3c-2.1-0.1-4.8,0.1-7.5,0.5c-3.2,0.4-6.4,1.2-9.5,2.1c-2.9,0.9-5.6,2-8,3.9
				c-2.4,1.9-3.7,4.2-3.9,7.3c-0.1,2.1,0.2,4.1,0.8,6c1.4,4.9,3.5,9.4,6.1,13.7c1.9,3.2,4.5,5.9,7.7,8c5.2,3.5,11,4.9,17.1,5.1
				c4.1,0.1,8.2-0.4,12.2-1.4c4.9-1.3,8.8-4.1,11.4-8.5c1.3-2.2,2.1-4.5,2.8-6.9c1.8-5.7,3-11.4,2.8-17.4c-0.1-2.6-1-4.9-2.9-6.6
				c-1.7-1.6-3.8-2.5-6.1-3.2c-3-0.9-6.1-1.4-9.2-1.7C296.2,179.7,291.9,179.3,286.9,179.3z"/>
		</g>
	</g>
</g>
</svg>
