<?xml version="1.0" encoding="utf-8"?>
<!-- Generator: Adobe Illustrator 25.2.1, SVG Export Plug-In . SVG Version: 6.00 Build 0)  -->
<svg version="1.1" id="Layer_1" xmlns="http://www.w3.org/2000/svg" xmlns:xlink="http://www.w3.org/1999/xlink" x="0px" y="0px"
	 viewBox="0 0 496.2 496.2" style="enable-background:new 0 0 496.2 496.2;" xml:space="preserve">
<style type="text/css">
	.st0{fill:#32BEA6;}
	.st1{fill:#3FBBD8;}
	.st2{fill:#E9F2F4;}
	.st3{fill:#78DDF4;}
	.st4{fill:#E2A379;}
	.st5{fill:#9B1818;}
	.st6{fill:#F4B382;}
	.st7{fill:#191919;}
	.st8{fill:#E5A173;}
	.st9{fill:#D89364;}
	.st10{fill:#E6E7E8;}
	.st11{fill:#F4C4A4;}
	.st12{fill:#261D17;}
	.st13{fill:#FFFFFF;}
	.st14{fill:#4ECFF2;}
	.st15{fill:#C9DEE2;}
	.st16{fill:#3F3F3F;}
	.st17{fill:#5E5E5E;}
	.st18{fill:#828282;}
	.st19{fill:#69696B;}
	.st20{fill:#8D8D8E;}
	.st21{fill:#5C5D60;}
	.st22{fill:#1E1E1E;}
	.st23{opacity:0.68;fill:#F4CCB0;}
	.st24{opacity:0.68;fill:#F4C4A4;}
</style>
<path class="st0" d="M496.2,248.1C496.2,111.1,385.1,0,248.1,0S0,111.1,0,248.1s111.1,248.1,248.1,248.1S496.2,385.1,496.2,248.1z"
	/>
<polygon class="st1" points="306.4,352.4 189.6,352.4 208.3,320.3 248.1,315.1 287.9,320.3 "/>
<path class="st2" d="M248.1,496.2c70.2,0,133.6-29.2,178.7-76c-2.8-15.1-5.6-28.9-8.3-37.4c-8.5-27.3-81.2-49.3-170.8-49.3
	s-161.5,22-170,49.3c-2.6,8.5-5.5,22.2-8.3,37.4C114.5,467,177.9,496.2,248.1,496.2z"/>
<path class="st3" d="M247.7,333.4c-1.4,0-2.9,0-4.3,0c-0.4,0-0.8,0-1.1,0c-1.1,0-2.1,0-3.2,0c-0.2,0-0.5,0-0.7,0
	c-19.7,0.3-37.9,1.8-52.9,4.1c0,0,4,37.9,4,58.6l58.5,69l58.3-68.9c0-42.6-0.1-58.9-0.1-58.9C289.5,334.8,270.3,333.4,247.7,333.4z"
	/>
<path class="st4" d="M287,282.1h-77.8c12.1,36.6,1,53.3,1,53.3l26.9,6.1h22l26.9-6.1C286,335.4,274.9,318.7,287,282.1z"/>
<g>
	<path class="st5" d="M248.1,340.2l-15.7,4.7c0,0,5.4,25.6,15.7,25.6c10.3,0,15.7-25.6,15.7-25.6L248.1,340.2z"/>
	<path class="st5" d="M248.1,468.9c0,0,16.1-29.4,23.7-45.8l-19.7-65.7H244l-19.5,65.4C232.1,439.3,248.1,468.9,248.1,468.9z"/>
</g>
<path class="st6" d="M336.4,175.2c0-92.4-39.5-113.6-88.3-113.6c-48.7,0-88.3,21.2-88.3,113.6c0,31.3,1.3,44.6,10.6,63.5
	c-1.1,51.6,51,73.1,77.7,73.1c30.7,0,69.4-20.7,77.8-73.1C335.2,219.8,336.4,206.5,336.4,175.2z"/>
<g>
	<path class="st7" d="M247.6,292.9h0.5C247.9,292.9,247.8,292.9,247.6,292.9L247.6,292.9z"/>
	<path class="st7" d="M248.6,292.9L248.6,292.9c-0.2,0-0.3,0-0.5,0H248.6z"/>
</g>
<g>
	<path class="st6" d="M170.4,238.7c-8.4,1.4-14.4,0.1-19.1-27.7s1.7-31.5,10.1-32.9L170.4,238.7z"/>
	<path class="st6" d="M325.9,238.7c8.4,1.4,14.3,0.1,19.1-27.7c4.8-27.8-1.7-31.5-10.1-32.9L325.9,238.7z"/>
</g>
<g>
	<path class="st8" d="M280.4,259.6c0.6,0.7-13.3,10.9-33.9,12c-20.7,1.1-34.5-10.6-33.3-12.5c0.6-1.2,11.8-0.8,18.5-0.1
		c4.2,0.9,14.9,4.1,15,3.9c0.1,0.1,10.9-2,15.2-2.4C269,260.5,280.4,259.9,280.4,259.6z"/>
</g>
<g>
	<path class="st9" d="M279.2,262.3c0.4,0-13,11.3-33,12.2c-20.3,0.8-31.8-13.4-31-14.2c-0.1-0.2,12.2,6.6,31.7,7.3
		C266.4,267.9,279.2,262,279.2,262.3z"/>
</g>
<g>
	<path class="st10" d="M336.4,175.2c0-92.4-30.3-116.1-88.3-116.1s-88.3,23.7-88.3,116.1l39.8-33.1c0,0,26.5,0,48.5,0
		s46.2-35.3,46.2-35.3L336.4,175.2z"/>
	<path class="st10" d="M165.5,140.8c-4.2,10.9-5.6,24.4-5.6,37.5c0,0,8.8-1.9,8.8,2.6l2.8,27.6l3.9-1.9c-0.2-23,4.9-68,4.9-68
		L165.5,140.8z"/>
	<path class="st10" d="M330.8,140.8c4.2,10.9,5.6,24.4,5.6,37.5c0,0-8.8-1.9-8.8,2.6l-2.8,27.6l-3.9-1.9c0.2-23-4.9-66.2-4.9-66.2
		L330.8,140.8z"/>
</g>
<path class="st11" d="M206.9,175.5c-15.2,0-27.5,2.7-27.5,21.6c0,11.9,6.8,23.9,27.5,23.9c15.2,0,27.5-12,27.5-23.9
	S222.1,175.5,206.9,175.5z"/>
<path class="st11" d="M289.2,175.5c15.2,0,27.5,2.7,27.5,21.6c0,11.9-6.8,23.9-27.5,23.9c-15.2,0-27.5-12-27.5-23.9
	S274,175.5,289.2,175.5z"/>
<g>
	<path class="st12" d="M260.3,200.6h-21.7c-0.2,0-6-11.9-5.7-11.9h30.2C263.4,188.7,260.5,200.6,260.3,200.6z"/>
	<path class="st12" d="M258.4,200.7c-3-2.1-6.6-4.2-10.5-4.2c-2.9,0-5.8,1.6-8.2,2.8c-3.9,2-3.9,12.7-3.9,12.7
		c2.2-4.7,7-7.7,12.2-7.7c5.1,0,9.9,3,12.2,7.7C260.1,212.1,261.3,202.7,258.4,200.7z"/>
</g>
<g>
	<path class="st13" d="M311.5,337.4L311.5,337.4L311.5,337.4L311.5,337.4z"/>
	<path class="st13" d="M298.5,335.9L298.5,335.9L298.5,335.9z"/>
</g>
<path class="st14" d="M306.5,336.6l-18.6-16.2l-39.8,19.8c0,0,58.1,32.8,58.4,32.6V336.6z"/>
<polygon class="st15" points="358,345.9 293.3,324.9 248.1,469.1 330,373.1 319,362.1 335.5,362.1 "/>
<path class="st14" d="M189.7,336.6l18.6-16.2l39.8,19.9c0,0-58.1,32.8-58.3,32.6v-36.3H189.7z"/>
<polygon class="st15" points="138.1,345.9 203.1,324.9 248.1,469.1 166.1,373.1 177.1,362.1 160.6,362.1 "/>
<g>
	<path class="st16" d="M214.8,312c-34.9,8.6-59.8,30.2-59.8,55.4v85.3h5v-85.3c0-22.7,22.7-42.2,54.7-50.3
		C214.9,315.5,214.9,313.8,214.8,312z"/>
	<path class="st16" d="M281.4,312c0,1.8,0,3.5,0.1,5.1c32.1,8.1,54.7,27.6,54.7,50.3v15.7h5v-15.6
		C341.2,342.2,316.3,320.6,281.4,312z"/>
</g>
<circle class="st17" cx="157.6" cy="444" r="16.7"/>
<circle class="st18" cx="157.6" cy="444" r="14.6"/>
<circle class="st17" cx="157.6" cy="444" r="10.3"/>
<circle class="st18" cx="157.6" cy="444" r="7.4"/>
<g>
	<path class="st19" d="M349.4,459.3c-5.8,0-13.5-0.1-20.1-3.6c-8.3-4.4-12.6-13.1-12.6-25.7v-21.6h4V430c0,11.2,3.4,18.5,10.4,22.2
		c6,3.2,13.4,3.2,18.9,3.2h0.6v4H350C349.8,459.3,349.6,459.3,349.4,459.3z"/>
	<path class="st19" d="M354.9,457.3c0,2.3-1.9,4.2-4.2,4.2l0,0c-2.3,0-4.2-1.9-4.2-4.2l0,0c0-2.3,1.9-4.2,4.2-4.2l0,0
		C352.9,453,354.9,454.9,354.9,457.3L354.9,457.3z"/>
</g>
<g>
	<path class="st20" d="M327.8,459.2c-0.2,0-0.4,0-0.6,0h-0.6v-4h0.6c5.4,0,12.9,0,18.9-3.2c7-3.7,10.4-11,10.4-22.2v-21.6h4v21.6
		c0,12.7-4.2,21.3-12.6,25.7C341.3,459.1,333.6,459.2,327.8,459.2z"/>
	<path class="st20" d="M322.4,457.2c0,2.3,1.9,4.2,4.2,4.2l0,0c2.3,0,4.2-1.9,4.2-4.2l0,0c0-2.3-1.9-4.2-4.2-4.2l0,0
		C324.3,452.9,322.4,454.8,322.4,457.2L322.4,457.2z"/>
</g>
<path class="st16" d="M358.5,410.8c-1.4,0-2.5-1.1-2.5-2.5v-6.6c0-9.6-7.8-17.4-17.4-17.4s-17.4,7.8-17.4,17.4v6.6
	c0,1.4-1.1,2.5-2.5,2.5s-2.5-1.1-2.5-2.5v-6.6c0-12.3,10-22.4,22.4-22.4s22.4,10,22.4,22.4v6.6C361,409.6,359.9,410.8,358.5,410.8z"
	/>
<path class="st13" d="M214.9,191c10.6,1,18.4,3.6,18.4,8.4s-8.2,5.9-18.4,5.9s-18.4-1.2-18.4-5.9S198.5,189.5,214.9,191z"/>
<ellipse class="st21" cx="214.8" cy="198.1" rx="8.3" ry="7.3"/>
<ellipse class="st22" cx="214.8" cy="198.1" rx="4.7" ry="4.1"/>
<ellipse class="st13" cx="210.8" cy="195.1" rx="1.8" ry="1.6"/>
<path class="st13" d="M299.3,199.4c0,4.7-8.2,5.9-18.4,5.9c-10.2,0-18.4-1.1-18.4-5.9s7.8-7.4,18.4-8.4
	C297.3,189.5,299.3,194.7,299.3,199.4z"/>
<ellipse class="st21" cx="281" cy="198.1" rx="8.3" ry="7.3"/>
<ellipse class="st22" cx="281" cy="198.1" rx="4.7" ry="4.1"/>
<ellipse class="st13" cx="277" cy="195.1" rx="1.8" ry="1.6"/>
<path class="st6" d="M216,172.3c0,0-38.2,33.8-19.5,27.1c17.9-12.7,35.4-7.1,35.3-4.8L216,172.3z"/>
<path class="st6" d="M304.4,205.4c0.3-2.3-10.9-15.6-35.1-14.7c-12.7,3.4-12.5-2.6,0.4-7.4c6.7-2.4,31.5,0,31.5,0L304.4,205.4z"/>
<g>
	<g>
		<path class="st10" d="M261.2,180.9c0.4-3.4,1.9-6.1,3.7-8.4c1-1,2-2,3.3-2.8c1.3-0.8,2.4-1.4,3.8-1.9c1.4-0.5,2.8-0.9,4.3-1
			c1.5-0.2,3.1-0.1,4.6,0c1.5,0.3,3,0.5,4.5,0.9c1.5,0.4,2.9,0.8,4.4,1.3c1.5,0.5,2.8,0.9,4.2,1.6c1.3,0.7,2.7,1,4,1.9
			c1.1,0.7,2.2,1.4,3.2,2.1c0.2,0.1,0.4,0.3,0.6,0.5c1,0.8,1.9,1.6,2.9,2.4c2.1,1.6,3.8,3.6,5.3,5.3c1.5,1.7,2.7,3.8,3.8,5.5
			c-0.2,0.1-0.4,0.2-0.6,0.4c-0.8-0.7-1.5-1.4-2.4-2.2c-0.8-0.8-1.5-1.5-2.5-2.1c-1.9-1.3-3.6-2.7-5.8-3.5c-1.1-0.5-2.1-1.1-3.1-1.5
			c-1.1-0.4-2.2-0.8-3.4-1.1c-1.1-0.4-2.2-0.6-3.4-0.8c-1.2-0.2-2.3-0.6-3.5-0.5c-1.2-0.1-2.3-0.1-3.4,0c-1.1,0.2-2.2,0.4-3.3,0.6
			c-1.1,0.2-2.2,0.6-3.2,0.8c-1,0.2-2.2,0.5-3.3,0.5c-0.6,0.1-1.1,0.1-1.6,0.4c-0.5,0.2-1,0.3-1.5,0.5c-1.3,0.1-2.3,0.5-3.5,0.9
			c-2.3,0.6-4.6,1.4-7.3,2.1C261.9,182.1,261.5,181.5,261.2,180.9z"/>
	</g>
</g>
<g>
	<path class="st10" d="M233.3,185.6c-4.3-0.7-8.2-1.9-12-2.5c-1.9-0.2-3.6-0.9-5.5-1.3c-1.9-0.4-3.7-0.9-5.6-0.9
		c-1.8,0-3.9,0.2-5.8,0.7c-1.9,0.5-3.9,1.1-5.7,2c-3.8,1.8-7.3,4.3-10.8,7.3l-0.5-0.7c2.8-4.2,6-8.1,9.7-10.8
		c3.7-2.9,7.9-5.1,12.2-6c2.2-0.4,4.6-1,6.8-1s4.6,0.5,6.6,1.4c2.2,1.2,4.1,2.5,6,4.3c1.8,1.8,3.6,3.8,4.6,6.8L233.3,185.6z"/>
</g>
<path class="st23" d="M206.9,175.5c-15.2,0-27.5,2.7-27.5,21.6c0,10,4.8,20,18.5,23l16.5-43.8C212,175.8,209.5,175.5,206.9,175.5z"
	/>
<path class="st24" d="M234.4,197.1c0-9.9-8.5-18.2-20-20.8L198,220.1c2.6,0.6,5.6,0.9,9,0.9C222.1,221,234.4,209,234.4,197.1z"/>
<path class="st23" d="M289.2,175.5c-2.6,0-5.1,0.3-7.5,0.8c-11.5,2.6-20,10.9-20,20.8c0,9.9,8.4,19.8,19.9,22.9l16.5-44
	C295.3,175.6,292.3,175.5,289.2,175.5z"/>
<path class="st24" d="M298.1,220.1c13.7-3,18.5-13,18.5-23c0-15-7.7-19.8-18.5-21.1l-16.5,44c2.4,0.7,4.9,1,7.6,1
	C292.5,221,295.5,220.7,298.1,220.1z"/>
<g>
	<path class="st12" d="M176.4,188.7c-0.9,0-1.8-0.4-2.5-1.1l-13.3-14.5c-1.3-1.4-1.2-3.6,0.2-4.8c1.4-1.3,3.6-1.2,4.8,0.2l13.3,14.5
		c1.3,1.4,1.2,3.6-0.2,4.8C178.1,188.4,177.3,188.7,176.4,188.7z"/>
	<path class="st12" d="M320.4,188.7c0.9,0,1.8-0.4,2.5-1.1l13.3-14.5c1.3-1.4,1.2-3.6-0.2-4.8c-1.4-1.3-3.6-1.2-4.8,0.2L317.9,183
		c-1.3,1.4-1.2,3.6,0.2,4.8C318.8,188.4,319.6,188.7,320.4,188.7z"/>
	<path class="st12" d="M254.5,196.8c0,15.1,15.5,30.1,34.7,30.1c26.1,0,34.7-15.1,34.7-30.1c0-23.9-15.5-27.2-34.7-27.2
		S254.5,181.8,254.5,196.8z M261.7,197.1c0-11.9,12.3-21.6,27.5-21.6s27.5,2.7,27.5,21.6c0,11.9-6.8,23.9-27.5,23.9
		C274,221,261.7,209,261.7,197.1z"/>
</g>
<path class="st10" d="M205.2,252.3c0,0,16-11.7,24.5-11.7c8.4,0,11.6,4.1,17.4,4.1v9.6c0,0-16.7-1.4-23.9,4.2
	C216,264,205.2,252.3,205.2,252.3z"/>
<path class="st10" d="M288.2,252.3c0,0-16-11.7-24.5-11.7s-11.6,4.1-17.4,4.1v9.6c0,0,16.7-1.4,23.8,4.2
	C277.3,264,288.2,252.3,288.2,252.3z"/>
<g>
	<path class="st9" d="M235.5,238.4c2,0.5,4.1,0.9,6.1,1.2c2,0.2,4.1,0.5,6.1,0.5c2,0,4.1-0.2,6.1-0.3c2-0.3,4.1-0.8,6.1-1.2
		c-1.8,2.2-4,3.1-6,4c-2,0.9-4.1,1.1-6.2,1.1s-4.1-0.3-6.2-1.2C239.5,241.5,237.3,240.4,235.5,238.4z"/>
</g>
<path class="st12" d="M206.9,169.6c-19.1,0-34.7,3.3-34.7,27.2c0,15.1,8.6,30.1,34.7,30.1c19.1,0,34.7-15.1,34.7-30.1
	S226.1,169.6,206.9,169.6z M206.9,221c-20.7,0-27.5-12-27.5-23.9c0-19,12.3-21.6,27.5-21.6s27.5,9.7,27.5,21.6
	C234.4,209,222.1,221,206.9,221z"/>
</svg>
