<?xml version="1.0" encoding="utf-8"?>
<!-- Generator: Adobe Illustrator 25.2.1, SVG Export Plug-In . SVG Version: 6.00 Build 0)  -->
<svg version="1.1" id="Layer_1" xmlns="http://www.w3.org/2000/svg" xmlns:xlink="http://www.w3.org/1999/xlink" x="0px" y="0px"
	 viewBox="0 0 496.2 496.2" style="enable-background:new 0 0 496.2 496.2;" xml:space="preserve">
<style type="text/css">
	.st0{fill:#EA4949;}
	.st1{fill:#E2A379;}
	.st2{fill:#62ABB7;}
	.st3{fill:#84D0D8;}
	.st4{fill:#F4B382;}
	.st5{fill:#FFFFFF;}
	.st6{fill:#00798B;}
	.st7{fill:#1E1E1E;}
	.st8{fill:#47200D;}
	.st9{fill:#D89364;}
	.st10{fill:#191919;}
	.st11{fill:#E5A173;}
</style>
<path class="st0" d="M496.2,248.1C496.2,111.1,385.1,0,248.1,0S0,111.1,0,248.1s111.1,248.1,248.1,248.1S496.2,385.1,496.2,248.1z"
	/>
<path class="st1" d="M248.1,496.2c70.2,0,133.6-29.2,178.7-76c-2.8-15.1-5.6-28.9-8.3-37.4c-8.5-27.3-81.2-49.3-170.8-49.3
	s-161.5,22-170,49.3c-2.6,8.5-5.5,22.2-8.3,37.4C114.5,467,177.9,496.2,248.1,496.2z"/>
<path class="st2" d="M418.5,382.8c-6.7-21.4-52.9-39.6-115.8-46.4L248.1,374l-54.7-37.8c-63,6.8-109.1,25-115.8,46.5
	c-2.6,8.5-5.5,22.2-8.3,37.4c45.1,46.9,108.5,76,178.7,76s133.6-29.2,178.7-76C424.1,405,421.2,391.2,418.5,382.8z"/>
<rect x="140.3" y="433.6" class="st3" width="63" height="10.5"/>
<path class="st1" d="M287,282.1h-77.8c12.1,36.6,1,53.3,1,53.3H286C286,335.4,274.9,318.7,287,282.1z"/>
<path class="st4" d="M336.4,175.2c0-92.4-39.5-113.6-88.3-113.6c-48.7,0-88.3,21.2-88.3,113.6c0,31.3,6.2,55.8,15.5,74.7
	c20.7,66.9,55.7,66.9,72.8,66.9s55.2-6,72.8-66.9C330.2,231,336.4,206.5,336.4,175.2z"/>
<path class="st5" d="M214.4,188.2c10.6,1,18.4,3.6,18.4,8.4s-8.2,5.9-18.4,5.9s-18.4-1.2-18.4-5.9S198,186.7,214.4,188.2z"/>
<ellipse class="st6" cx="214.3" cy="195.3" rx="8.3" ry="7.3"/>
<ellipse class="st7" cx="214.3" cy="195.3" rx="4.7" ry="4.1"/>
<ellipse class="st5" cx="210.3" cy="192.3" rx="1.8" ry="1.6"/>
<path class="st5" d="M298.8,196.6c0,4.7-8.2,5.9-18.4,5.9c-10.2,0-18.4-1.1-18.4-5.9s7.8-7.4,18.4-8.4
	C296.8,186.7,298.8,191.9,298.8,196.6z"/>
<ellipse class="st6" cx="280.5" cy="195.3" rx="8.3" ry="7.3"/>
<ellipse class="st7" cx="280.5" cy="195.3" rx="4.7" ry="4.1"/>
<ellipse class="st5" cx="276.5" cy="192.3" rx="1.8" ry="1.6"/>
<path class="st4" d="M209,213.5c0,0,43.2-25.9,25.5-16.9c-19.8,10.1-37.6,4.5-37.8,2.2L209,213.5z"/>
<path class="st4" d="M256.8,193.7c-0.3,2.3,17.3,12.4,38.7,6.5c12.7-3.4,8.9,1.8-3.9,6.5c-6.7,2.4-30.9,3.2-30.9,3.2L256.8,193.7z"
	/>
<g>
	<g>
		<path class="st8" d="M262.4,182.1c0.8-2.2,2.5-4,4.3-5.5c1-0.7,1.9-1.4,3.1-2c1.2-0.6,2.2-1.1,3.4-1.5c1.3-0.4,2.4-0.7,3.7-0.9
			c1.3-0.2,2.7-0.2,4-0.2c1.3,0.1,2.6,0.2,3.9,0.3c1.3,0.2,2.5,0.4,3.9,0.6c1.3,0.2,2.5,0.5,3.7,0.9c1.2,0.4,2.4,0.6,3.6,1.1
			c1.1,0.4,2.2,0.9,3.3,1.4c1.1,0.5,2,1.1,3,1.6c2,1,3.7,2.3,5.2,3.5c1.5,1.2,2.9,2.6,4.2,3.7c-0.2,0-0.3,0.1-0.5,0.1
			c-0.8-0.6-1.6-1.1-2.5-1.6c-0.8-0.6-1.6-1.1-2.6-1.5c-1.9-1-3.6-1.9-5.7-2.5c-1.1-0.3-2-0.7-3-1c-1-0.3-2.1-0.5-3.2-0.7
			c-1-0.3-2.1-0.4-3.2-0.5c-1.1-0.1-2.1-0.3-3.2-0.3c-1.1-0.1-2.1,0-3.1,0.1c-1,0.1-2,0.3-3.1,0.5c-1,0.1-2,0.4-3,0.6
			c-1,0.2-2,0.4-3,0.6c-0.5,0.1-1,0.1-1.5,0.4c-0.5,0.2-1,0.3-1.5,0.4c-1.1,0.2-2,0.5-3.1,0.9c-2.1,0.7-4.2,1.5-6.5,2.4
			C262.8,182.6,262.6,182.4,262.4,182.1z"/>
	</g>
</g>
<g>
	<path class="st8" d="M232.8,182.4c-4.4-0.6-8.3-1.4-12.1-1.9c-1.9-0.2-3.7-0.6-5.5-0.9c-1.9-0.3-3.8-0.6-5.7-0.8
		c-1.8-0.1-3.8-0.1-5.7-0.1c-1.8,0.1-3.8,0.3-5.5,0.6c-3.7,0.6-7,1.5-10.3,2.6l-0.6-0.4c2.5-1.7,5.4-3.3,9-4.3
		c3.5-1.1,7.6-1.8,11.7-2c2.1-0.1,4.5-0.2,6.6,0c2.2,0.2,4.6,0.5,6.6,1.1c2.2,0.7,4.3,1.4,6.3,2.3c1.9,0.9,3.8,2,5,3.4L232.8,182.4z
		"/>
</g>
<g>
	<path class="st9" d="M239.5,235.8c1.4,0.3,2.9,0.6,4.3,0.8c1.4,0.1,2.9,0.3,4.3,0.3c1.4,0,2.9-0.1,4.3-0.2c1.4-0.2,2.9-0.5,4.3-0.8
		c-1.3,1.4-2.8,2-4.2,2.6s-2.9,0.7-4.4,0.7s-2.9-0.2-4.4-0.8C242.3,237.8,240.8,237.1,239.5,235.8z"/>
</g>
<g>
	<path class="st10" d="M247.6,292.9h0.5C247.9,292.9,247.8,292.9,247.6,292.9L247.6,292.9z"/>
	<path class="st10" d="M248.6,292.9L248.6,292.9c-0.2,0-0.3,0-0.5,0H248.6z"/>
</g>
<g>
	<path class="st4" d="M170.4,238.7c-8.4,1.4-14.4,0.1-19.1-27.7s1.7-31.5,10.1-32.9L170.4,238.7z"/>
	<path class="st4" d="M325.9,238.7c8.4,1.4,8.4-0.9,13.2-28.7c4.8-27.8,4.2-30.5-4.2-31.9L325.9,238.7z"/>
</g>
<path class="st11" d="M274.8,263c0,2.6-11.9,9.5-26.7,9.5s-26.7-7-26.7-9.5c0-1.6,8.5-6.1,14.1-6.9c3.6-0.5,12.5,2.9,12.5,2.9
	s8.8-3.4,12.4-2.9C266.2,256.9,274.8,263,274.8,263z"/>
<path class="st9" d="M274.8,263c0,2.6-11.9,12.4-26.7,12.4s-26.7-9.9-26.7-12.4c0,0,10.9,1.3,26.7,1.3S274.8,263,274.8,263z"/>
<g>
	<path class="st8" d="M336.4,175.2c0-92.4-30.3-116.1-88.3-116.1s-88.3,23.7-88.3,116.1c0,0,16.3-34.1,28.3-53.1s38-18.3,38-18.3h49
		c0,0,27,0.3,34.5,18.3L336.4,175.2z"/>
	<path class="st8" d="M280.5,65.7c8.3,20-5.4,23.4-5.4,23.4h-36.7c0,0-28.7-8-24-30s57.8-28.9,57.8-28.9
		C272.2,50,260.7,65.7,280.5,65.7z"/>
	<path class="st8" d="M165.5,140.8c-4.2,10.9-5.6,24.4-5.6,37.5c0,0,8.8-1.9,8.8,2.6l2.8,27.6l3.9-1.9c-0.2-23,4.9-83.5,4.9-83.5
		L165.5,140.8z"/>
	<path class="st8" d="M330.8,140.8c4.2,10.9,5.6,24.4,5.6,37.5c0,0-8.8-1.9-8.8,2.6l-2.8,27.6l-3.9-1.9c0.2-23-4.9-81.7-4.9-81.7
		L330.8,140.8z"/>
</g>
<g>
	<path class="st5" d="M311.5,337.4L311.5,337.4L311.5,337.4L311.5,337.4z"/>
	<path class="st5" d="M298.5,335.9L298.5,335.9L298.5,335.9z"/>
</g>
</svg>
