<?xml version="1.0" encoding="utf-8"?>
<!-- Generator: Adobe Illustrator 25.2.0, SVG Export Plug-In . SVG Version: 6.00 Build 0)  -->
<svg version="1.1" id="Layer_1" xmlns="http://www.w3.org/2000/svg" xmlns:xlink="http://www.w3.org/1999/xlink" x="0px" y="0px"
	 viewBox="0 0 496.2 496.2" style="enable-background:new 0 0 496.2 496.2;" xml:space="preserve">
<style type="text/css">
	.st0{fill:#337180;}
	.st1{fill:#9AE8F4;}
	.st2{fill:#7AC6CE;}
	.st3{fill:#019897;}
	.st4{fill:#E2A379;}
	.st5{fill:#F4B382;}
	.st6{fill:#30302E;}
	.st7{fill:#FFFFFF;}
	.st8{fill:#738FA0;}
	.st9{fill:#3D3D3D;}
	.st10{fill:#E4F0F2;}
</style>
<path class="st0" d="M496.2,246c0-137-111.1-248.1-248.1-248.1S0,109,0,246s111.1,248.1,248.1,248.1S496.2,383,496.2,246z"/>
<path class="st1" d="M247.8,333.4c-77.2,0-139.1,22.1-146.4,49.3c-3.3,12.2-7,35.2-10.1,57.5c42.7,34.9,97.4,55.9,156.9,55.9
	s114.1-21,156.9-55.9c-3.2-22.3-6.9-45.4-10.1-57.5C387.5,355.5,324.9,333.4,247.8,333.4z"/>
<rect x="140.3" y="433.6" class="st2" width="63" height="10.5"/>
<path class="st3" d="M338.5,411.1c-5.6-3.1-10.4,1.8-14.4,1.8c-4.9,0-8.8-5-14.4-1.8c-5.7,3.2-11.6,8.2-2.1,22
	c0,0,0.8,27.1,6.3,32.6c0,0,3,0.4,3-6.8c0,0-2.4-19.3,7.2-19.9c9.6,0.5,7.2,19.9,7.2,19.9c0,7.2,3,6.8,3,6.8
	c5.5-5.5,6.3-32.6,6.3-32.6C350.2,419.4,344.3,414.3,338.5,411.1z"/>
<path class="st4" d="M287,282.1h-77.8c12.1,36.6,1,53.3,1,53.3l26.9,12.9h22l26.9-12.9C286,335.4,274.9,318.7,287,282.1z"/>
<path class="st5" d="M327.9,175.2c0-92.4-35.7-113.6-79.8-113.6c-44,0-79.8,21.2-79.8,113.6c0,31.3,5.6,55.8,14,74.7
	c18.4,41.6,50.3,56.1,65.8,56.1s47.3-14.5,65.8-56.1C322.3,231,327.9,206.5,327.9,175.2z"/>
<g>
	<path class="st6" d="M194.1,75.1c0-20.4,24.2-36.9,54-36.9s54,16.5,54,36.9s-24.2,19-54,19S194.1,95.5,194.1,75.1z"/>
	<path class="st6" d="M248.1,61.6c-48.7,0-82.7,25.6-82.7,118c0,0,82.7-45.9,82.7-79.5V61.6z"/>
	<path class="st6" d="M248,61.6c48.7,0,82.8,25.6,82.8,118c0,0-82.7-45.9-82.7-79.5L248,61.6z"/>
</g>
<path class="st4" d="M210.2,335.4c0,0-14.8,28.4,37.6,28.4s38.2-28.4,38.2-28.4L247.8,317L210.2,335.4z"/>
<g>
	<polygon class="st3" points="305.8,337.8 287.9,322.3 248.1,363.9 284.7,374.1 	"/>
	<polygon class="st3" points="190.4,337.8 208.3,322.3 248.1,363.9 211.5,374.1 	"/>
</g>
<g>
	<path class="st5" d="M160.7,207.7c4.3,25.2,9.6,26.3,17.3,25l-8.1-54.8C162.2,179.3,156.4,182.6,160.7,207.7z"/>
	<path class="st5" d="M326.5,178l-8.1,54.8c7.6,1.3,13,0.1,17.3-25C339.9,182.6,334.1,179.3,326.5,178z"/>
</g>
<g>
	<path class="st6" d="M174.8,183.1c-0.4-2.7-0.5-5.2-0.4-7.1c0.1-2.9,0.5-4.7,0.5-4.7l-9.4,3.5c0,1.4,0,2.9,0,4.3c0,0,1-0.3,2.8-0.9
		c-0.1,0-0.2,0.1-0.3,0.1c1.3,2.2,2.9,5.6,4.5,10.5C172.4,188.8,176.1,191.5,174.8,183.1z"/>
	<path class="st6" d="M321.9,176c0.1,2,0,4.4-0.4,7.1c-1.3,8.4,2.3,5.7,2.3,5.7c1.5-5,3.2-8.3,4.4-10.5c1.6,0.6,2.5,0.8,2.5,0.8
		c0-1.5,0-2.9,0-4.3l-9.3-3.5C321.4,171.3,321.8,173.1,321.9,176"/>
</g>
<path class="st7" d="M214.4,188.2c10.6,1,18.4,3.6,18.4,8.4s-8.2,5.9-18.4,5.9s-18.4-1.2-18.4-5.9S198,186.7,214.4,188.2z"/>
<ellipse class="st8" cx="214.3" cy="195.3" rx="8.3" ry="7.3"/>
<ellipse class="st9" cx="214.3" cy="195.3" rx="4.7" ry="4.1"/>
<ellipse class="st7" cx="210.3" cy="192.3" rx="1.8" ry="1.6"/>
<path class="st7" d="M298.8,196.6c0,4.7-8.2,5.9-18.4,5.9c-10.2,0-18.4-1.1-18.4-5.9s7.8-7.4,18.4-8.4
	C296.8,186.7,298.8,191.9,298.8,196.6z"/>
<ellipse class="st8" cx="280.5" cy="195.3" rx="8.3" ry="7.3"/>
<ellipse class="st9" cx="280.5" cy="195.3" rx="4.7" ry="4.1"/>
<ellipse class="st7" cx="276.5" cy="192.3" rx="1.8" ry="1.6"/>
<path class="st5" d="M194.6,195.8c-0.3-2.3,16.1-8.6,37.5-2.6c19.2,5.4-28.3-14.2-28.3-14.2L194.6,195.8z"/>
<path class="st5" d="M301.7,196.9c0.3-2.3-17.4-9.1-38.7-3c-12.6,3.6-9-5,3.9-9.8c6.7-2.5,30.9-3.4,30.9-3.4L301.7,196.9z"/>
<g>
	<path class="st10" d="M310.9,218.2c-0.3,0-0.6-0.1-0.8-0.2c-1-0.5-1.4-1.7-1-2.7l15.4-40.7c0.5-1,1.7-1.4,2.7-1
		c1,0.5,1.4,1.7,1,2.7L312.8,217C312.4,217.7,311.7,218.2,310.9,218.2z"/>
	<path class="st10" d="M184.9,218.2c-0.8,0-1.5-0.4-1.8-1.2l-15-40.7c-0.5-1,0-2.2,1-2.7s2.2,0,2.7,1l15,40.7c0.5,1,0,2.2-1,2.7
		C185.4,218.1,185.1,218.2,184.9,218.2z"/>
	<path class="st10" d="M314.2,213.7l-66.1-12.3L182,213.7v35.4h0.1c0.1,0.2,0.1,0.5,0.2,0.8c18.4,41.6,50.3,56.1,65.8,56.1
		s47.3-14.5,65.8-56.1c0.1-0.3,0.2-0.5,0.2-0.8h0.1L314.2,213.7L314.2,213.7z"/>
</g>
<g>
	<path class="st6" d="M264.5,180.7c1.5-1.2,3.4-2,5.3-2.7c1-0.3,1.9-0.6,3-0.8s2-0.4,3.1-0.5c1.1-0.1,2.1-0.2,3.2-0.2
		c1.1,0,2.2,0.1,3.3,0.2l3.2,0.5c1.1,0.2,2.1,0.4,3.2,0.6c1.1,0.2,2.1,0.4,3.1,0.7c1,0.3,2.1,0.4,3.1,0.8l2.9,1
		c1,0.4,1.8,0.8,2.8,1.2c1.9,0.7,3.6,1.7,5.2,2.6c1.6,0.9,3.2,2.1,4.7,3.1l-0.4,0.4l-2.7-1.1c-0.9-0.4-1.7-0.8-2.7-1
		c-1.9-0.6-3.6-1.3-5.6-1.6c-1-0.2-1.9-0.5-2.8-0.7l-2.9-0.5c-0.9-0.2-1.9-0.3-2.9-0.4c-1-0.1-1.9-0.3-2.9-0.3
		c-1-0.1-1.9-0.1-2.8-0.1l-2.8,0.1c-0.9,0-1.9,0.1-2.8,0.1s-1.9,0-2.8-0.1c-0.5,0-0.9-0.1-1.4,0c-0.5,0-0.9,0-1.4,0
		c-1-0.1-1.9-0.1-2.9-0.1c-2-0.1-4-0.2-6.2-0.4L264.5,180.7z"/>
</g>
<g>
	<path class="st6" d="M233,179.8c-4.4-0.1-8.4-0.4-12.2-0.5c-1.9,0-3.7-0.2-5.6-0.3c-1.9-0.1-3.8-0.2-5.7-0.1
		c-1.8,0.1-3.8,0.3-5.7,0.6c-1.8,0.3-3.7,0.7-5.4,1.2c-3.6,1-6.8,2.3-9.9,3.8l-0.6-0.3c2.3-2,5-3.9,8.4-5.3
		c3.3-1.5,7.3-2.7,11.4-3.3c2.1-0.3,4.4-0.7,6.6-0.8c2.2-0.1,4.6,0,6.7,0.3c2.3,0.4,4.4,0.9,6.5,1.6c2,0.7,4,1.5,5.4,2.8L233,179.8z
		"/>
</g>
</svg>
