<?xml version="1.0" encoding="utf-8"?>
<!-- Generator: Adobe Illustrator 25.2.1, SVG Export Plug-In . SVG Version: 6.00 Build 0)  -->
<svg version="1.1" id="Layer_1" xmlns="http://www.w3.org/2000/svg" xmlns:xlink="http://www.w3.org/1999/xlink" x="0px" y="0px"
	 viewBox="0 0 496.2 496.2" style="enable-background:new 0 0 496.2 496.2;" xml:space="preserve">
<style type="text/css">
	.st0{fill:#EA4949;}
	.st1{fill:#E2A379;}
	.st2{fill:#2B1407;}
	.st3{fill:#8BACAF;}
	.st4{fill:#E9F2F4;}
	.st5{fill:#019897;}
	.st6{fill:#C9DEE2;}
	.st7{fill:#F4B382;}
	.st8{fill:#47200D;}
	.st9{fill:#E6E7E8;}
	.st10{fill:#D61E1E;}
	.st11{fill:#B74E39;}
	.st12{fill:#AA4035;}
	.st13{fill:#FFFFFF;}
	.st14{fill:#6799A0;}
	.st15{fill:#1E1E1E;}
	.st16{fill:#D89364;}
</style>
<path class="st0" d="M496.2,248.1C496.2,111.1,385.1,0,248.1,0S0,111.1,0,248.1s111.1,248.1,248.1,248.1S496.2,385.1,496.2,248.1z"
	/>
<g>
	<path class="st1" d="M287,282.1h-77.8c12.1,36.6,1,53.3,1,53.3l26.9,6.1h22l26.9-6.1C286,335.4,274.9,318.7,287,282.1z"/>
	<path class="st1" d="M248.2,390.1c44.9,0,37.8-54.7,37.8-54.7s-8.9,17.3-38.1,17.3s-37.5-17.3-37.5-17.3S203.3,390.1,248.2,390.1z"
		/>
	<path class="st1" d="M247.8,333.4c-77.2,0-139.1,22.1-146.4,49.3c-3.3,12.2-7,35.2-10.1,57.5c42.7,34.9,97.4,55.9,156.9,55.9
		s114.1-21,156.9-55.9c-3.2-22.3-6.9-45.4-10.1-57.5C387.5,355.5,324.9,333.4,247.8,333.4z"/>
</g>
<rect x="168.3" y="134.7" class="st2" width="160.5" height="255"/>
<rect x="203.1" y="324.9" class="st3" width="90.2" height="20.7"/>
<path class="st4" d="M247.8,333.4c-77.2,0-139.1,22.1-146.4,49.3c-3.3,12.2-7,35.2-10.1,57.5c42.7,34.9,97.4,55.9,156.9,55.9
	s114.1-21,156.9-55.9c-3.2-22.3-6.9-45.4-10.1-57.5C387.5,355.5,324.9,333.4,247.8,333.4z"/>
<path class="st5" d="M247.8,350.4c-15.8,0-31,0.9-45.2,2.6c-55.1,6.6,45.5,114.5,45.5,114.5s100-108,44.5-114.6
	C278.5,351.3,263.4,350.4,247.8,350.4z"/>
<path class="st1" d="M247.8,333.4c-15.8,0-31,0.9-45.2,2.6c-55.1,6.6,0.2,61,45.5,61s100-54.5,44.5-61.1
	C278.5,334.3,263.4,333.4,247.8,333.4z"/>
<rect x="140.3" y="433.6" class="st6" width="63" height="10.5"/>
<path class="st1" d="M287,282.1h-77.8c12.1,36.6,1,53.3,1,53.3H286C286,335.4,274.9,318.7,287,282.1z"/>
<g>
	<polygon class="st6" points="358,351.6 293.3,324.9 248.1,469.1 347.3,380.8 319,362.1 335.5,362.1 	"/>
	<polygon class="st6" points="138.1,351.6 203.1,324.9 248.1,469.1 151.1,378.3 177.1,362.1 160.6,362.1 	"/>
</g>
<g>
	<path class="st7" d="M327.9,175.2c0-92.4-35.7-113.6-79.8-113.6c-44,0-79.8,21.2-79.8,113.6c0,31.3,5.6,55.8,14,74.7
		c18.4,41.6,50.3,56.1,65.8,56.1s47.3-14.5,65.8-56.1C322.3,231,327.9,206.5,327.9,175.2z"/>
	<path class="st7" d="M160.7,207.7c4.3,25.2,9.6,26.3,17.3,25l-8.1-54.8C162.2,179.3,156.4,182.6,160.7,207.7z"/>
	<path class="st7" d="M326.5,178l-8.1,54.8c7.6,1.3,13,0.1,17.3-25C339.9,182.6,334.1,179.3,326.5,178z"/>
</g>
<g>
	<path class="st8" d="M297.9,76.3c-59.7,43.4-118.7,102.3-124.8,157.4c-2.4,21.8,18.8,46.5,26,58.8c6.7,11.2,13.2,31.5,15.8,37.7
		c26.2,62.7-43.7,76.2-43.7,76.2l-1.9,1c0,0,30.1-9.9-5.7-67.6c-5.6-8.9-23-29.4-21.5-56c1.5-27,20.9-31.8,19-49
		c-1.8-16.4-21.9-40.7-20-58.2c3.9-36.6,17.8-74.1,49.3-105.8L297.9,76.3z"/>
	<path class="st8" d="M248.1,54.4L248.1,54.4L248.1,54.4L248.1,54.4L248.1,54.4c-48.7,0-88.3,9.9-88.3,102.3
		c0,0,88.2-22.6,88.2-56.2C248,99.7,248.1,54.4,248.1,54.4z"/>
	<path class="st8" d="M222.1,102.7c4.3,15.3,20.7,15.3,34.5,26.6c37.6,30.6,63.2,70.5,67,104.4c2.4,21.8-18.8,46.5-26,58.8
		c-6.7,11.2-13.2,31.5-15.8,37.7c-26.2,62.7,43.5,76.7,43.5,76.7l2.1,0.4c0,0-30.1-9.9,5.7-67.6c5.6-8.9,23-29.4,21.5-56
		c-1.5-27-20.9-31.8-19-49c1.8-16.4,21.9-40.7,20-58.2c-3.9-36.6-12.8-75.1-44.2-102.8c-8.2-7.2-18-19.2-63.3-19.2
		C248.1,54.4,215,77.5,222.1,102.7z"/>
</g>
<path class="st9" d="M248.1,59.1c-78.7,0-79.1,80.1-79.1,80l-0.1,0.1c0,0,0.1-0.1,0.1,0s28.3-24.1,79.1-24.1s79.1,24.1,79.1,24.1
	h0.1l-0.1-0.1C327.2,139.2,326.8,59.1,248.1,59.1z"/>
<circle class="st10" cx="248.1" cy="87.1" r="23.3"/>
<g>
	<rect x="232.1" y="82.8" class="st9" width="32.1" height="8.5"/>
	<rect x="243.8" y="71.1" class="st9" width="8.5" height="32.1"/>
</g>
<path class="st11" d="M274.8,263.8c0,0-14.2,9.6-26.7,9.6s-26.7-9.6-26.7-9.6c0-1.4,11.3-5.3,16.1-6c3-0.5,10.6,2.5,10.6,2.5
	s7.5-2.9,10.4-2.5C263.4,258.5,274.8,263.8,274.8,263.8z"/>
<path class="st12" d="M274.8,263.8c0,0-14.2,13.5-26.7,13.5s-26.7-13.5-26.7-13.5s6.5,1.5,19.6,0.7c2.2-0.1,5.1,1.6,7,1.6
	c1.7,0,4.2-1.8,6.1-1.7C267.9,265.2,274.8,263.8,274.8,263.8z"/>
<path class="st13" d="M213.2,189c10.6,1,18.4,3.6,18.4,8.4s-8.2,5.9-18.4,5.9c-10.2,0-18.4-1.2-18.4-5.9S196.8,187.5,213.2,189z"/>
<ellipse class="st14" cx="213.1" cy="196.1" rx="8.3" ry="7.3"/>
<ellipse class="st15" cx="213.1" cy="196.1" rx="4.7" ry="4.1"/>
<ellipse class="st13" cx="209.1" cy="193.1" rx="1.8" ry="1.6"/>
<path class="st13" d="M297.6,197.4c0,4.7-8.2,5.9-18.4,5.9c-10.2,0-18.4-1.1-18.4-5.9s7.8-7.4,18.4-8.4
	C295.6,187.5,297.6,192.7,297.6,197.4z"/>
<ellipse class="st14" cx="279.3" cy="196.1" rx="8.3" ry="7.3"/>
<ellipse class="st15" cx="279.3" cy="196.1" rx="4.7" ry="4.1"/>
<ellipse class="st13" cx="275.3" cy="193.1" rx="1.8" ry="1.6"/>
<path class="st7" d="M192.3,192.8c0.1-2.3,17.8-8.2,37.8,1.5c17.9,8.7-25.8-16.4-25.8-16.4L192.3,192.8z"/>
<path class="st7" d="M301.3,194.7c0-2.3-18.8-10-39.2-1.3c-12.1,5.1-9.1-0.6,3-7c6.3-3.3,30.2-7.3,30.2-7.3L301.3,194.7z"/>
<g>
	<path class="st8" d="M263.3,181.5c1.5-1.2,3.4-2,5.3-2.7c1-0.3,1.9-0.6,3-0.8s2-0.4,3.1-0.5s2.1-0.2,3.2-0.2s2.2,0.1,3.3,0.2
		l3.2,0.5c1.1,0.2,2.1,0.4,3.2,0.6c1.1,0.2,2.1,0.4,3.1,0.7s2.1,0.4,3.1,0.8l2.9,1c1,0.4,1.8,0.8,2.8,1.2c1.9,0.7,3.6,1.7,5.2,2.6
		c1.6,0.9,3.2,2.1,4.7,3.1l-0.4,0.4l-2.7-1.1c-0.9-0.4-1.7-0.8-2.7-1c-1.9-0.6-3.6-1.3-5.6-1.6c-1-0.2-1.9-0.5-2.8-0.7l-2.9-0.5
		c-0.9-0.2-1.9-0.3-2.9-0.4c-1-0.1-1.9-0.3-2.9-0.3c-1-0.1-1.9-0.1-2.8-0.1l-2.8,0.1c-0.9,0-1.9,0.1-2.8,0.1s-1.9,0-2.8-0.1
		c-0.5,0-0.9-0.1-1.4,0c-0.5,0-0.9,0-1.4,0c-1-0.1-1.9-0.1-2.9-0.1c-2-0.1-4-0.2-6.2-0.4L263.3,181.5z"/>
</g>
<g>
	<path class="st8" d="M231.8,180.6c-4.4-0.1-8.4-0.4-12.2-0.5c-1.9,0-3.7-0.2-5.6-0.3c-1.9-0.1-3.8-0.2-5.7-0.1
		c-1.8,0.1-3.8,0.3-5.7,0.6c-1.8,0.3-3.7,0.7-5.4,1.2c-3.6,1-6.8,2.3-9.9,3.8l-0.6-0.3c2.3-2,5-3.9,8.4-5.3
		c3.3-1.5,7.3-2.7,11.4-3.3c2.1-0.3,4.4-0.7,6.6-0.8s4.6,0,6.7,0.3c2.3,0.4,4.4,0.9,6.5,1.6c2,0.7,4,1.5,5.4,2.8L231.8,180.6z"/>
</g>
<g>
	<path class="st16" d="M238.3,241.6c1.4,0.3,2.9,0.6,4.3,0.8c1.4,0.1,2.9,0.3,4.3,0.3c1.4,0,2.9-0.1,4.3-0.2
		c1.4-0.2,2.9-0.5,4.3-0.8c-1.3,1.4-2.8,2-4.2,2.6s-2.9,0.7-4.4,0.7s-2.9-0.2-4.4-0.8C241.1,243.6,239.6,242.9,238.3,241.6z"/>
</g>
</svg>
