<?xml version="1.0" encoding="utf-8"?>
<!-- Generator: Adobe Illustrator 25.2.1, SVG Export Plug-In . SVG Version: 6.00 Build 0)  -->
<svg version="1.1" id="Layer_1" xmlns="http://www.w3.org/2000/svg" xmlns:xlink="http://www.w3.org/1999/xlink" x="0px" y="0px"
	 viewBox="0 0 496.2 496.2" style="enable-background:new 0 0 496.2 496.2;" xml:space="preserve">
<style type="text/css">
	.st0{fill:#32BEA6;}
	.st1{fill:#E2A379;}
	.st2{fill:#141414;}
	.st3{fill:#DEE0E2;}
	.st4{fill:#F3FAFF;}
	.st5{fill:#DADDE0;}
	.st6{fill:#F4B382;}
	.st7{fill:#CC785E;}
	.st8{fill:#C16952;}
	.st9{fill:#FFFFFF;}
	.st10{fill:#00798B;}
	.st11{fill:#1E1E1E;}
	.st12{fill:#47200D;}
	.st13{fill:#D89364;}
	.st14{opacity:0.81;fill:#BAE5D2;}
	.st15{opacity:0.69;fill:#D1EDDF;}
	.st16{opacity:0.81;fill:#D0EBE2;}
	.st17{fill:#E8D3BB;}
	.st18{fill:none;stroke:#301E19;stroke-width:6.487;stroke-linecap:round;stroke-linejoin:round;stroke-miterlimit:10;}
</style>
<path class="st0" d="M496.2,248.1C496.2,111.1,385.1,0,248.1,0S0,111.1,0,248.1s111.1,248.1,248.1,248.1S496.2,385.1,496.2,248.1z"
	/>
<g>
	<path class="st1" d="M287,282.1h-77.8c12.1,36.6,1,53.3,1,53.3l26.9,6.1h22l26.9-6.1C286,335.4,274.9,318.7,287,282.1z"/>
	<path class="st1" d="M248.2,390.1c44.9,0,37.8-54.7,37.8-54.7s-8.9,17.3-38.1,17.3s-37.5-17.3-37.5-17.3S203.3,390.1,248.2,390.1z"
		/>
	<path class="st1" d="M247.8,333.4c-77.2,0-139.1,22.1-146.4,49.3c-3.3,12.2-7,35.2-10.1,57.5c42.7,34.9,97.4,55.9,156.9,55.9
		s114.1-21,156.9-55.9c-3.2-22.3-6.9-45.4-10.1-57.5C387.5,355.5,324.9,333.4,247.8,333.4z"/>
</g>
<polygon class="st2" points="349.1,408.1 147.1,408.1 159.8,153.1 335.2,132.6 "/>
<rect x="205.1" y="324.9" class="st3" width="86" height="25"/>
<path class="st4" d="M247.8,333.4c-77.2,0-139.1,22.1-146.4,49.3c-3.3,12.2-7,35.2-10.1,57.5c42.7,34.9,97.4,55.9,156.9,55.9
	s114.1-21,156.9-55.9c-3.2-22.3-6.9-45.4-10.1-57.5C387.5,355.5,324.9,333.4,247.8,333.4z"/>
<g>
	<path class="st5" d="M293.9,336.2c-14.5-1.8-30-2.7-46.1-2.7c-15.9,0-31.2,0.9-45.5,2.7l45.8,91L293.9,336.2z"/>
	<path class="st5" d="M168.1,357.2l37-32.3l32,63.9c0,0-25.2,7.1-25.5,6.8L168.1,357.2z"/>
	<path class="st5" d="M328.1,357.2l-37-32.3l-32,63.9c0,0,25.2,7.1,25.5,6.8L328.1,357.2z"/>
</g>
<g>
	<path class="st1" d="M248.1,412.1l-37.8-76.8c0,0,9.2-12.4,37.4-12.4s38.1,12.5,38.1,12.5L248.1,412.1z"/>
	<path class="st1" d="M287,282.1h-77.8c12.1,36.6,1,53.3,1,53.3s16.4,6.1,37.9,6.1s37.9-6.1,37.9-6.1S274.9,318.7,287,282.1z"/>
</g>
<path class="st6" d="M327.9,175.2c0-92.4-35.7-113.6-79.8-113.6c-44,0-79.8,21.2-79.8,113.6c0,31.3,5.6,55.8,14,74.7
	c18.4,41.6,50.3,56.1,65.8,56.1c15.4,0,47.3-14.5,65.8-56.1C322.3,231,327.9,206.5,327.9,175.2z"/>
<g>
	<path class="st2" d="M288.7,71.1C272.5,54,237,58.7,237,58.7l0,0l0,0l0,0c-68.8,0-75.9,73.9-75.9,73.9l-1.3,20.5
		c0,14.2,7.6,31.8,15,49.3c0,0-1.5-57.7,33.1-73.1s92.1-11.7,89.6-29.4C297.4,99,299,82.1,288.7,71.1z"/>
	<path class="st2" d="M269.8,60.1c10.6-4.9,35.7,7.6,48.3,26.3c6.7,9.9,14.5,25,17.1,46.2c0,0,0.3,42.3-10.2,68.5
		c0,0-30.2-87.3-63.1-124.6C262,76,263,63.3,269.8,60.1z"/>
</g>
<g>
	<path class="st6" d="M160.7,207.7c4.3,25.2,9.6,26.3,17.3,25l-8.1-54.8C162.2,179.3,156.4,182.6,160.7,207.7z"/>
	<path class="st6" d="M326.5,178l-8.1,54.8c7.6,1.3,13,0.1,17.3-25C339.9,182.6,334.1,179.3,326.5,178z"/>
</g>
<path class="st7" d="M274.8,263.8c0,0-14.2,9.6-26.7,9.6s-26.7-9.6-26.7-9.6c0-1.4,11.3-5.3,16.1-6c3-0.5,10.6,2.5,10.6,2.5
	s7.5-2.9,10.4-2.5C263.4,258.5,274.8,263.8,274.8,263.8z"/>
<path class="st8" d="M274.8,263.8c0,0-14.2,13.5-26.7,13.5s-26.7-13.5-26.7-13.5s6.5,1.5,19.6,0.7c2.2-0.1,5.1,1.6,7,1.6
	c1.7,0,4.2-1.8,6.1-1.7C267.9,265.2,274.8,263.8,274.8,263.8z"/>
<path class="st9" d="M212.9,191c10.6,1,18.4,3.6,18.4,8.4s-8.2,5.9-18.4,5.9s-18.4-1.2-18.4-5.9S196.5,189.5,212.9,191z"/>
<ellipse class="st10" cx="212.8" cy="198.1" rx="8.3" ry="7.3"/>
<ellipse class="st11" cx="212.8" cy="198.1" rx="4.7" ry="4.1"/>
<ellipse class="st9" cx="208.8" cy="195.1" rx="1.8" ry="1.6"/>
<path class="st9" d="M297.3,199.4c0,4.7-8.2,5.9-18.4,5.9c-10.2,0-18.4-1.1-18.4-5.9s7.8-7.4,18.4-8.4
	C295.3,189.5,297.3,194.7,297.3,199.4z"/>
<ellipse class="st10" cx="279" cy="198.1" rx="8.3" ry="7.3"/>
<ellipse class="st11" cx="279" cy="198.1" rx="4.7" ry="4.1"/>
<ellipse class="st9" cx="275" cy="195.1" rx="1.8" ry="1.6"/>
<path class="st6" d="M207.4,216.3c0,0,43.2-25.9,25.5-16.9c-19.8,10.1-37.6,4.5-37.8,2.2L207.4,216.3z"/>
<path class="st6" d="M255.3,196.6c-0.3,2.3,17.3,12.4,38.7,6.5c12.7-3.4,8.9,1.8-3.9,6.5c-6.7,2.4-30.9,3.2-30.9,3.2L255.3,196.6z"
	/>
<g>
	<g>
		<path class="st12" d="M260.9,184.9c0.8-2.2,2.5-4,4.3-5.5c1-0.7,1.9-1.4,3.1-2c1.2-0.6,2.2-1.1,3.4-1.5c1.3-0.4,2.4-0.7,3.7-0.9
			c1.3-0.2,2.7-0.2,4-0.2c1.3,0.1,2.6,0.2,3.9,0.3c1.3,0.2,2.5,0.4,3.9,0.6c1.3,0.2,2.5,0.5,3.7,0.9c1.2,0.4,2.4,0.6,3.6,1.1
			c1.1,0.4,2.2,0.9,3.3,1.4c1.1,0.5,2,1.1,3,1.6c2,1,3.7,2.3,5.2,3.5c1.5,1.2,2.9,2.6,4.2,3.7c-0.2,0-0.3,0.1-0.5,0.1
			c-0.8-0.5-1.6-1.1-2.5-1.6c-0.8-0.6-1.6-1.1-2.6-1.5c-1.9-1-3.6-1.9-5.7-2.5c-1.1-0.3-2-0.7-3-1c-1-0.3-2.1-0.5-3.2-0.7
			c-1-0.3-2.1-0.4-3.2-0.5c-1.1-0.1-2.1-0.3-3.2-0.3c-1.1-0.1-2.1,0-3.1,0.1c-1,0.1-2,0.3-3.1,0.5c-1,0.1-2,0.4-3,0.6
			c-1,0.2-2,0.4-3,0.6c-0.5,0.1-1,0.1-1.5,0.4c-0.5,0.2-1,0.3-1.5,0.4c-1.1,0.2-2,0.5-3.1,0.9c-2.1,0.7-4.2,1.5-6.5,2.4
			C261.2,185.5,261,185.2,260.9,184.9z"/>
	</g>
</g>
<g>
	<path class="st12" d="M231.3,185.2c-4.4-0.6-8.3-1.4-12.1-1.9c-1.9-0.2-3.7-0.6-5.5-0.9c-1.9-0.3-3.8-0.6-5.7-0.8
		c-1.8-0.1-3.8-0.1-5.7-0.1c-1.8,0.1-3.8,0.3-5.5,0.6c-3.7,0.6-7,1.5-10.3,2.6l-0.6-0.4c2.5-1.7,5.4-3.3,9-4.3
		c3.5-1.1,7.6-1.8,11.7-2c2.1-0.1,4.5-0.2,6.6,0c2.2,0.2,4.6,0.5,6.6,1.1c2.2,0.7,4.3,1.4,6.3,2.3c1.9,0.9,3.8,2,5,3.4L231.3,185.2z
		"/>
</g>
<g>
	<path class="st13" d="M238,238.6c1.4,0.3,2.9,0.6,4.3,0.8c1.4,0.1,2.9,0.3,4.3,0.3c1.4,0,2.9-0.1,4.3-0.2c1.4-0.2,2.9-0.5,4.3-0.8
		c-1.3,1.4-2.8,2-4.2,2.6s-2.9,0.7-4.4,0.7s-2.9-0.2-4.4-0.8C240.8,240.6,239.3,239.9,238,238.6z"/>
</g>
<g>
	<path class="st14" d="M182.2,228.7h46.1c9.4,0,10.5-27.4,18-31.1l-72.7,22.5C173.6,224.9,177.5,228.7,182.2,228.7z"/>
	<path class="st14" d="M247.4,197.3c0.2,0,0.4-0.1,0.6-0.1c9.1,0,9.8,31.5,19.7,31.5h46.1c4.8,0,8.6-3.9,8.6-8.6v-46L247.4,197.3z"
		/>
	<path class="st15" d="M247.4,197.3c-0.4,0.1-0.8,0.2-1.1,0.3L247.4,197.3z"/>
	<path class="st15" d="M322.4,174L322.4,174h0.2c0-4.4-3.4-8.1-7.7-8.6C319.2,165.9,322.6,169.6,322.4,174z"/>
	<path class="st16" d="M322.4,174c0.2-4.4-3.2-8.1-7.5-8.6c-0.3,0-0.6,0-0.9,0H182.2c-4.8,0-8.6,3.9-8.6,8.6v46.1l72.7-22.5
		c0.4-0.2,0.7-0.3,1.1-0.3L322.4,174L322.4,174z"/>
</g>
<path class="st17" d="M314,229.2h-46.1c-5.3,0-8-8.4-10.7-16.5c-2.4-7.4-4.9-15-9.1-15c-4.2,0-6.6,7.6-9,14.9
	c-2.6,8.2-5.3,16.6-10.8,16.6h-46.1c-5,0-9-4-9-9v-46.1c0-5,4-9,9-9h131.7c5,0,9,4,9,9v46.1C323,225.1,318.9,229.2,314,229.2z
	 M248.1,196.9c4.7,0,7.2,7.5,9.7,15.5c2.6,7.9,5.2,16,10,16h46.1c4.6,0,8.3-3.7,8.3-8.3V174c0-4.6-3.7-8.3-8.3-8.3H182.2
	c-4.6,0-8.3,3.7-8.3,8.3v46.1c0,4.6,3.7,8.3,8.3,8.3h46.1c4.9,0,7.5-8.2,10.1-16.1S243.4,196.9,248.1,196.9z"/>
<path class="st18" d="M314,165.4H182.2c-4.8,0-8.6,3.9-8.6,8.6v46.1c0,4.8,3.9,8.6,8.6,8.6h46.1c10.1,0,10.6-31.5,19.7-31.5
	s9.8,31.5,19.7,31.5h46.1c4.8,0,8.6-3.9,8.6-8.6V174C322.6,169.3,318.7,165.4,314,165.4z"/>
</svg>
