<?xml version="1.0" encoding="utf-8"?>
<!-- Generator: Adobe Illustrator 25.2.1, SVG Export Plug-In . SVG Version: 6.00 Build 0)  -->
<svg version="1.1" id="Layer_1" xmlns="http://www.w3.org/2000/svg" xmlns:xlink="http://www.w3.org/1999/xlink" x="0px" y="0px"
	 viewBox="0 0 496.2 496.2" style="enable-background:new 0 0 496.2 496.2;" xml:space="preserve">
<style type="text/css">
	.st0{fill:#32BEA6;}
	.st1{fill:#E2A379;}
	.st2{fill:#663526;}
	.st3{fill:#DEE0E2;}
	.st4{fill:#295D66;}
	.st5{fill:#DADDE0;}
	.st6{fill:#F4B382;}
	.st7{fill:#CC785E;}
	.st8{fill:#C16952;}
	.st9{fill:#D89364;}
	.st10{fill:#FFFFFF;}
	.st11{fill:#6A4100;}
	.st12{fill:#1E1E1E;}
	.st13{fill:#141414;}
	.st14{fill:#F9F9F9;}
</style>
<path class="st0" d="M496.2,248.1C496.2,111.1,385.1,0,248.1,0S0,111.1,0,248.1s111.1,248.1,248.1,248.1S496.2,385.1,496.2,248.1z"
	/>
<g>
	<path class="st1" d="M287,282.1h-77.8c12.1,36.6,1,53.3,1,53.3l26.9,6.1h22l26.9-6.1C286,335.4,274.9,318.7,287,282.1z"/>
	<path class="st1" d="M248.2,390.1c44.9,0,37.8-54.7,37.8-54.7s-8.9,17.3-38.1,17.3s-37.5-17.3-37.5-17.3S203.3,390.1,248.2,390.1z"
		/>
	<path class="st1" d="M247.8,333.4c-77.2,0-139.1,22.1-146.4,49.3c-3.3,12.2-7,35.2-10.1,57.5c42.7,34.9,97.4,55.9,156.9,55.9
		s114.1-21,156.9-55.9c-3.2-22.3-6.9-45.4-10.1-57.5C387.5,355.5,324.9,333.4,247.8,333.4z"/>
</g>
<polygon class="st2" points="349.1,408.1 147.1,408.1 159.8,153.1 335.2,132.6 "/>
<rect x="205.1" y="324.9" class="st3" width="86" height="25"/>
<path class="st4" d="M247.8,333.4c-77.2,0-139.1,22.1-146.4,49.3c-3.3,12.2-7,35.2-10.1,57.5c42.7,34.9,97.4,55.9,156.9,55.9
	s114.1-21,156.9-55.9c-3.2-22.3-6.9-45.4-10.1-57.5C387.5,355.5,324.9,333.4,247.8,333.4z"/>
<g>
	<path class="st5" d="M293.9,336.2c-14.5-1.8-30-2.7-46.1-2.7c-15.9,0-31.2,0.9-45.5,2.7l45.8,91L293.9,336.2z"/>
	<path class="st5" d="M168.1,357.2l37-32.3l32,63.9c0,0-25.2,7.1-25.5,6.8L168.1,357.2z"/>
	<path class="st5" d="M328.1,357.2l-37-32.3l-32,63.9c0,0,25.2,7.1,25.5,6.8L328.1,357.2z"/>
</g>
<g>
	<path class="st1" d="M248.1,412.1l-37.8-76.8c0,0,9.2-12.4,37.4-12.4s38.1,12.5,38.1,12.5L248.1,412.1z"/>
	<path class="st1" d="M287,282.1h-77.8c12.1,36.6,1,53.3,1,53.3s16.4,6.1,37.9,6.1s37.9-6.1,37.9-6.1S274.9,318.7,287,282.1z"/>
</g>
<path class="st6" d="M327.9,175.2c0-92.4-35.7-113.6-79.8-113.6c-44,0-79.8,21.2-79.8,113.6c0,31.3,5.6,55.8,14,74.7
	c18.4,41.6,50.3,56.1,65.8,56.1s47.3-14.5,65.8-56.1C322.3,231,327.9,206.5,327.9,175.2z"/>
<g>
	<path class="st2" d="M288.7,71.1C272.5,54,237,58.7,237,58.7l0,0l0,0l0,0c-68.8,0-75.9,73.9-75.9,73.9l-1.3,20.5
		c0,14.2,7.6,31.8,15,49.3c0,0-1.5-57.7,33.1-73.1s92.1-11.7,89.6-29.4C297.4,99,299,82.1,288.7,71.1z"/>
	<path class="st2" d="M269.8,60.1c10.6-4.9,35.7,7.6,48.3,26.3c6.7,9.9,14.5,25,17.1,46.2c0,0,0.3,42.3-10.2,68.5
		c0,0-30.2-87.3-63.1-124.6C262,76,263,63.3,269.8,60.1z"/>
</g>
<g>
	<path class="st6" d="M160.7,207.7c4.3,25.2,9.6,26.3,17.3,25l-8.1-54.8C162.2,179.3,156.4,182.6,160.7,207.7z"/>
	<path class="st6" d="M326.5,178l-8.1,54.8c7.6,1.3,13,0.1,17.3-25C339.9,182.6,334.1,179.3,326.5,178z"/>
</g>
<path class="st7" d="M274.8,263.8c0,0-14.2,9.6-26.7,9.6s-26.7-9.6-26.7-9.6c0-1.4,11.3-5.3,16.1-6c3-0.5,10.6,2.5,10.6,2.5
	s7.5-2.9,10.4-2.5C263.4,258.5,274.8,263.8,274.8,263.8z"/>
<path class="st8" d="M274.8,263.8c0,0-14.2,13.5-26.7,13.5s-26.7-13.5-26.7-13.5s6.5,1.5,19.6,0.7c2.2-0.1,5.1,1.6,7,1.6
	c1.7,0,4.2-1.8,6.1-1.7C267.9,265.2,274.8,263.8,274.8,263.8z"/>
<g>
	<path class="st9" d="M239.4,241.8c1.4,0.3,2.9,0.6,4.3,0.8c1.4,0.1,2.9,0.3,4.3,0.3c1.4,0,2.9-0.1,4.3-0.2c1.4-0.2,2.9-0.5,4.3-0.8
		c-1.3,1.4-2.8,2-4.2,2.6s-2.9,0.7-4.4,0.7s-2.9-0.2-4.4-0.8C242.2,243.8,240.7,243.1,239.4,241.8z"/>
</g>
<path class="st10" d="M212.1,191.4c10.6,1,18.4,3.6,18.4,8.4s-8.2,5.9-18.4,5.9s-18.4-1.2-18.4-5.9S195.7,189.9,212.1,191.4z"/>
<ellipse class="st11" cx="212" cy="198.5" rx="8.3" ry="7.3"/>
<ellipse class="st12" cx="212" cy="198.5" rx="4.7" ry="4.1"/>
<path class="st10" d="M302.4,199.8c0,4.7-8.2,5.9-18.4,5.9c-10.2,0-18.4-1.1-18.4-5.9s7.8-7.4,18.4-8.4
	C300.4,189.9,302.4,195.1,302.4,199.8z"/>
<ellipse class="st11" cx="284.1" cy="198.5" rx="8.3" ry="7.3"/>
<ellipse class="st12" cx="284.1" cy="198.5" rx="4.7" ry="4.1"/>
<ellipse class="st10" cx="280.1" cy="195.5" rx="1.8" ry="1.6"/>
<ellipse class="st10" cx="209.2" cy="195.5" rx="1.8" ry="1.6"/>
<path class="st6" d="M217.9,180.9c0,0-48.6,27-28.7,17.7c22.2-10.4,41.7-3.6,41.7-1.1L217.9,180.9z"/>
<path class="st6" d="M308.5,200.5c0.2-2.5-19.7-12.7-42.9-5.1c-13.7,4.4-9.9-1.5,4-7.4c7.2-3,33.8-5.2,33.8-5.2L308.5,200.5z"/>
<g>
	<path class="st2" d="M235.5,183.7c-4.4-1.6-8.5-3-12.5-3.7c-2-0.3-3.9-0.7-5.9-1c-2-0.2-4.1-0.4-6.1-0.2c-1.9,0.1-4.1,0.4-6.1,0.8
		c-1.9,0.4-3.9,0.9-5.7,1.5c-3.7,1.1-6.9,2.4-10,3.5c-0.2,0-0.4,0-0.6,0c2.2-1.2,4.8-2.7,8.3-4.3c3.4-1.6,7.7-3.4,12.3-4.5
		c2.3-0.5,5-1.2,7.5-1.4c2.5-0.2,5.2-0.1,7.5,0.4c2.5,0.6,4.7,1.6,6.8,2.9c2,1.4,3.8,3.1,4.6,5.5
		C235.5,183.3,235.5,183.5,235.5,183.7z"/>
</g>
<g>
	<path class="st2" d="M260.5,183.2c0.8-2.4,2.7-4.1,4.6-5.5c2.1-1.4,4.3-2.3,6.8-2.9c2.3-0.5,5-0.6,7.5-0.4c2.5,0.2,5.1,0.9,7.5,1.4
		c4.6,1.1,8.9,2.9,12.3,4.5c3.5,1.6,6.1,3.1,8.3,4.3c-0.2,0-0.4,0-0.6,0c-3-1.1-6.2-2.3-10-3.5c-1.8-0.6-3.8-1.1-5.7-1.5
		c-2-0.4-4.2-0.7-6.1-0.8c-2.1-0.1-4.1,0-6.1,0.2c-2,0.2-3.9,0.7-5.9,1c-4,0.7-8.1,2-12.5,3.7C260.6,183.5,260.6,183.3,260.5,183.2z
		"/>
</g>
<path class="st13" d="M265.4,196.9c0,0,11.1-10.3,33.9-2.7c0,0,5.7,2.2,9.1,2.5c3.3,0.3-2.3,2-7.6-0.8
	C295.6,193.1,279.9,191,265.4,196.9z"/>
<path class="st13" d="M231,197.3c0,0-11.3-10.1-34-2.3c0,0-5.7,2.3-9.1,2.6c-3.3,0.3,2.4,2,7.6-0.9S216.4,191.5,231,197.3z"/>
<g>
	<rect x="164" y="177.1" class="st14" width="11" height="6.7"/>
	<rect x="319.5" y="177.1" class="st14" width="11" height="6.7"/>
	<g id="csrOnZ_1_">
		<g>
			<g>
				<path d="M184.8,171c14.2-0.7,29.2,2.6,43.8,8.6c4.7,1.9,9.6,3.1,14.5,4.5c5.2,1.4,10.1-0.1,15.1-1.4c7.2-2,14-5.1,21.1-7.3
					c9.2-2.8,18.6-4.4,28.3-4.3c6.2,0.1,12.4-0.5,18.5,0.4c1.7,0.2,3.4,0.5,5,1.2c2.3,0.9,3.2,2.6,2.7,5c-0.6,3.6-2.3,6.8-3.9,10.1
					c-3.7,7.8-7.3,15.6-13,22.2c-6.6,7.7-14.8,13-24.9,14.5c-13.2,2-27.1-3.4-33.5-16.5c-1.3-2.6-2.8-5.2-4.1-7.8
					c-1.3-2.5-3.3-3.6-6-3.6c-2.9,0-5.4,0.6-6.9,3.4c-2,3.8-3.8,7.7-6.2,11.3c-6.5,9.7-16,13.8-27.5,13.5
					c-11-0.3-19.9-5.3-27.4-13.1c-5.7-5.9-9.4-13.1-12.9-20.4c-1.9-4-4.1-7.9-5.2-12.3c-1-4.2,0.3-6.2,4.6-7.1
					C172.3,170.7,177.8,171.1,184.8,171z M192.5,177.1c-2.3-0.4-4.5,0.2-6.8,0.5c-6.1,0.7-8.1,3.1-8.1,9.3
					c0.1,5.6,1.2,11.1,3.6,16.2c6.6,14.6,21.7,22.6,37.3,16.9c6-2.2,11-5.8,13.8-11.7c3.7-7.9,0.2-17.5-7.9-22.5
					C214.6,179.6,203.7,177.9,192.5,177.1z M318.9,186.9c0.1-6-1.4-7.8-7.2-9.1c-2-0.4-4-0.8-6-0.8c-6.8-0.1-13.5,1.1-20.1,2.9
					c-6,1.6-11.7,3.9-16.5,8.1c-7.5,6.7-8.5,17.3-2.3,24.3c5.5,6.2,12.6,9.1,20.6,9.3c10.6,0.3,18.6-4.7,24.7-13.1
					C316.8,202.2,318.6,194.8,318.9,186.9z M325.4,182.4c1.6,0,2.9,0,4.1-0.5c0.5-0.2,1-0.5,1-1.1c0-0.6-0.5-0.9-1-1.1
					c-2.2-0.8-4.5-0.9-6.8-0.1c-0.6,0.2-1.1,0.6-1.1,1.3c0,0.7,0.6,1,1.1,1.2C323.6,182.5,324.7,182.3,325.4,182.4z M170.4,182.4
					c1.2,0,2.4,0,3.5-0.5c0.5-0.2,1-0.5,1-1.1c0.1-0.6-0.4-0.9-0.9-1.1c-2.3-0.9-4.7-0.9-7,0c-0.5,0.2-0.9,0.5-0.9,1.2
					c0,0.6,0.5,0.9,1,1.1C168.2,182.4,169.3,182.4,170.4,182.4z"/>
			</g>
		</g>
	</g>
</g>
</svg>
