<?xml version="1.0" encoding="utf-8"?>
<!-- Generator: Adobe Illustrator 25.2.1, SVG Export Plug-In . SVG Version: 6.00 Build 0)  -->
<svg version="1.1" id="Layer_1" xmlns="http://www.w3.org/2000/svg" xmlns:xlink="http://www.w3.org/1999/xlink" x="0px" y="0px"
	 viewBox="0 0 496.2 496.2" style="enable-background:new 0 0 496.2 496.2;" xml:space="preserve">
<style type="text/css">
	.st0{fill:#A3D5E0;}
	.st1{fill:#019897;}
	.st2{fill:#D0EAEF;}
	.st3{fill:#E2A379;}
	.st4{fill:#F4B382;}
	.st5{fill:#F2DE7C;}
	.st6{fill:#FFFFFF;}
	.st7{fill:#678683;}
	.st8{fill:#1E1E1E;}
	.st9{fill:#47200D;}
	.st10{fill:#D89364;}
	.st11{fill:#E4F0F2;}
</style>
<path class="st0" d="M496.2,248.1C496.2,111.1,385.1,0,248.1,0S0,111.1,0,248.1s111.1,248.1,248.1,248.1S496.2,385.1,496.2,248.1z"
	/>
<path class="st1" d="M247.8,333.4c-77.2,0-139.1,22.1-146.4,49.3c-3.3,12.2-7,35.2-10.1,57.5c42.7,34.9,97.4,55.9,156.9,55.9
	s114.1-21,156.9-55.9c-3.2-22.3-6.9-45.4-10.1-57.5C387.5,355.5,324.9,333.4,247.8,333.4z"/>
<path class="st2" d="M198.8,336.5c0,0-19.2,44,49,44s49.7-44,49.7-44l-49.4-5.8L198.8,336.5z"/>
<path class="st3" d="M287,282.1h-77.8c12.1,36.6,1,53.3,1,53.3l26.9,12.9h22l26.9-12.9C286,335.4,274.9,318.7,287,282.1z"/>
<path class="st4" d="M327.9,175.2c0-92.4-35.7-113.6-79.8-113.6c-44,0-79.8,21.2-79.8,113.6c0,31.3,5.6,55.8,14,74.7
	c18.4,41.6,50.3,56.1,65.8,56.1s47.3-14.5,65.8-56.1C322.3,231,327.9,206.5,327.9,175.2z"/>
<g>
	<path class="st5" d="M248.1,61.6c-48.7,0-82.7,25.6-82.7,118c0,0,82.7-45.9,82.7-79.5V61.6z"/>
	<path class="st5" d="M248,61.6c48.7,0,82.8,25.6,82.8,118c0,0-82.7-45.9-82.7-79.5L248,61.6z"/>
</g>
<path class="st1" d="M169.8,80.1c0,8-3.8,71.6-3.8,71.6h164.5c0,0-3.8-63.6-3.8-71.6c0-4-33.1-21.5-77.7-21.5
	C204,58.6,169.8,76.1,169.8,80.1z"/>
<path class="st3" d="M210.2,335.4c0,0-14.8,36.7,37.6,36.7s38.2-36.7,38.2-36.7L247.8,317L210.2,335.4z"/>
<g>
	<path class="st4" d="M160.7,207.7c4.3,25.2,9.6,26.3,17.3,25l-8.1-54.8C162.2,179.3,156.4,182.6,160.7,207.7z"/>
	<path class="st4" d="M326.5,178l-8.1,54.8c7.6,1.3,13,0.1,17.3-25C339.9,182.6,334.1,179.3,326.5,178z"/>
</g>
<g>
	<path class="st5" d="M174.8,183.1c-0.4-2.7-0.5-5.2-0.4-7.1c0.1-2.9,0.5-4.7,0.5-4.7l-9.4,3.5c0,1.4,0,2.9,0,4.3c0,0,1-0.3,2.8-0.9
		c-0.1,0-0.2,0.1-0.3,0.1c1.3,2.2,2.9,5.6,4.5,10.5C172.4,188.8,176.1,191.5,174.8,183.1z"/>
	<path class="st5" d="M321.9,176c0.1,2,0,4.4-0.4,7.1c-1.3,8.4,2.3,5.7,2.3,5.7c1.5-5,3.2-8.3,4.4-10.5c1.6,0.6,2.5,0.8,2.5,0.8
		c0-1.5,0-2.9,0-4.3l-9.3-3.5C321.4,171.3,321.8,173.1,321.9,176"/>
</g>
<path class="st6" d="M212.9,192c10.6,1,18.4,3.6,18.4,8.4s-8.2,5.9-18.4,5.9s-18.4-1.2-18.4-5.9S196.5,190.5,212.9,192z"/>
<ellipse class="st7" cx="212.8" cy="199.1" rx="8.3" ry="7.3"/>
<ellipse class="st8" cx="212.8" cy="199.1" rx="4.7" ry="4.1"/>
<path class="st6" d="M297.3,200.4c0,4.7-8.2,5.9-18.4,5.9c-10.2,0-18.4-1.1-18.4-5.9s7.8-7.4,18.4-8.4
	C295.3,190.5,297.3,195.7,297.3,200.4z"/>
<ellipse class="st7" cx="279" cy="199.1" rx="8.3" ry="7.3"/>
<ellipse class="st8" cx="279" cy="199.1" rx="4.7" ry="4.1"/>
<ellipse class="st6" cx="275" cy="196.1" rx="1.8" ry="1.6"/>
<ellipse class="st6" cx="210" cy="196.1" rx="1.8" ry="1.6"/>
<path class="st4" d="M215.6,181.1c0,0-43.2,25.9-25.5,16.9c19.8-10.1,37.6-4.5,37.8-2.2L215.6,181.1z"/>
<path class="st4" d="M303.2,200.7c0.3-2.3-17.3-12.4-38.7-6.5c-12.7,3.4-8.9-1.8,3.9-6.5c6.7-2.4,30.9-3.2,30.9-3.2L303.2,200.7z"/>
<g>
	<path class="st9" d="M233.9,188.1c-4.4-1.6-8.5-3-12.5-3.7c-2-0.3-3.9-0.7-5.9-1c-2-0.2-4.1-0.4-6.1-0.2c-1.9,0.1-4.1,0.4-6.1,0.8
		c-1.9,0.4-3.9,0.9-5.7,1.5c-3.7,1.1-6.9,2.4-10,3.5c-0.2,0-0.4,0-0.6,0c2.2-1.2,4.8-2.7,8.3-4.3c3.4-1.6,7.7-3.4,12.3-4.5
		c2.3-0.5,5-1.2,7.5-1.4c2.5-0.2,5.2-0.1,7.5,0.4c2.5,0.6,4.7,1.6,6.8,2.9c2,1.4,3.8,3.1,4.6,5.5C234,187.8,234,187.9,233.9,188.1z"
		/>
</g>
<g>
	<path class="st9" d="M260.1,187.6c0.8-2.4,2.7-4.1,4.6-5.5c2.1-1.4,4.3-2.3,6.8-2.9c2.3-0.5,5-0.6,7.5-0.4c2.5,0.2,5.1,0.9,7.5,1.4
		c4.6,1.1,8.9,2.9,12.3,4.5c3.5,1.6,6.1,3.1,8.3,4.3c-0.2,0-0.4,0-0.6,0c-3-1.1-6.2-2.3-10-3.5c-1.8-0.6-3.8-1.1-5.7-1.5
		c-2-0.4-4.2-0.7-6.1-0.8c-2.1-0.1-4.1,0-6.1,0.2c-2,0.2-3.9,0.7-5.9,1c-4,0.7-8.1,2-12.5,3.7C260.1,187.9,260.1,187.8,260.1,187.6z
		"/>
</g>
<g>
	<path class="st10" d="M238,239.6c1.4,0.3,2.9,0.6,4.3,0.8c1.4,0.1,2.9,0.3,4.3,0.3c1.4,0,2.9-0.1,4.3-0.2c1.4-0.2,2.9-0.5,4.3-0.8
		c-1.3,1.4-2.8,2-4.2,2.6s-2.9,0.7-4.4,0.7s-2.9-0.2-4.4-0.8C240.8,241.6,239.3,240.9,238,239.6z"/>
</g>
<path class="st9" d="M264.1,195.6c0,0,10.5-8.8,30.9-1c0,0,5.1,2.2,8.1,2.6s-2.2,1.7-6.8-1S277.6,190.8,264.1,195.6z"/>
<path class="st9" d="M228,195.6c0,0-10.5-8.8-30.9-1c0,0-5.1,2.2-8.1,2.6c-3,0.4,2.2,1.7,6.8-1C200.5,193.4,214.6,190.8,228,195.6z"
	/>
<g>
	<path class="st11" d="M309.3,215.4l-61.2-12.2l-65.1,7.8l-1,38h0.1c0.1,0.2,0.1,0.5,0.2,0.8c18.4,41.6,50.3,56.1,65.8,56.1
		s47.3-14.5,65.8-56.1c0.1-0.3,0.2-0.5,0.2-0.8h0.1l-3-34.1L309.3,215.4z"/>
	<path class="st11" d="M307.1,221.2c-0.3,0-2.8,3.6-3,3.5c-1-0.5,0.8-5.4,1.2-6.4l19.2-43.7c0.5-1,1.7-1.4,2.7-1
		c1,0.5,1.4,1.7,1,2.7L309,220C308.6,220.7,307.9,221.2,307.1,221.2z"/>
	<path class="st11" d="M184.9,209.8c-0.8,0-1.7,8.8-2,8l-14.8-41.5c-0.5-1,0-2.2,1-2.7s2.2,0,2.7,1l14.1,39.2c0.5,1,0.9-4.7-0.1-4.2
		C185.4,209.7,185.1,209.8,184.9,209.8z"/>
</g>
</svg>
