<?xml version="1.0" encoding="utf-8"?>
<!-- Generator: Adobe Illustrator 25.1.0, SVG Export Plug-In . SVG Version: 6.00 Build 0)  -->
<svg version="1.1" id="Layer_1" xmlns="http://www.w3.org/2000/svg" xmlns:xlink="http://www.w3.org/1999/xlink" x="0px" y="0px"
	 viewBox="0 0 496.2 496.2" style="enable-background:new 0 0 496.2 496.2;" xml:space="preserve">
<style type="text/css">
	.st0{fill:#48A1AF;}
	.st1{fill:#3FBBD8;}
	.st2{fill:#E9F2F4;}
	.st3{fill:#C9DEE2;}
	.st4{fill:#78DDF4;}
	.st5{fill:#8E502E;}
	.st6{fill:#263A44;}
	.st7{fill:#9B5C32;}
	.st8{fill:#191919;}
	.st9{fill:#141414;}
	.st10{fill:#FFFFFF;}
	.st11{fill:#4ECFF2;}
	.st12{fill:#B74E39;}
	.st13{fill:#47200D;}
	.st14{fill:#8E562F;}
	.st15{fill:#844A2C;}
	.st16{fill:#7A4229;}
</style>
<path class="st0" d="M496.2,248.1C496.2,111.1,385.1,0,248.1,0S0,111.1,0,248.1s111.1,248.1,248.1,248.1S496.2,385.1,496.2,248.1z"
	/>
<polygon class="st1" points="306.4,352.4 189.6,352.4 208.3,320.3 248.1,315.1 287.9,320.3 "/>
<path class="st2" d="M248.1,496.2c70.2,0,133.6-29.2,178.7-76c-2.8-15.1-5.6-28.9-8.3-37.4c-8.5-27.3-81.2-49.3-170.8-49.3
	s-161.5,22-170,49.3c-2.6,8.5-5.5,22.2-8.3,37.4C114.5,467,177.9,496.2,248.1,496.2z"/>
<rect id="SVGCleanerId_0" x="140.3" y="433.6" class="st3" width="63" height="10.5"/>
<g>
	<rect id="SVGCleanerId_0_1_" x="140.3" y="433.6" class="st3" width="63" height="10.5"/>
</g>
<path class="st4" d="M247.7,333.4c-1.4,0-2.9,0-4.3,0c-0.4,0-0.8,0-1.1,0c-1.1,0-2.1,0-3.2,0c-0.2,0-0.5,0-0.7,0
	c-19.7,0.3-37.9,1.8-52.9,4.1c0,0,4,37.9,4,58.6l58.5,69l58.3-68.9c0-42.6-0.1-58.9-0.1-58.9C289.5,334.8,270.3,333.4,247.7,333.4z"
	/>
<path class="st5" d="M287,282.1h-77.8c12.1,36.6,1,53.3,1,53.3l26.9,6.1h22l26.9-6.1C286,335.4,274.9,318.7,287,282.1z"/>
<g>
	<path class="st6" d="M248.1,340.2l-15.7,4.7c0,0,5.4,25.6,15.7,25.6c10.3,0,15.7-25.6,15.7-25.6L248.1,340.2z"/>
	<path class="st6" d="M248.1,468.9c0,0,16.1-29.4,23.7-45.8l-19.7-65.7H244l-19.5,65.4C232.1,439.3,248.1,468.9,248.1,468.9z"/>
</g>
<path class="st7" d="M336.4,175.2c0-92.4-39.5-113.6-88.3-113.6c-48.7,0-88.3,21.2-88.3,113.6c0,31.3,6.2,55.8,15.5,74.7
	c20.4,41.6,55.7,56.1,72.8,56.1s52.4-14.5,72.8-56.1C330.2,231,336.4,206.5,336.4,175.2z"/>
<g>
	<path class="st8" d="M247.6,292.9h0.5C247.9,292.9,247.8,292.9,247.6,292.9L247.6,292.9z"/>
	<path class="st8" d="M248.6,292.9L248.6,292.9c-0.2,0-0.3,0-0.5,0H248.6z"/>
</g>
<g>
	<path class="st7" d="M170.4,238.7c-8.4,1.4-14.4,0.1-19.1-27.7s1.7-31.5,10.1-32.9L170.4,238.7z"/>
	<path class="st7" d="M325.9,238.7c8.4,1.4,14.3,0.1,19.1-27.7c4.8-27.8-1.7-31.5-10.1-32.9L325.9,238.7z"/>
</g>
<g>
	<path class="st9" d="M336.4,175.2c0-92.4-30.3-116.1-88.3-116.1s-88.3,23.7-88.3,116.1l39.8-53.1c0,0,26.5,20,48.5,20
		s46.2-20,46.2-20L336.4,175.2z"/>
	<path class="st9" d="M165.5,140.8c-4.2,10.9-5.6,24.4-5.6,37.5c0,0,8.8-1.9,8.8,2.6l2.8,27.6l3.9-1.9c-0.2-23,4.9-68,4.9-68
		L165.5,140.8z"/>
	<path class="st9" d="M330.8,140.8c4.2,10.9,5.6,24.4,5.6,37.5c0,0-8.8-1.9-8.8,2.6l-2.8,27.6l-3.9-1.9c0.2-23-4.9-66.2-4.9-66.2
		L330.8,140.8z"/>
</g>
<g>
	<path class="st10" d="M311.5,337.4L311.5,337.4L311.5,337.4L311.5,337.4z"/>
	<path class="st10" d="M298.5,335.9L298.5,335.9L298.5,335.9z"/>
</g>
<path class="st11" d="M306.5,336.6l-18.6-16.2l-39.8,19.8c0,0,58.1,32.8,58.4,32.6V336.6z"/>
<polygon class="st3" points="358,345.9 293.3,324.9 248.1,469.1 330,373.1 319,362.1 335.5,362.1 "/>
<path class="st11" d="M189.7,336.6l18.6-16.2l39.8,19.9c0,0-58.1,32.8-58.3,32.6v-36.3H189.7z"/>
<polygon class="st3" points="138.1,345.9 203.1,324.9 248.1,469.1 166.1,373.1 177.1,362.1 160.6,362.1 "/>
<g>
	<rect x="154.8" y="412.6" class="st0" width="12.5" height="21"/>
	<path class="st0" d="M162.3,409.1c0-0.7-0.6-1.2-1.2-1.2s-1.2,0.6-1.2,1.2v4.2h2.5v-4.2H162.3z"/>
</g>
<path class="st12" d="M277.6,259.9"/>
<path class="st10" d="M302.8,198.7c0,4.7-8.2,8.6-18.4,8.6s-18.4-3.8-18.4-8.6s7.8-7.4,18.4-8.4C300.8,188.8,302.8,194,302.8,198.7z
	"/>
<ellipse class="st13" cx="284.5" cy="199.8" rx="8.3" ry="7.3"/>
<path class="st10" d="M197.2,197.6c0,4.7,8.2,8.5,18.4,8.5c10.1,0,18.4-3.8,18.4-8.5s-8.2-7.2-18.4-8.5
	C199,186.8,197.2,192.9,197.2,197.6z"/>
<ellipse class="st13" cx="215.4" cy="198.8" rx="8.3" ry="7.3"/>
<g>
	<path class="st13" d="M265.2,182.1c1.4-1.8,3.2-3.1,5.1-4.2c1-0.5,1.9-1,2.9-1.4c1-0.4,2-0.8,3.1-1c1.1-0.2,2.1-0.5,3.2-0.6
		c1.1-0.1,2.2-0.1,3.3,0l3.2,0.4c1.1,0.2,2.1,0.4,3.2,0.5c1.1,0.1,2.1,0.4,3.1,0.7c1,0.3,2.1,0.4,3.1,0.8l3,1.1
		c1,0.4,1.9,0.9,2.9,1.3c1.9,0.8,3.7,2,5.4,3.1c1.7,1.1,3.3,2.5,4.9,3.7l-0.4,0.6l-2.8-1.2c-0.9-0.4-1.8-0.9-2.8-1.1
		c-1.9-0.6-3.7-1.4-5.7-1.7c-1-0.2-1.9-0.5-2.8-0.7l-2.9-0.4c-0.9-0.2-1.9-0.2-2.9-0.3c-1-0.1-1.9-0.2-2.9-0.1c-1,0-1.9,0-2.8,0.1
		l-2.8,0.4c-0.9,0.1-1.9,0.3-2.8,0.4c-0.9,0.1-1.9,0.2-2.8,0.2c-0.5,0-0.9,0-1.4,0.1c-0.5,0-0.9,0.1-1.4,0.1c-1,0-1.9,0.1-2.9,0.1
		c-2,0.1-4,0.1-6.2,0.1L265.2,182.1z"/>
</g>
<g>
	<path class="st13" d="M231.9,180.9c-4.4-0.5-8.3-1.1-12.1-1.5c-1.9-0.2-3.7-0.5-5.6-0.8c-1.9-0.3-3.8-0.6-5.7-0.5
		c-1.9,0.1-3.9,0.3-5.8,0.7c-1.9,0.4-3.8,0.9-5.7,1.6c-3.8,1.4-7.4,3.4-10.8,5.7l-0.5-0.5c2.8-3.2,6-6,9.7-8.3
		c3.7-2.3,7.9-4,12.3-4.8c2.2-0.4,4.5-0.8,6.8-0.9c2.3-0.1,4.6,0.2,6.7,0.9c2.2,0.7,4.2,1.7,6.1,3c1.9,1.3,3.6,2.8,4.8,4.8
		L231.9,180.9z"/>
</g>
<path class="st14" d="M320.9,206.6c0,0-17.6,41.9-35,36.6s-23.4-5.6-36.3-4.2V306c0,0,50.4-6,71.3-57.9S320.9,206.6,320.9,206.6z"/>
<path class="st14" d="M174.6,206.6c0,0,17.6,41.9,35,36.6s27.1-5.6,40-4.2V306c0,0-54.1-6-75-57.9S174.6,206.6,174.6,206.6z"/>
<path class="st15" d="M274.8,257c0,2.6-11.9,9.5-26.7,9.5s-26.7-7-26.7-9.5c0-1.6,8.5-6.1,14.1-6.9c3.6-0.5,12.5,2.9,12.5,2.9
	s8.8-3.4,12.4-2.9C266.2,250.9,274.8,257,274.8,257z"/>
<path class="st16" d="M274.8,257c0,2.6-11.9,12.4-26.7,12.4s-26.7-9.9-26.7-12.4c0,0,10.9,1.3,26.7,1.3S274.8,257,274.8,257z"/>
<g>
	<path class="st16" d="M233.9,234.8c2.4,0.3,4.8,0.5,7.2,0.7c2.4,0.1,4.8,0.3,7.2,0.3c2.4,0,4.8-0.1,7.1-0.2
		c2.4-0.2,4.8-0.4,7.2-0.7c-2.2,1.2-4.6,1.8-7,2.3c-2.4,0.5-4.9,0.6-7.3,0.6c-2.5,0-4.9-0.2-7.3-0.7
		C238.5,236.5,236.1,235.9,233.9,234.8z"/>
</g>
</svg>
