<?xml version="1.0" encoding="utf-8"?>
<!-- Generator: Adobe Illustrator 25.1.0, SVG Export Plug-In . SVG Version: 6.00 Build 0)  -->
<svg version="1.1" id="Layer_1" xmlns="http://www.w3.org/2000/svg" xmlns:xlink="http://www.w3.org/1999/xlink" x="0px" y="0px"
	 viewBox="0 0 496.2 496.2" style="enable-background:new 0 0 496.2 496.2;" xml:space="preserve">
<style type="text/css">
	.st0{fill:#48A1AF;}
	.st1{fill:#E2A379;}
	.st2{fill:#E9F2F4;}
	.st3{fill:#C9DEE2;}
	.st4{fill:#78DDF4;}
	.st5{fill:#30302E;}
	.st6{fill:#263A44;}
	.st7{fill:#4ECFF2;}
	.st8{fill:#F4B382;}
	.st9{fill:#CC785E;}
	.st10{fill:#C16952;}
	.st11{fill:#FFFFFF;}
</style>
<path class="st0" d="M496.2,248.1C496.2,111.1,385.1,0,248.1,0S0,111.1,0,248.1s111.1,248.1,248.1,248.1S496.2,385.1,496.2,248.1z"
	/>
<path id="SVGCleanerId_0" class="st1" d="M287,282.1h-77.8c12.1,36.6,1,53.3,1,53.3l26.9,6.1h22l26.9-6.1
	C286,335.4,274.9,318.7,287,282.1z"/>
<g>
	<path class="st1" d="M248.2,390.1c44.9,0,37.8-54.7,37.8-54.7s-8.9,17.3-38.1,17.3s-37.5-17.3-37.5-17.3S203.3,390.1,248.2,390.1z"
		/>
	<path class="st1" d="M247.8,333.4c-77.2,0-139.1,22.1-146.4,49.3c-3.3,12.2-7,35.2-10.1,57.5c42.7,34.9,97.4,55.9,156.9,55.9
		s114.1-21,156.9-55.9c-3.2-22.3-6.9-45.4-10.1-57.5C387.5,355.5,324.9,333.4,247.8,333.4z"/>
</g>
<path class="st2" d="M247.8,333.4c-77.2,0-139.1,22.1-146.4,49.3c-3.3,12.2-7,35.2-10.1,57.5c42.7,34.9,97.4,55.9,156.9,55.9
	s114.1-21,156.9-55.9c-3.2-22.3-6.9-45.4-10.1-57.5C387.5,355.5,324.9,333.4,247.8,333.4z"/>
<rect x="140.3" y="433.6" class="st3" width="63" height="10.5"/>
<g>
	<rect x="154.8" y="412.6" class="st0" width="12.5" height="21"/>
	<path class="st0" d="M162.3,409.1c0-0.7-0.6-1.2-1.2-1.2s-1.2,0.6-1.2,1.2v4.2h2.5v-4.2H162.3z"/>
</g>
<path class="st4" d="M247.7,333.4c-1.4,0-2.9,0-4.3,0c-0.4,0-0.8,0-1.1,0c-1.1,0-2.1,0-3.2,0c-0.2,0-0.5,0-0.7,0
	c-19.7,0.3-37.9,1.8-52.9,4.1c0,0,4,37.9,4,58.6l58.5,69l58.3-68.9c0-42.6-0.1-58.9-0.1-58.9C289.5,334.8,270.3,333.4,247.7,333.4z"
	/>
<g>
	<path class="st5" d="M378.1,279.3c0,0-51.3,32.4-130,32.4V61.6c46.7,0,63,14.7,76.3,40.2C338.8,129.1,378.1,279.3,378.1,279.3z"/>
	<path class="st5" d="M118.8,279.3c0,0,51.3,32.4,130,32.4V61.6c-46.7,0-63,14.7-76.3,40.2C158.1,129.1,118.8,279.3,118.8,279.3z"/>
</g>
<g>
	<path id="SVGCleanerId_0_1_" class="st1" d="M287,282.1h-77.8c12.1,36.6,1,53.3,1,53.3l26.9,6.1h22l26.9-6.1
		C286,335.4,274.9,318.7,287,282.1z"/>
</g>
<g>
	<path class="st6" d="M248.1,340.2l-15.7,4.7c0,0,5.4,25.6,15.7,25.6c10.3,0,15.7-25.6,15.7-25.6L248.1,340.2z"/>
	<path class="st6" d="M248.1,468.9c0,0,16.1-29.4,23.7-45.8l-19.7-65.7H244l-19.5,65.4C232.1,439.3,248.1,468.9,248.1,468.9z"/>
</g>
<path class="st7" d="M306.5,336.6l-18.6-16.2l-39.8,19.8c0,0,58.1,32.8,58.4,32.6V336.6z"/>
<polygon class="st3" points="358,351.6 293.3,324.9 248.1,469.1 330,373.1 319,362.1 335.5,362.1 "/>
<path class="st7" d="M189.7,336.6l18.6-16.2l39.8,19.9c0,0-58.1,32.8-58.3,32.6v-36.3H189.7z"/>
<polygon class="st3" points="138.1,351.6 203.1,324.9 248.1,469.1 166.1,373.1 177.1,362.1 160.6,362.1 "/>
<path class="st8" d="M327.9,175.2c0-92.4-35.7-113.6-79.8-113.6c-44,0-79.8,21.2-79.8,113.6c0,31.3,5.6,55.8,14,74.7
	c18.4,41.6,50.3,56.1,65.8,56.1s47.3-14.5,65.8-56.1C322.3,231,327.9,206.5,327.9,175.2z"/>
<g>
	<path class="st5" d="M174.8,183.1c-0.4-2.7-0.5-5.2-0.4-7.1c0.1-2.9,0.5-4.7,0.5-4.7l-9.4,3.5c0,1.4,0,2.9,0,4.3c0,0,1-0.3,2.8-0.9
		c-0.1,0-0.2,0.1-0.3,0.1c1.3,2.2,2.9,5.6,4.5,10.5C172.4,188.8,176.1,191.5,174.8,183.1z"/>
	<path class="st5" d="M321.9,176c0.1,2,0,4.4-0.4,7.1c-1.3,8.4,2.3,5.7,2.3,5.7c1.5-5,3.2-8.3,4.4-10.5c1.6,0.6,2.5,0.8,2.5,0.8
		c0-1.5,0-2.9,0-4.3l-9.3-3.5C321.4,171.3,321.8,173.1,321.9,176"/>
	<path class="st5" d="M347.3,175.2c0-92.4-44.4-113.6-99.2-113.6l0,0l0,0l0,0l0,0c-54.8,0-99.2,21.2-99.2,113.6h53.2l6-20.1l5,20.1
		H347.3z"/>
</g>
<g>
	<path class="st8" d="M160.7,207.7c4.3,25.2,9.6,26.3,17.3,25l-8.1-54.8C162.2,179.3,156.4,182.6,160.7,207.7z"/>
	<path class="st8" d="M326.5,178l-8.1,54.8c7.6,1.3,13,0.1,17.3-25C339.9,182.6,334.1,179.3,326.5,178z"/>
</g>
<path class="st9" d="M274.8,263.8c0,0-14.2,9.6-26.7,9.6s-26.7-9.6-26.7-9.6c0-1.4,11.3-5.3,16.1-6c3-0.5,10.6,2.5,10.6,2.5
	s7.5-2.9,10.4-2.5C263.4,258.5,274.8,263.8,274.8,263.8z"/>
<path class="st10" d="M274.8,263.8c0,0-14.2,13.5-26.7,13.5s-26.7-13.5-26.7-13.5s6.5,1.5,19.6,0.7c2.2-0.1,5.1,1.6,7,1.6
	c1.7,0,4.2-1.8,6.1-1.7C267.9,265.2,274.8,263.8,274.8,263.8z"/>
<path class="st11" d="M302.3,198.9c0,4.7-8.2,5.9-18.4,5.9s-18.4-1.1-18.4-5.9s7.8-7.4,18.4-8.4C300.3,189,302.3,194.2,302.3,198.9z
	"/>
<ellipse class="st5" cx="284" cy="197.5" rx="8.3" ry="7.3"/>
<g>
	<path class="st5" d="M264.7,182.3c1.4-1.8,3.2-3.1,5.1-4.2c1-0.5,1.9-1,2.9-1.4s2-0.8,3.1-1s2.1-0.5,3.2-0.6s2.2-0.1,3.3,0l3.2,0.4
		c1.1,0.2,2.1,0.4,3.2,0.5s2.1,0.4,3.1,0.7s2.1,0.4,3.1,0.8l3,1.1c1,0.4,1.9,0.9,2.9,1.3c1.9,0.8,3.7,2,5.4,3.1
		c1.7,1.1,3.3,2.5,4.9,3.7l-0.4,0.6l-2.8-1.2c-0.9-0.4-1.8-0.9-2.8-1.1c-1.9-0.6-3.7-1.4-5.7-1.7c-1-0.2-1.9-0.5-2.8-0.7l-2.9-0.4
		c-0.9-0.2-1.9-0.2-2.9-0.3s-1.9-0.2-2.9-0.1c-1,0-1.9,0-2.8,0.1l-2.8,0.4c-0.9,0.1-1.9,0.3-2.8,0.4c-0.9,0.1-1.9,0.2-2.8,0.2
		c-0.5,0-0.9,0-1.4,0.1c-0.5,0-0.9,0.1-1.4,0.1c-1,0-1.9,0.1-2.9,0.1c-2,0.1-4,0.1-6.2,0.1L264.7,182.3z"/>
</g>
<g>
	<path class="st5" d="M231.4,181.1c-4.4-0.5-8.3-1.1-12.1-1.5c-1.9-0.2-3.7-0.5-5.6-0.8c-1.9-0.3-3.8-0.6-5.7-0.5s-3.9,0.3-5.8,0.7
		c-1.9,0.4-3.8,0.9-5.7,1.6c-3.8,1.4-7.4,3.4-10.8,5.7l-0.5-0.5c2.8-3.2,6-6,9.7-8.3s7.9-4,12.3-4.8c2.2-0.4,4.5-0.8,6.8-0.9
		c2.3-0.1,4.6,0.2,6.7,0.9c2.2,0.7,4.2,1.7,6.1,3c1.9,1.3,3.6,2.8,4.8,4.8L231.4,181.1z"/>
</g>
<path class="st11" d="M214,190.5c10.6,1,18.4,3.6,18.4,8.4s-8.2,5.9-18.4,5.9s-18.4-1.2-18.4-5.9S197.6,189,214,190.5z"/>
<ellipse class="st5" cx="213.9" cy="197.5" rx="8.3" ry="7.3"/>
<ellipse class="st11" cx="209.9" cy="194.5" rx="1.8" ry="1.6"/>
<ellipse class="st11" cx="278.9" cy="194.5" rx="1.8" ry="1.6"/>
<g>
	<path class="st9" d="M257.7,236.9c-1.6-0.3-3.2-0.4-4.8-0.6c-1.6-0.1-3.2-0.3-4.8-0.3c-1.6,0-3.2,0.1-4.7,0.2
		c-1.6,0.2-3.2,0.3-4.8,0.6c1.5-1,3.1-1.5,4.7-1.9c1.6-0.4,3.3-0.5,4.9-0.5c1.7,0,3.3,0.2,4.9,0.6
		C254.6,235.5,256.2,236,257.7,236.9z"/>
</g>
</svg>
